<?xml version="1.0" encoding="utf-8"?>
<!-- Generator: Adobe Illustrator 18.1.0, SVG Export Plug-In . SVG Version: 6.00 Build 0)  -->
<svg version="1.1" id="Layer_1" xmlns="http://www.w3.org/2000/svg" xmlns:xlink="http://www.w3.org/1999/xlink" x="0px" y="0px"
	 viewBox="0 0 612 792" enable-background="new 0 0 612 792" xml:space="preserve">
<rect x="293.1" y="505.9" fill="#DB7171" width="48.9" height="33.9"/>
<rect x="419.4" y="409.4" fill="#894951" width="48.9" height="33.9"/>
<rect x="36.9" y="75.1" fill="#DF2D2B" width="48.9" height="33.9"/>
<rect x="36.9" y="25.6" fill="#338FD0" width="48.9" height="33.9"/>
<rect x="312.7" y="102.7" fill="#6C9188" width="48.9" height="33.9"/>
<g>
	<path fill="#FFFFFF" d="M332.1,126.8v-15.5h3.2c2,0,5.4,0.2,5.4,4.5c0,1.7-0.8,3.2-2.3,4.1l2.7,7.1H338l-2.7-7.2l0,0v7.2h-3.2
		V126.8z M335.1,117.9h0.6c1.4,0,2-0.9,2-2.3c0-1.1-0.6-2-2.1-2h-0.5V117.9z"/>
</g>
<polygon fill="#DB7171" points="155.3,498 300.2,437 155.4,338.4 19.9,396 "/>
<polygon fill="#E7E8E9" stroke="#231F20" stroke-width="0.7618" points="19.9,396 78.5,372.4 217.1,472 155.3,498 "/>
<polygon fill="#894951" points="295,439.1 421.5,385.9 279.1,285.9 155.3,338.4 "/>
<polygon fill="#E7E8E9" stroke="#231F20" stroke-width="1.5236" stroke-linejoin="bevel" points="286.1,240.5 286.1,283.9 19.9,396 
	19.9,349.4 63.3,331.7 63.3,365.2 95.9,352.5 95.9,341.4 108.1,336.2 108.1,326 119.7,321.2 119.7,309.3 "/>
<polygon fill="#E7E8E9" stroke="#231F20" stroke-width="1.5236" stroke-linejoin="bevel" points="386.4,352.7 261,270.1 
	306.5,258.1 421.5,338.1 "/>
<polygon fill="#E7E8E9" stroke="#231F20" stroke-width="1.5236" stroke-linejoin="bevel" points="19.9,137.8 155.3,238.5 
	155.3,332.3 19.9,237.9 "/>
<polygon fill="#E7E8E9" stroke="#231F20" stroke-width="1.5236" stroke-linejoin="bevel" points="19.9,137.8 65.8,142.9 80.9,154.9 
	39.5,152.4 "/>
<polygon fill="#E7E8E9" stroke="#231F20" stroke-width="1.5236" stroke-linejoin="bevel" points="134.3,223 181,229.8 201.9,247.4 
	155.3,238.5 "/>
<polygon fill="#E7E8E9" stroke="#231F20" stroke-width="1.5236" stroke-linejoin="bevel" points="65.8,142.9 157.8,127.9 
	173.4,139.5 80.9,154.9 "/>
<polygon fill="#E7E8E9" stroke="#231F20" stroke-width="1.5236" stroke-linejoin="bevel" points="181,229.8 273.6,214.1 
	289.3,226.8 201.9,247.4 "/>
<polygon fill="#C37DB2" stroke="#231F20" stroke-width="1.5236" stroke-linejoin="bevel" points="157.8,127.9 280,76.7 280,112.6 
	189.9,151.7 "/>
<polygon fill="#C37DB2" stroke="#231F20" stroke-width="1.5236" stroke-linejoin="bevel" points="273.6,214.1 378.1,175.1 
	394.9,183.7 289.3,226.8 "/>
<polygon fill="#DF2D2B" stroke="#000000" stroke-width="1.5236" stroke-linejoin="bevel" points="39.5,152.4 80.9,154.9 181,229.8 
	134.3,223 "/>
<polygon fill="#338FD0" stroke="#000000" stroke-width="1.5236" stroke-linejoin="bevel" points="80.9,154.9 144.6,144.3 
	240.9,219.5 181,229.8 "/>
<polygon fill="#C37DB2" stroke="#231F20" stroke-width="1.5236" stroke-linejoin="bevel" points="240.9,219.5 254.3,217.3 
	159,141.9 144.6,144.3 "/>
<polygon fill="#E7E8E9" stroke="#231F20" stroke-width="1.5236" stroke-linejoin="bevel" points="273.6,214.1 254.3,217.3 
	159,141.9 173.1,139.2 "/>
<polygon fill="#C37DB2" stroke="#231F20" stroke-width="1.5236" stroke-linejoin="bevel" points="189.9,151.7 208,165.1 
	289.2,129.7 289.2,108.7 "/>
<polygon fill="#6C9188" stroke="#000000" stroke-width="1.5236" stroke-linejoin="bevel" points="288,208.7 288,196.8 229.8,155.6 
	200.5,159.7 273.6,214.1 "/>
<polygon fill="#C37DB2" stroke="#231F20" stroke-width="1.5236" stroke-linejoin="bevel" points="289.2,108.7 280,101.9 280,112.6 
	"/>
<polygon fill="#D7A76E" stroke="#000000" stroke-width="1.5236" stroke-linejoin="bevel" points="250.6,329.9 250.6,319.8 
	226.3,303.2 226.3,313 "/>
<polygon fill="#D7A76E" stroke="#000000" stroke-width="1.5236" stroke-linejoin="bevel" points="250.6,319.8 302.3,297.3 
	278.8,281.7 226.3,303.2 "/>
<polygon fill="#D7A76E" stroke="#000000" stroke-width="1.5236" stroke-linejoin="bevel" points="250.6,329.9 312.8,304.1 
	302.3,297.3 250.6,319.8 "/>
<polygon fill="#E7E8E9" stroke="#231F20" stroke-width="1.5236" stroke-linejoin="bevel" points="421.5,338.1 421.5,385.9 
	155.3,498 155.3,446.9 198.7,429.3 198.7,462.8 231.3,450.1 231.3,439.1 243.5,433.8 243.5,423.6 255.1,418.7 255.1,406.8 "/>
<polygon stroke="#000000" stroke-width="1.5236" points="84.1,363.2 84.1,389 78.1,391.3 55.1,374.8 "/>
<line fill="none" stroke="#000000" stroke-width="1.5236" stroke-linejoin="bevel" stroke-dasharray="4.5708,4.5708" x1="19.9" y1="237.9" x2="19.9" y2="349.4"/>
<line fill="none" stroke="#000000" stroke-width="1.5236" stroke-linejoin="bevel" stroke-dasharray="4.5708,4.5708" x1="155.3" y1="332.3" x2="155.3" y2="446.9"/>
<line fill="none" stroke="#000000" stroke-width="1.5236" stroke-linejoin="bevel" stroke-dasharray="4.5708,4.5708" x1="408.3" y1="222.9" x2="408.3" y2="391.4"/>
<polygon fill="#6C9188" stroke="#000000" stroke-width="1.5236" stroke-linejoin="bevel" points="288,196.8 260.8,204.5 
	273.6,214.1 288,208.7 "/>
<polygon fill="#E7E8E9" stroke="#231F20" stroke-width="1.5236" stroke-linejoin="bevel" points="155.3,498 212.4,542.7 
	268.2,516.6 212.6,473.9 "/>
<polygon fill="#E7E8E9" stroke="#231F20" stroke-width="1.5236" stroke-linejoin="bevel" points="212.6,473.9 212.6,444.5 
	268.2,485.5 268.2,516.6 "/>
<polygon fill="#E7E8E9" stroke="#231F20" stroke-width="1.5236" stroke-linejoin="bevel" points="230.4,534.4 230.4,521.9 
	242.6,516.6 242.6,507.7 254.2,502.4 254.2,492.5 268.2,485.5 268.2,516.6 "/>
<polygon stroke="#000000" stroke-width="1.5236" points="35.7,360.7 69,348.2 84.1,363.2 55.1,374.8 "/>
<polygon fill="#CCCCCC" stroke="#000000" stroke-width="1.5236" stroke-linejoin="bevel" points="261.4,318.9 261.4,331.6 
	328.4,377 338.6,372.6 "/>
<polygon fill="#CCCCCC" stroke="#000000" stroke-width="1.5236" stroke-linejoin="bevel" points="261.4,318.9 306.2,299.9 
	386.4,352.7 338.6,372.6 "/>
<polygon fill="#DF2D2B" stroke="#000000" stroke-width="1.5236" points="170.8,491.4 170.8,448.9 190.1,441 190.1,483.4 "/>
<polygon fill="#E7E8E9" stroke="#231F20" stroke-width="1.5236" stroke-linejoin="bevel" points="155.3,332.3 408.3,228.6 
	408.3,178.2 289.3,226.8 201.9,247.4 155.3,238.5 "/>
<polygon fill="#DF2D2B" stroke="#000000" stroke-width="1.5236" points="170.8,309 170.8,265.2 189.6,258.4 189.6,301.6 "/>
<polygon fill="#E7E8E9" stroke="#231F20" stroke-width="1.5236" stroke-linejoin="bevel" points="19.9,349.4 155.3,446.9 155.3,498 
	19.9,396 "/>
<polygon stroke="#000000" stroke-width="1.5236" points="67.8,432 67.8,402.6 97.4,423.7 97.4,454.3 "/>
<g>
	<g>
		<path fill="#231F20" d="M125,539.4c-0.6-0.5-1.2-0.9-2-0.9c-0.9,0-1.4,0.5-1.4,1.4c0,2.3,4.2,2.4,4.2,6.2c0,2.4-1.4,4.4-3.9,4.4
			c-0.8,0-1.7-0.3-2.4-0.8V547c0.6,0.5,1.2,0.8,2.1,0.8s1.5-0.6,1.5-1.5c0-1.1-0.9-1.5-1.7-2c-1.5-1.1-2.6-2.1-2.6-4.1
			c0-2.3,1.2-4.1,3.6-4.1c0.9,0,1.7,0.3,2.4,0.8L125,539.4L125,539.4z"/>
		<path fill="#231F20" d="M130.8,538.3v2.6h1.1v2.1h-1.1v7.1h-2.6V543h-0.9v-2.1h0.9v-2.6H130.8z"/>
		<path fill="#231F20" d="M137.6,549.2L137.6,549.2c-0.5,0.8-0.9,1.2-1.8,1.2c-2.1,0-2.6-3.3-2.6-4.8c0-1.7,0.3-4.8,2.4-4.8
			c0.9,0,1.5,0.6,1.8,1.4l0,0v-1.2h2.6v9.3h-2.6v-1.1H137.6z M137.8,545.4c0-0.5,0-2.4-0.9-2.4s-0.9,2-0.9,2.4c0,0.6,0,2.6,0.9,2.6
			S137.8,546,137.8,545.4z"/>
		<path fill="#231F20" d="M141.5,538.1c0-0.9,0.8-1.7,1.7-1.7s1.7,0.8,1.7,1.7s-0.8,1.7-1.7,1.7S141.5,539.1,141.5,538.1z
			 M144.6,540.9v9.3H142v-9.3H144.6z"/>
		<path fill="#231F20" d="M148.9,540.9v1.1l0,0c0.5-0.8,1.1-1.4,2.1-1.5v2.6c-0.2,0-0.3,0-0.5,0c-1.7,0-1.8,1.2-1.8,2.6v4.7h-2.6
			v-9.3L148.9,540.9L148.9,540.9z"/>
		<path fill="#231F20" d="M155,540.9l1.2,5.4l0,0l1.2-5.4h2.3l1.2,5.4l0,0l0.2-1.1l1.1-4.5h2.4l-2.6,9.3h-2.1l-0.9-3.2l-0.6-2.7l0,0
			l-0.6,3l-0.8,2.9h-2.1l-2.6-9.3h2.7V540.9z"/>
		<path fill="#231F20" d="M170.2,549.2L170.2,549.2c-0.5,0.8-0.9,1.2-1.8,1.2c-2.1,0-2.6-3.3-2.6-4.8c0-1.7,0.3-4.8,2.4-4.8
			c0.9,0,1.5,0.6,1.8,1.4l0,0v-1.2h2.6v9.3H170v-1.1H170.2z M170.3,545.4c0-0.5,0-2.4-0.9-2.4s-0.9,2-0.9,2.4c0,0.6,0,2.6,0.9,2.6
			S170.3,546,170.3,545.4z"/>
		<path fill="#231F20" d="M176.7,540.9l0.9,3.8l0.3,1.5l0,0l1.2-5.3h2.6l-3.9,13.9h-2.6l1.5-4.8l-2.7-9H176.7z"/>
		<path fill="#231F20" d="M191.6,538.3v2.6h1.1v2.1h-1.1v7.1H189V543h-0.9v-2.1h0.9v-2.6H191.6z"/>
		<path fill="#231F20" d="M201.3,545.5c0,2.4-0.8,4.8-3.5,4.8s-3.5-2.4-3.5-4.8s0.8-4.8,3.5-4.8S201.3,543.1,201.3,545.5z
			 M196.7,545.5c0,0.6,0,2.6,0.9,2.6c0.9,0,0.9-2,0.9-2.6c0-0.6,0-2.6-0.9-2.6C196.7,543,196.7,544.9,196.7,545.5z"/>
		<path fill="#231F20" d="M119.2,572.2v-13.9h2.7c1.8,0,4.8,0.2,4.8,3.9c0,1.5-0.6,2.9-2,3.6l2.4,6.3h-2.9l-2.4-6.3l0,0v6.3H119.2z
			 M121.9,564.2h0.5c1.2,0,1.8-0.9,1.8-2s-0.5-1.8-1.8-1.7h-0.3v3.6H121.9z"/>
		<path fill="#231F20" d="M135.5,568.3h-4.1c0,0.8,0,2.1,0.9,2.1c0.6,0,0.8-0.5,0.8-1.1h2.3c-0.2,1.7-1.1,3-3,3
			c-2.6,0-3.6-2.3-3.6-4.7c0-2.3,0.8-5,3.5-5c1.7,0,3.3,1.5,3.2,4.5L135.5,568.3z M133.4,566.5c0-0.6-0.2-1.7-0.9-1.7
			s-0.9,1.1-0.9,1.7v0.3h2v-0.3H133.4z"/>
		<path fill="#231F20" d="M141.2,571.2L141.2,571.2c-0.5,0.8-0.9,1.2-1.8,1.2c-2.1,0-2.6-3.3-2.6-4.8c0-1.7,0.3-4.8,2.4-4.8
			c0.9,0,1.5,0.6,1.8,1.4l0,0v-1.2h2.6v9.3h-2.6v-1.1H141.2z M141.4,567.5c0-0.5,0-2.4-0.9-2.4s-0.9,2-0.9,2.4c0,0.6,0,2.6,0.9,2.6
			C141.4,570,141.4,568,141.4,567.5z"/>
		<path fill="#231F20" d="M148.2,562.9v1.1l0,0c0.5-0.8,1.1-1.4,2.1-1.5v2.6c-0.2,0-0.3,0-0.5,0c-1.7,0-1.8,1.2-1.8,2.6v4.7h-2.6
			v-9.3L148.2,562.9L148.2,562.9z"/>
		<path fill="#231F20" d="M157.1,572.2v-13.9h2.7c1.1,0,2,0,2.9,0.8s1.4,2,1.4,3.2s-0.5,2.1-1.5,2.9c1.2,0.6,1.7,2,1.7,3.2
			c0,2.7-2,3.9-4.5,3.9H157.1z M159.8,560.6v3.3c1.1,0,1.7-0.8,1.7-1.8C161.4,561.2,160.8,560.6,159.8,560.6z M159.8,566.2v3.8
			c1.1,0,1.8-0.8,1.8-2C161.6,566.9,161,566,159.8,566.2z"/>
		<path fill="#231F20" d="M170.2,571.2L170.2,571.2c-0.5,0.8-0.9,1.2-1.8,1.2c-2.1,0-2.6-3.3-2.6-4.8c0-1.7,0.3-4.8,2.4-4.8
			c0.9,0,1.5,0.6,1.8,1.4l0,0v-1.2h2.6v9.3H170v-1.1H170.2z M170.3,567.5c0-0.5,0-2.4-0.9-2.4s-0.9,2-0.9,2.4c0,0.6,0,2.6,0.9,2.6
			C170.2,570,170.3,568,170.3,567.5z"/>
		<path fill="#231F20" d="M177,557.3v14.8h-2.6v-14.8H177z"/>
		<path fill="#231F20" d="M183.5,572.1c-0.5,0.2-0.9,0.3-1.5,0.3c-2.6,0-3.5-2.7-3.5-4.8c0-2.3,0.9-4.8,3.6-4.8
			c0.5,0,0.9,0.2,1.4,0.3v2.3c-0.3-0.2-0.5-0.3-0.8-0.3c-1.2,0-1.5,1.5-1.5,2.4c0,1.1,0.2,2.4,1.5,2.4c0.3,0,0.6-0.2,0.8-0.3V572.1z
			"/>
		<path fill="#231F20" d="M191.9,567.5c0,2.4-0.8,4.8-3.5,4.8s-3.5-2.4-3.5-4.8s0.8-4.8,3.5-4.8S191.9,565.1,191.9,567.5z
			 M187.4,567.5c0,0.6,0,2.6,0.9,2.6c0.9,0,0.9-2,0.9-2.6s0-2.6-0.9-2.6C187.5,565.1,187.4,567.1,187.4,567.5z"/>
		<path fill="#231F20" d="M196.1,564.4L196.1,564.4c0.5-0.9,1.2-1.7,2.3-1.7c2,0,1.8,2.1,1.8,3.5v6h-2.6v-5.1c0-0.5,0.2-1.8-0.6-1.8
			c-0.6,0-0.8,0.6-0.8,1.1v5.7h-2.6v-9.3h2.6v1.7H196.1z"/>
		<path fill="#231F20" d="M204,562.9l0.9,3.8l0.3,1.5l0,0l1.2-5.3h2.6l-3.9,13.9h-2.6l1.5-4.8l-2.7-9H204z"/>
	</g>
</g>
<g>
	<g>
		<path fill="#231F20" d="M320.2,445.3c-0.6-0.5-1.2-0.9-2-0.9c-0.9,0-1.4,0.5-1.4,1.4c0,2.3,4.2,2.4,4.2,6.2c0,2.4-1.4,4.4-3.9,4.4
			c-0.8,0-1.7-0.3-2.4-0.8V453c0.6,0.5,1.2,0.8,2.1,0.8c0.9,0,1.5-0.6,1.5-1.5c0-1.1-0.9-1.5-1.7-2c-1.5-1.1-2.6-2.1-2.6-4.1
			c0-2.3,1.2-4.1,3.6-4.1c0.9,0,1.7,0.3,2.4,0.8L320.2,445.3L320.2,445.3z"/>
		<path fill="#231F20" d="M326.1,444.1v2.6h1.1v2.1h-1.1v7.1h-2.6v-7.1h-0.9v-2.1h0.9v-2.6H326.1z"/>
		<path fill="#231F20" d="M332.9,454.9L332.9,454.9c-0.5,0.8-0.9,1.2-1.8,1.2c-2.1,0-2.6-3.3-2.6-4.8c0-1.7,0.3-4.8,2.4-4.8
			c0.9,0,1.5,0.6,1.8,1.4l0,0v-1.2h2.6v9.3h-2.6v-1.1H332.9z M333,451.3c0-0.5,0-2.4-0.9-2.4c-0.9,0-0.9,2-0.9,2.4
			c0,0.6,0,2.6,0.9,2.6C333,453.7,333,451.7,333,451.3z"/>
		<path fill="#231F20" d="M336.8,443.9c0-0.9,0.8-1.7,1.7-1.7c0.9,0,1.7,0.8,1.7,1.7c0,0.9-0.8,1.7-1.7,1.7
			C337.6,445.6,336.8,444.8,336.8,443.9z M339.8,446.6v9.3h-2.6v-9.3H339.8z"/>
		<path fill="#231F20" d="M344.2,446.6v1.1l0,0c0.5-0.8,1.1-1.4,2.1-1.5v2.6c-0.2,0-0.3,0-0.5,0c-1.7,0-1.8,1.2-1.8,2.6v4.7h-2.6
			v-9.3L344.2,446.6L344.2,446.6z"/>
		<path fill="#231F20" d="M350.2,446.6l1.2,5.4l0,0l1.2-5.4h2.3l1.2,5.4l0,0l0.2-1.1l1.1-4.5h2.4l-2.6,9.3h-2.1l-0.9-3.2l-0.6-2.7
			l0,0l-0.6,3l-0.8,2.9h-2.1l-2.6-9.3h2.7V446.6z"/>
		<path fill="#231F20" d="M365.5,454.9L365.5,454.9c-0.5,0.8-0.9,1.2-1.8,1.2c-2.1,0-2.6-3.3-2.6-4.8c0-1.7,0.3-4.8,2.4-4.8
			c0.9,0,1.5,0.6,1.8,1.4l0,0v-1.2h2.6v9.3h-2.6v-1.1H365.5z M365.6,451.3c0-0.5,0-2.4-0.9-2.4c-0.9,0-0.9,2-0.9,2.4
			c0,0.6,0,2.6,0.9,2.6C365.6,453.7,365.6,451.7,365.6,451.3z"/>
		<path fill="#231F20" d="M371.9,446.6l0.9,3.8l0.3,1.5l0,0l1.2-5.3h2.6l-3.9,13.9h-2.6l1.5-4.8l-2.7-9H371.9z"/>
		<path fill="#231F20" d="M386.9,444.1v2.6h1.1v2.1h-1.1v7.1h-2.6v-7.1h-0.9v-2.1h0.9v-2.6H386.9z"/>
		<path fill="#231F20" d="M396.5,451.3c0,2.4-0.8,4.8-3.5,4.8c-2.7,0-3.5-2.4-3.5-4.8c0-2.4,0.8-4.8,3.5-4.8
			C395.8,446.5,396.5,448.9,396.5,451.3z M392,451.3c0,0.6,0,2.6,0.9,2.6c0.9,0,0.9-2,0.9-2.6s0-2.6-0.9-2.6
			C392,448.9,392,450.8,392,451.3z"/>
		<path fill="#231F20" d="M321.4,466.8c-0.3-0.2-0.8-0.2-1.1-0.2c-2.4,0-3.5,2.3-3.5,4.4s1.1,4.5,3.5,4.5c0.3,0,0.8-0.2,1.1-0.2v2.6
			c-0.5,0.2-0.8,0.3-1.2,0.3c-3.9,0-6.2-3.6-6.2-7.2c0-3.5,2.3-6.9,6-6.9c0.5,0,0.9,0.2,1.4,0.3V466.8z"/>
		<path fill="#231F20" d="M329.4,474.1h-4.1c0,0.8,0,2.1,0.9,2.1c0.6,0,0.8-0.5,0.8-1.1h2.3c-0.2,1.7-1.1,3-3,3
			c-2.6,0-3.6-2.3-3.6-4.7c0-2.3,0.8-5,3.5-5c1.7,0,3.3,1.5,3.2,4.5L329.4,474.1z M327.2,472.3c0-0.6-0.2-1.7-0.9-1.7
			c-0.8,0-0.9,1.1-0.9,1.7v0.3h2v-0.3H327.2z"/>
		<path fill="#231F20" d="M333.6,470.1L333.6,470.1c0.5-0.9,1.2-1.7,2.3-1.7c2,0,1.8,2.1,1.8,3.5v6H335v-5.1c0-0.5,0.2-1.8-0.6-1.8
			c-0.6,0-0.8,0.6-0.8,1.1v5.7h-2.6v-9.3h2.6V470.1z"/>
		<path fill="#231F20" d="M342.7,466.2v2.6h1.1v2.1h-1.1v7.1h-2.6v-7.1h-0.9v-2.1h0.9v-2.6H342.7z"/>
		<path fill="#231F20" d="M351.7,474.1h-4.1c0,0.8,0,2.1,0.9,2.1c0.6,0,0.8-0.5,0.8-1.1h2.3c-0.2,1.7-1.1,3-3,3
			c-2.6,0-3.6-2.3-3.6-4.7c0-2.3,0.8-5,3.5-5c1.7,0,3.3,1.5,3.2,4.5L351.7,474.1z M349.6,472.3c0-0.6-0.2-1.7-0.9-1.7
			c-0.8,0-0.9,1.1-0.9,1.7v0.3h2v-0.3H349.6z"/>
		<path fill="#231F20" d="M356,468.8v1.1l0,0c0.5-0.8,1.1-1.4,2.1-1.5v2.6c-0.2,0-0.3,0-0.5,0c-1.7,0-1.8,1.2-1.8,2.6v4.7h-2.6v-9.3
			L356,468.8L356,468.8z"/>
		<path fill="#231F20" d="M365,478v-13.9h2.7c1.1,0,2,0,2.9,0.8c0.9,0.8,1.4,2,1.4,3.2c0,1.2-0.5,2.1-1.5,2.9c1.2,0.6,1.7,2,1.7,3.2
			c0,2.7-2,3.9-4.5,3.9H365z M367.7,466.4v3.3c1.1,0,1.7-0.8,1.7-1.8C369.4,467.1,368.8,466.4,367.7,466.4z M367.7,472v3.8
			c1.1,0,1.8-0.8,1.8-2C369.5,472.7,368.8,472,367.7,472z"/>
		<path fill="#231F20" d="M378,476.9L378,476.9c-0.5,0.8-0.9,1.2-1.8,1.2c-2.1,0-2.6-3.3-2.6-4.8c0-1.7,0.3-4.8,2.4-4.8
			c0.9,0,1.5,0.6,1.8,1.4l0,0v-1.2h2.6v9.3h-2.6v-1.1H378z M378.1,473.3c0-0.5,0-2.4-0.9-2.4c-0.9,0-0.9,2-0.9,2.4
			c0,0.6,0,2.6,0.9,2.6C378.1,475.9,378.1,473.8,378.1,473.3z"/>
		<path fill="#231F20" d="M384.9,463.2V478h-2.6v-14.8H384.9z"/>
		<path fill="#231F20" d="M391.4,477.8c-0.5,0.2-0.9,0.3-1.5,0.3c-2.6,0-3.5-2.7-3.5-4.8c0-2.3,0.9-4.8,3.6-4.8
			c0.5,0,0.9,0.2,1.4,0.3v2.3c-0.3-0.2-0.5-0.3-0.8-0.3c-1.2,0-1.5,1.5-1.5,2.4c0,1.1,0.2,2.4,1.5,2.4c0.3,0,0.6-0.2,0.8-0.3V477.8z
			"/>
		<path fill="#231F20" d="M399.8,473.3c0,2.4-0.8,4.8-3.5,4.8s-3.5-2.4-3.5-4.8c0-2.4,0.8-4.8,3.5-4.8S399.8,471,399.8,473.3z
			 M395.3,473.3c0,0.6,0,2.6,0.9,2.6s0.9-2,0.9-2.6c0-0.6,0-2.6-0.9-2.6C395.3,470.9,395.3,472.9,395.3,473.3z"/>
		<path fill="#231F20" d="M403.9,470.1L403.9,470.1c0.5-0.9,1.2-1.7,2.3-1.7c2,0,1.8,2.1,1.8,3.5v6h-2.6v-5.1c0-0.5,0.2-1.8-0.6-1.8
			c-0.6,0-0.8,0.6-0.8,1.1v5.7h-2.7v-9.3h2.6V470.1z"/>
		<path fill="#231F20" d="M411.9,468.8l0.9,3.8l0.3,1.5l0,0l1.2-5.3h2.6l-3.9,13.9h-2.6l1.5-4.8l-2.7-9H411.9z"/>
	</g>
</g>
<g>
	<path d="M27.4,446.2v2.6h-2.7v3h2.4v2.6h-2.4v3.2h2.9v2.6H22v-13.9L27.4,446.2L27.4,446.2z"/>
	<path d="M31.8,452.2L31.8,452.2c0.5-0.9,1.2-1.7,2.3-1.7c2,0,1.8,2.1,1.8,3.5v6h-2.6v-5.1c0-0.5,0.2-1.8-0.6-1.8
		c-0.6,0-0.8,0.6-0.8,1.1v5.7h-2.6v-9.3h2.6v1.7H31.8z"/>
	<path d="M40.8,448.1v2.6h1.1v2.1h-1.1v7.1h-2.6v-7.1h-0.9v-2.1h0.9v-2.6H40.8z"/>
	<path d="M46.1,450.7v1.1l0,0c0.5-0.8,1.1-1.4,2.1-1.5v2.6c-0.2,0-0.3,0-0.5,0c-1.7,0-1.8,1.2-1.8,2.6v4.7h-2.6v-9.3L46.1,450.7
		L46.1,450.7z"/>
	<path d="M53.9,459L53.9,459c-0.5,0.8-0.9,1.2-1.8,1.2c-2.1,0-2.6-3.3-2.6-4.8c0-1.7,0.3-4.8,2.4-4.8c0.9,0,1.5,0.6,1.8,1.4l0,0
		v-1.2h2.6v9.3h-2.6V459H53.9z M54.1,455.4c0-0.5,0-2.4-0.9-2.4s-0.9,2-0.9,2.4c0,0.6,0,2.6,0.9,2.6
		C53.9,457.8,54.1,455.8,54.1,455.4z"/>
	<path d="M60.7,452.2L60.7,452.2c0.5-0.9,1.2-1.7,2.3-1.7c2,0,1.8,2.1,1.8,3.5v6h-2.7v-5.1c0-0.5,0.2-1.8-0.6-1.8
		c-0.6,0-0.8,0.6-0.8,1.1v5.7h-2.6v-9.3h2.6V452.2z"/>
	<path d="M71.1,459.9c-0.5,0.2-0.9,0.3-1.5,0.3c-2.6,0-3.5-2.7-3.5-4.8c0-2.3,0.9-4.8,3.6-4.8c0.5,0,0.9,0.2,1.4,0.3v2.3
		c-0.3-0.2-0.5-0.3-0.8-0.3c-1.2,0-1.5,1.5-1.5,2.4c0,1.1,0.2,2.4,1.5,2.4c0.3,0,0.6-0.2,0.8-0.3V459.9z"/>
	<path d="M79.1,456H75c0,0.8,0,2.1,0.9,2.1c0.6,0,0.8-0.5,0.8-1.1H79c-0.2,1.7-1.1,3-3,3c-2.6,0-3.6-2.3-3.6-4.7c0-2.3,0.8-5,3.5-5
		c1.7,0,3.3,1.5,3.2,4.5L79.1,456z M77,454.2c0-0.6-0.2-1.7-0.9-1.7s-0.9,1.1-0.9,1.7v0.3h2v-0.3H77z"/>
</g>
<g>
	<path d="M21.8,620.2v-13.9h2.7c1.8,0,4.8,0.2,4.8,3.9c0,1.5-0.6,2.9-2,3.6l2.4,6.3h-2.9l-2.4-6.3l0,0v6.3H21.8z M24.5,612.2H25
		c1.2,0,1.8-0.9,1.8-2s-0.5-1.8-1.8-1.7h-0.3v3.6H24.5z"/>
	<path d="M40.4,612.8v2.4h-4.5v-2.4H40.4z"/>
	<path d="M46.4,620.2v-13.9h2.7c1.8,0,4.8,0.2,4.8,3.9c0,1.5-0.6,2.9-2,3.6l2.4,6.3h-2.9l-2.4-6.3l0,0v6.3H46.4z M49.1,612.2h0.5
		c1.2,0,1.8-0.9,1.8-2s-0.5-1.8-1.8-1.7h-0.3v3.6H49.1z"/>
	<path d="M62.2,616.1h-4.1c0,0.8,0,2.1,0.9,2.1c0.6,0,0.8-0.5,0.8-1.1h2.3c-0.2,1.7-1.1,3-3,3c-2.6,0-3.6-2.3-3.6-4.7
		c0-2.3,0.8-5,3.5-5c1.7,0,3.3,1.5,3.2,4.5L62.2,616.1z M60.1,614.3c0-0.6-0.2-1.7-0.9-1.7c-0.8,0-0.9,1.1-0.9,1.7v0.3h2v-0.3H60.1z
		"/>
	<path d="M68.1,613.4c-0.3-0.3-0.8-0.6-1.2-0.6c-0.5,0-0.8,0.3-0.8,0.8c0,1.1,3,0.9,3,3.6c0,1.8-1.1,3.3-3,3.3c-1.1,0-2-0.5-2.9-1.1
		l1.2-1.8c0.5,0.3,0.8,0.6,1.4,0.6c0.5,0,0.8-0.3,0.8-0.8c0-1.2-3-0.9-3-3.9c0-1.8,1.5-2.7,3.2-2.7c0.9,0,1.7,0.3,2.4,0.8
		L68.1,613.4z"/>
	<path d="M76.7,616.1h-4.1c0,0.8,0,2.1,0.9,2.1c0.6,0,0.8-0.5,0.8-1.1h2.3c-0.2,1.7-1.1,3-3,3c-2.6,0-3.6-2.3-3.6-4.7
		c0-2.3,0.8-5,3.5-5c1.7,0,3.3,1.5,3.2,4.5L76.7,616.1z M74.6,614.3c0-0.6-0.2-1.7-0.9-1.7s-0.9,1.1-0.9,1.7v0.3h2v-0.3H74.6z"/>
	<path d="M80.5,610.8v1.1l0,0c0.5-0.8,1.1-1.4,2.1-1.5v2.6c-0.2,0-0.3,0-0.5,0c-1.7,0-1.8,1.2-1.8,2.6v4.7h-2.6v-9.3L80.5,610.8
		L80.5,610.8z"/>
	<path d="M86.2,610.8l1.2,5.1v0.2l0,0l0.2-0.9l1.1-4.2h2.7l-2.7,9.3h-2.4l-2.7-9.3h2.7V610.8z"/>
	<path d="M98.9,616.1h-4.1c0,0.8,0,2.1,0.9,2.1c0.6,0,0.8-0.5,0.8-1.1h2.3c-0.2,1.7-1.1,3-3,3c-2.6,0-3.6-2.3-3.6-4.7
		c0-2.3,0.8-5,3.5-5c1.7,0,3.3,1.5,3.2,4.5L98.9,616.1z M96.6,614.3c0-0.6-0.2-1.7-0.9-1.7s-0.9,1.1-0.9,1.7v0.3h2v-0.3H96.6z"/>
	<path d="M104.1,619.1L104.1,619.1c-0.5,0.8-0.9,1.2-1.8,1.2c-2.1,0-2.6-3.3-2.6-4.8c0-1.7,0.3-4.8,2.4-4.8c0.9,0,1.5,0.6,1.8,1.4
		l0,0v-6.8h2.6V620H104v-0.9H104.1z M104.3,615.5c0-0.5,0-2.4-0.9-2.4c-0.9,0-0.9,2-0.9,2.4c0,0.6,0,2.6,0.9,2.6
		C104.1,617.9,104.3,616,104.3,615.5z"/>
	<path d="M118.5,609.3c-0.6-0.5-1.2-0.9-2-0.9c-0.9,0-1.4,0.5-1.4,1.4c0,2.3,4.2,2.4,4.2,6.2c0,2.4-1.4,4.4-3.9,4.4
		c-0.8,0-1.7-0.3-2.4-0.8V617c0.6,0.5,1.2,0.8,2.1,0.8c0.9,0,1.5-0.6,1.5-1.5c0-1.1-0.9-1.5-1.7-2c-1.5-1.1-2.6-2.1-2.6-4.1
		c0-2.3,1.2-4.1,3.6-4.1c0.9,0,1.7,0.3,2.4,0.8L118.5,609.3L118.5,609.3z"/>
	<path d="M126.9,616.1h-4.1c0,0.8,0,2.1,0.9,2.1c0.6,0,0.8-0.5,0.8-1.1h2.3c-0.2,1.7-1.1,3-3,3c-2.6,0-3.6-2.3-3.6-4.7
		c0-2.3,0.8-5,3.5-5c1.7,0,3.3,1.5,3.2,4.5L126.9,616.1z M124.8,614.3c0-0.6-0.2-1.7-0.9-1.7c-0.8,0-0.9,1.1-0.9,1.7v0.3h2v-0.3
		H124.8z"/>
	<path d="M132.2,619.1L132.2,619.1c-0.5,0.8-0.9,1.2-1.8,1.2c-2.1,0-2.6-3.3-2.6-4.8c0-1.7,0.3-4.8,2.4-4.8c0.9,0,1.5,0.6,1.8,1.4
		l0,0v-1.2h2.6v9.3H132v-1.1H132.2z M132.3,615.5c0-0.5,0-2.4-0.9-2.4c-0.9,0-0.9,2-0.9,2.4c0,0.6,0,2.6,0.9,2.6
		C132.3,617.9,132.3,616,132.3,615.5z"/>
	<path d="M139.4,608.3v2.6h1.1v2.1h-1.1v7.1h-2.6v-7.1H136v-2.1h0.9v-2.6H139.4z"/>
	<path d="M141.4,608.1c0-0.9,0.8-1.7,1.7-1.7c0.9,0,1.7,0.8,1.7,1.7c0,0.9-0.8,1.7-1.7,1.7C142.1,609.8,141.4,609,141.4,608.1z
		 M144.3,610.8v9.3h-2.6v-9.3H144.3z"/>
	<path d="M148.2,612.3L148.2,612.3c0.5-0.9,1.2-1.7,2.3-1.7c2,0,1.8,2.1,1.8,3.5v6h-2.7V615c0-0.5,0.2-1.8-0.6-1.8
		c-0.6,0-0.8,0.6-0.8,1.1v5.7h-2.6v-9.3h2.6V612.3z"/>
	<path d="M155.6,621.4c0,0.6,0.2,1.4,0.9,1.4c1.2,0,1.1-1.8,1.1-2.6V619l0,0c-0.3,0.8-0.8,1.4-1.7,1.4s-1.7-0.8-2-1.5
		c-0.5-0.9-0.6-2.1-0.6-3.2c0-1.7,0.3-5,2.6-5c0.9,0,1.5,0.6,1.8,1.4l0,0V611h2.6v10.1c0,2.7-1.2,3.8-3.5,3.8
		c-2.3,0-3.2-1.2-3.3-3.3h2.1V621.4z M157.7,615.5c0-0.5,0-2.4-0.9-2.4s-0.9,2-0.9,2.4c0,0.6,0,2.6,0.9,2.6
		C157.7,617.9,157.7,616,157.7,615.5z"/>
	<path d="M170.6,613.4c-0.3-0.3-0.8-0.6-1.2-0.6s-0.8,0.3-0.8,0.8c0,1.1,3,0.9,3,3.6c0,1.8-1.1,3.3-3,3.3c-1.1,0-2-0.5-2.9-1.1
		l1.2-1.8c0.5,0.3,0.8,0.6,1.4,0.6c0.5,0,0.8-0.3,0.8-0.8c0-1.2-3-0.9-3-3.9c0-1.8,1.5-2.7,3.2-2.7c0.9,0,1.7,0.3,2.4,0.8
		L170.6,613.4z"/>
	<path d="M179.2,616.1h-4.1c0,0.8,0,2.1,0.9,2.1c0.6,0,0.8-0.5,0.8-1.1h2.3c-0.2,1.7-1.1,3-3,3c-2.6,0-3.6-2.3-3.6-4.7
		c0-2.3,0.8-5,3.5-5c1.7,0,3.3,1.5,3.2,4.5L179.2,616.1z M177.1,614.3c0-0.6-0.2-1.7-0.9-1.7s-0.9,1.1-0.9,1.7v0.3h2v-0.3H177.1z"/>
	<path d="M185.1,620c-0.5,0.2-0.9,0.3-1.5,0.3c-2.6,0-3.5-2.7-3.5-4.8c0-2.3,0.9-4.8,3.6-4.8c0.5,0,0.9,0.2,1.4,0.3v2.3
		c-0.3-0.2-0.5-0.3-0.8-0.3c-1.2,0-1.5,1.5-1.5,2.4c0,1.1,0.2,2.4,1.5,2.4c0.3,0,0.6-0.2,0.8-0.3V620z"/>
	<path d="M189.6,608.3v2.6h1.1v2.1h-1.1v7.1h-2.6v-7.1h-0.9v-2.1h0.9v-2.6H189.6z"/>
	<path d="M191.5,608.1c0-0.9,0.8-1.7,1.7-1.7s1.7,0.8,1.7,1.7c0,0.9-0.8,1.7-1.7,1.7S191.5,609,191.5,608.1z M194.5,610.8v9.3h-2.6
		v-9.3H194.5z"/>
	<path d="M202.6,615.5c0,2.4-0.8,4.8-3.5,4.8s-3.5-2.4-3.5-4.8c0-2.4,0.8-4.8,3.5-4.8S202.6,613.1,202.6,615.5z M198.1,615.5
		c0,0.6,0,2.6,0.9,2.6s0.9-2,0.9-2.6c0-0.6,0-2.6-0.9-2.6C198.2,612.9,198.1,614.9,198.1,615.5z"/>
	<path d="M206.4,612.3L206.4,612.3c0.5-0.9,1.2-1.7,2.3-1.7c2,0,1.8,2.1,1.8,3.5v6h-2.6V615c0-0.5,0.2-1.8-0.6-1.8
		c-0.6,0-0.8,0.6-0.8,1.1v5.7H204v-9.3h2.6v1.7H206.4z"/>
	<path d="M216.2,613.4c-0.3-0.3-0.8-0.6-1.2-0.6s-0.8,0.3-0.8,0.8c0,1.1,3,0.9,3,3.6c0,1.8-1.1,3.3-3,3.3c-1.1,0-2-0.5-2.9-1.1
		l1.2-1.8c0.5,0.3,0.8,0.6,1.4,0.6c0.5,0,0.8-0.3,0.8-0.8c0-1.2-3-0.9-3-3.9c0-1.8,1.5-2.7,3.2-2.7c0.9,0,1.7,0.3,2.4,0.8
		L216.2,613.4z"/>
	<path d="M227.5,606.6c-1.2,2.4-1.8,5.1-1.8,7.8c0,2.7,0.8,5.3,1.8,7.7l-2.4,0.6c-1.4-2.6-2.1-5.3-2.1-8.3c0-2.9,0.8-5.9,2.1-8.3
		L227.5,606.6z"/>
	<path d="M231.6,606.3v11.3h2.9v2.6h-5.6v-13.9H231.6z"/>
	<path d="M234.9,608.1c0-0.9,0.8-1.7,1.7-1.7c0.9,0,1.7,0.8,1.7,1.7c0,0.9-0.8,1.7-1.7,1.7C235.6,609.8,234.9,609,234.9,608.1z
		 M237.9,610.8v9.3h-2.6v-9.3H237.9z"/>
	<path d="M241.8,612.3L241.8,612.3c0.5-0.9,1.2-1.7,2.3-1.7c0.9,0,1.5,0.8,1.7,1.5l0,0c0.5-0.8,1.2-1.5,2.3-1.5c1.7,0,1.7,1.8,1.7,3
		v6.5h-2.6v-5c0-0.5,0.2-1.8-0.6-1.8c-0.6,0-0.8,0.6-0.8,1.1v5.9H243V615c0-0.5,0.2-1.7-0.6-1.7c-0.6,0-0.8,0.6-0.8,1.1v5.7h-2.6
		v-9.3h2.6L241.8,612.3z"/>
	<path d="M250.6,608.1c0-0.9,0.8-1.7,1.7-1.7s1.7,0.8,1.7,1.7c0,0.9-0.8,1.7-1.7,1.7S250.6,609,250.6,608.1z M253.4,610.8v9.3h-2.6
		v-9.3H253.4z"/>
	<path d="M258.1,608.3v2.6h1.1v2.1h-1.1v7.1h-2.6v-7.1h-0.9v-2.1h0.9v-2.6H258.1z"/>
	<path d="M266.8,616.1h-4.1c0,0.8,0,2.1,0.9,2.1c0.6,0,0.8-0.5,0.8-1.1h2.3c-0.2,1.7-1.1,3-3,3c-2.6,0-3.6-2.3-3.6-4.7
		c0-2.3,0.8-5,3.5-5c1.7,0,3.3,1.5,3.2,4.5L266.8,616.1z M264.6,614.3c0-0.6-0.2-1.7-0.9-1.7s-0.9,1.1-0.9,1.7v0.3h2v-0.3H264.6z"/>
	<path d="M272.1,619.1L272.1,619.1c-0.5,0.8-0.9,1.2-1.8,1.2c-2.1,0-2.6-3.3-2.6-4.8c0-1.7,0.3-4.8,2.4-4.8c0.9,0,1.5,0.6,1.8,1.4
		l0,0v-6.8h2.6V620H272v-0.9H272.1z M272.3,615.5c0-0.5,0-2.4-0.9-2.4c-0.9,0-0.9,2-0.9,2.4c0,0.6,0,2.6,0.9,2.6
		C272.3,617.9,272.3,616,272.3,615.5z"/>
	<path d="M286.1,606.3l3.3,13.9h-2.9l-0.5-2.3h-2.7l-0.5,2.3h-2.7l3.2-13.9H286.1z M284.9,611.9l-0.3-2.1l0,0l-0.3,2.1l-0.6,3.8h2
		L284.9,611.9z"/>
	<path d="M291.7,610.8l1.2,5.1v0.2l0,0l0.2-0.9l1.1-4.2h2.7l-2.7,9.3h-2.4L289,611h2.7V610.8z"/>
	<path d="M302,619.1L302,619.1c-0.5,0.8-0.9,1.2-1.8,1.2c-2.1,0-2.6-3.3-2.6-4.8c0-1.7,0.3-4.8,2.4-4.8c0.9,0,1.5,0.6,1.8,1.4l0,0
		v-1.2h2.6v9.3h-2.6v-1.1H302z M302.1,615.5c0-0.5,0-2.4-0.9-2.4s-0.9,2-0.9,2.4c0,0.6,0,2.6,0.9,2.6
		C302,617.9,302.1,616,302.1,615.5z"/>
	<path d="M305.4,608.1c0-0.9,0.8-1.7,1.7-1.7c0.9,0,1.7,0.8,1.7,1.7c0,0.9-0.8,1.7-1.7,1.7C306.2,609.8,305.4,609,305.4,608.1z
		 M308.3,610.8v9.3h-2.6v-9.3H308.3z"/>
	<path d="M312.2,605.2V620h-2.6v-14.8H312.2z"/>
	<path d="M317.5,619.1L317.5,619.1c-0.5,0.8-0.9,1.2-1.8,1.2c-2.1,0-2.6-3.3-2.6-4.8c0-1.7,0.3-4.8,2.4-4.8c0.9,0,1.5,0.6,1.8,1.4
		l0,0v-1.2h2.6v9.3h-2.6v-1.1H317.5z M317.8,615.5c0-0.5,0-2.4-0.9-2.4c-0.9,0-0.9,2-0.9,2.4c0,0.6,0,2.6,0.9,2.6
		C317.7,617.9,317.8,616,317.8,615.5z"/>
	<path d="M321.4,605.2h2.6v6.6l0,0c0.3-0.8,0.9-1.4,1.7-1.4c2.3,0,2.4,3.2,2.4,4.8c0,1.5-0.5,4.8-2.6,4.8c-0.9,0-1.4-0.6-1.7-1.2
		l0,0v1.1h-2.4V605.2z M325.6,615.5c0-0.6,0-2.4-0.9-2.4c-0.9,0-0.9,2-0.9,2.4c0,0.5,0,2.6,0.9,2.6
		C325.6,617.9,325.6,616,325.6,615.5z"/>
	<path d="M329,608.1c0-0.9,0.8-1.7,1.7-1.7c0.9,0,1.7,0.8,1.7,1.7c0,0.9-0.8,1.7-1.7,1.7C329.7,609.8,329,609,329,608.1z M332,610.8
		v9.3h-2.6v-9.3H332z"/>
	<path d="M335.8,605.2V620h-2.6v-14.8H335.8z"/>
	<path d="M336.7,608.1c0-0.9,0.8-1.7,1.7-1.7c0.9,0,1.7,0.8,1.7,1.7c0,0.9-0.8,1.7-1.7,1.7C337.4,609.8,336.7,609,336.7,608.1z
		 M339.7,610.8v9.3h-2.6v-9.3H339.7z"/>
	<path d="M344.3,608.3v2.6h1.1v2.1h-1.1v7.1h-2.6v-7.1h-0.9v-2.1h0.9v-2.6H344.3z"/>
	<path d="M348.9,610.8l0.9,3.8l0.3,1.5l0,0l1.2-5.3h2.6l-3.9,13.9h-2.6l1.5-4.8l-2.7-9H348.9z"/>
	<path d="M354.6,622.1c1.2-2.4,1.8-5.1,1.8-7.8s-0.8-5.3-1.8-7.7l2.4-0.6c1.4,2.6,2.1,5.3,2.1,8.1c0,2.9-0.8,5.9-2.1,8.3
		L354.6,622.1z"/>
</g>
<g>
	<g>
		<path d="M92.5,385.9V372h2.7c1.1,0,2,0,2.9,0.8c0.9,0.8,1.4,2,1.4,3.2c0,1.2-0.5,2.1-1.5,2.9c1.2,0.6,1.7,2,1.7,3.2
			c0,2.7-2,3.9-4.5,3.9H92.5z M95.3,374.2v3.3c1.1,0,1.7-0.8,1.7-1.8C96.9,374.8,96.3,374.2,95.3,374.2z M95.3,379.7v3.8
			c1.1,0,1.8-0.8,1.8-2C96.9,380.4,96.3,379.7,95.3,379.7z"/>
		<path d="M105.5,384.8L105.5,384.8c-0.5,0.8-0.9,1.2-1.8,1.2c-2.1,0-2.6-3.3-2.6-4.8c0-1.7,0.3-4.8,2.4-4.8c0.9,0,1.5,0.6,1.8,1.4
			l0,0v-1.2h2.6v9.3h-2.6v-1.1H105.5z M105.7,381c0-0.5,0-2.4-0.9-2.4c-0.9,0-0.9,2-0.9,2.4c0,0.6,0,2.6,0.9,2.6
			C105.7,383.6,105.7,381.6,105.7,381z"/>
		<path d="M112.4,376.5v1.1l0,0c0.5-0.8,1.1-1.4,2.1-1.5v2.6c-0.2,0-0.3,0-0.5,0c-1.7,0-1.8,1.2-1.8,2.6v4.7h-2.6v-9.3L112.4,376.5
			L112.4,376.5z"/>
	</g>
</g>
<g>
	<path d="M316.5,334.9c-0.6-0.5-1.2-0.9-2-0.9c-0.9,0-1.4,0.5-1.4,1.4c0,2.3,4.2,2.4,4.2,6.2c0,2.4-1.4,4.4-3.9,4.4
		c-0.8,0-1.7-0.3-2.4-0.8v-2.6c0.6,0.5,1.2,0.8,2.1,0.8s1.5-0.6,1.5-1.5c0-1.1-0.9-1.5-1.7-2c-1.5-1.1-2.6-2.1-2.6-4.1
		c0-2.3,1.2-4.1,3.6-4.1c0.9,0,1.7,0.3,2.4,0.8L316.5,334.9L316.5,334.9z"/>
	<path d="M322.3,333.7v2.6h1.1v2.1h-1.1v7.1h-2.6v-7.1h-0.9v-2.1h0.9v-2.6H322.3z"/>
	<path d="M329.1,344.5L329.1,344.5c-0.5,0.8-0.9,1.2-1.8,1.2c-2.1,0-2.6-3.3-2.6-4.8c0-1.7,0.3-4.8,2.4-4.8c0.9,0,1.5,0.6,1.8,1.4
		l0,0v-1.2h2.6v9.3H329v-1.1H329.1z M329.4,340.9c0-0.5,0-2.4-0.9-2.4s-0.9,2-0.9,2.4c0,0.6,0,2.6,0.9,2.6
		C329.3,343.3,329.4,341.4,329.4,340.9z"/>
	<path d="M335.8,346.8c0,0.6,0.2,1.4,0.9,1.4c1.2,0,1.1-1.8,1.1-2.6v-1.2l0,0c-0.3,0.8-0.8,1.4-1.7,1.4s-1.7-0.8-2-1.5
		c-0.5-0.9-0.6-2.1-0.6-3.2c0-1.7,0.3-5,2.6-5c0.9,0,1.5,0.6,1.8,1.4l0,0v-1.1h2.6v10.1c0,2.7-1.2,3.8-3.5,3.8
		c-2.3,0-3.2-1.2-3.3-3.3h2.1V346.8z M337.7,340.9c0-0.5,0-2.4-0.9-2.4s-0.9,2-0.9,2.4c0,0.6,0,2.6,0.9,2.6
		C337.7,343.3,337.7,341.4,337.7,340.9z"/>
	<path d="M348.4,341.7h-4.1c0,0.8,0,2.1,0.9,2.1c0.6,0,0.8-0.5,0.8-1.1h2.3c-0.2,1.7-1.1,3-3,3c-2.6,0-3.6-2.3-3.6-4.7
		c0-2.3,0.8-5,3.5-5c1.7,0,3.3,1.5,3.2,4.5L348.4,341.7z M346.2,339.9c0-0.6-0.2-1.7-0.9-1.7s-0.9,1.1-0.9,1.7v0.3h2v-0.3H346.2z"/>
</g>
<g>
	<path d="M248.7,306.5v-13.9h2.7c1.1,0,2,0,2.9,0.8c0.9,0.8,1.4,2,1.4,3.2c0,1.2-0.5,2.1-1.5,2.9c1.2,0.6,1.7,2,1.7,3.2
		c0,2.7-2,3.9-4.5,3.9H248.7z M251.5,294.9v3.3c1.1,0,1.7-0.8,1.7-1.8C253.1,295.5,252.5,294.9,251.5,294.9z M251.5,300.5v3.8
		c1.1,0,1.8-0.8,1.8-2C253.1,301.3,252.5,300.5,251.5,300.5z"/>
	<path d="M261.7,305.5L261.7,305.5c-0.5,0.8-0.9,1.2-1.8,1.2c-2.1,0-2.6-3.3-2.6-4.8c0-1.7,0.3-4.8,2.4-4.8c0.9,0,1.5,0.6,1.8,1.4
		l0,0v-1.2h2.6v9.3h-2.6v-1.1H261.7z M261.9,301.9c0-0.5,0-2.4-0.9-2.4c-0.9,0-0.9,2-0.9,2.4c0,0.6,0,2.6,0.9,2.6
		C261.9,304.3,261.9,302.3,261.9,301.9z"/>
	<path d="M268.7,298.7L268.7,298.7c0.5-0.9,1.2-1.7,2.3-1.7c2,0,1.8,2.1,1.8,3.5v6h-2.6v-5.1c0-0.5,0.2-1.8-0.6-1.8
		c-0.6,0-0.8,0.6-0.8,1.1v5.7h-2.6V297h2.6v1.7H268.7z"/>
	<path d="M278.5,305.5L278.5,305.5c-0.5,0.8-0.9,1.2-1.8,1.2c-2.1,0-2.6-3.3-2.6-4.8c0-1.7,0.3-4.8,2.4-4.8c0.9,0,1.5,0.6,1.8,1.4
		l0,0v-6.6h2.6v14.8h-2.6v-1.1H278.5z M278.6,301.9c0-0.5,0-2.4-0.9-2.4c-0.9,0-0.9,2-0.9,2.4c0,0.6,0,2.6,0.9,2.6
		C278.5,304.3,278.6,302.3,278.6,301.9z"/>
</g>
<g>
	<g>
		<path fill="#231F20" d="M484,420.2v2.6h-2.9v3h2.6v2.6h-2.6v5.7h-2.7v-13.9H484z"/>
		<path fill="#231F20" d="M488.3,424.8v1.1l0,0c0.5-0.8,1.1-1.4,2.1-1.5v2.6c-0.2,0-0.3,0-0.5,0c-1.7,0-1.8,1.2-1.8,2.6v4.7h-2.4
			v-9.3L488.3,424.8L488.3,424.8z"/>
		<path fill="#231F20" d="M498.9,429.4c0,2.4-0.8,4.8-3.5,4.8c-2.7,0-3.5-2.4-3.5-4.8c0-2.4,0.8-4.8,3.5-4.8
			C498.1,424.6,498.9,427,498.9,429.4z M494.5,429.4c0,0.6,0,2.6,0.9,2.6c0.9,0,0.9-2,0.9-2.6s0-2.6-0.9-2.6
			C494.5,426.9,494.5,428.8,494.5,429.4z"/>
		<path fill="#231F20" d="M503.1,426.1L503.1,426.1c0.5-0.9,1.2-1.7,2.3-1.7c2,0,1.8,2.1,1.8,3.5v6h-2.6v-5.1c0-0.5,0.2-1.8-0.6-1.8
			c-0.6,0-0.8,0.6-0.8,1.1v5.7h-2.6v-9.3h2.6v1.7H503.1z"/>
		<path fill="#231F20" d="M512.2,422.2v2.6h1.1v2.1h-1.1v7.1h-2.6v-7.1h-0.9v-2.1h0.9v-2.6H512.2z"/>
		<path fill="#231F20" d="M527.1,422.8c-0.3-0.2-0.8-0.2-1.1-0.2c-2.4,0-3.5,2.3-3.5,4.4c0,2.1,1.1,4.5,3.5,4.5
			c0.3,0,0.8-0.2,1.1-0.2v2.6c-0.5,0.2-0.8,0.3-1.2,0.3c-3.9,0-6.2-3.6-6.2-7.2c0-3.5,2.3-6.9,6-6.9c0.5,0,0.9,0.2,1.4,0.3
			L527.1,422.8L527.1,422.8z"/>
		<path fill="#231F20" d="M532.7,433.1L532.7,433.1c-0.5,0.8-0.9,1.2-1.8,1.2c-2.1,0-2.6-3.3-2.6-4.8c0-1.7,0.3-4.8,2.4-4.8
			c0.9,0,1.5,0.6,1.8,1.4l0,0v-1.2h2.6v9.3h-2.6v-1.1H532.7z M533,429.3c0-0.5,0-2.4-0.9-2.4s-0.9,2-0.9,2.4c0,0.6,0,2.6,0.9,2.6
			C532.8,431.8,533,429.9,533,429.3z"/>
		<path fill="#231F20" d="M537,419.2h2.6v6.6l0,0c0.3-0.8,0.9-1.4,1.7-1.4c2.3,0,2.4,3.2,2.4,4.8c0,1.5-0.5,4.8-2.6,4.8
			c-0.9,0-1.4-0.6-1.7-1.2l0,0v1.1H537V419.2z M541.3,429.3c0-0.6,0-2.4-0.9-2.4s-0.9,2-0.9,2.4c0,0.5,0,2.6,0.9,2.6
			S541.3,429.9,541.3,429.3z"/>
		<path fill="#231F20" d="M549.6,433.1L549.6,433.1c-0.5,0.8-0.9,1.2-1.8,1.2c-2.1,0-2.6-3.3-2.6-4.8c0-1.7,0.3-4.8,2.4-4.8
			c0.9,0,1.5,0.6,1.8,1.4l0,0v-1.2h2.6v9.3h-2.6v-1.1H549.6z M549.7,429.3c0-0.5,0-2.4-0.9-2.4c-0.9,0-0.9,2-0.9,2.4
			c0,0.6,0,2.6,0.9,2.6C549.7,431.8,549.7,429.9,549.7,429.3z"/>
		<path fill="#231F20" d="M556.5,424.8v1.1l0,0c0.5-0.8,1.1-1.4,2.1-1.5v2.6c-0.2,0-0.3,0-0.5,0c-1.7,0-1.8,1.2-1.8,2.6v4.7h-2.6
			v-9.3L556.5,424.8L556.5,424.8z"/>
		<path fill="#231F20" d="M566.6,430h-4.1c0,0.8,0,2.1,0.9,2.1c0.6,0,0.8-0.5,0.8-1.1h2.3c-0.2,1.7-1.1,3-3,3
			c-2.6,0-3.6-2.3-3.6-4.7c0-2.3,0.8-5,3.5-5c1.7,0,3.3,1.5,3.2,4.5L566.6,430z M564.3,428.2c0-0.6-0.2-1.7-0.9-1.7
			c-0.8,0-0.9,1.1-0.9,1.7v0.3h2v-0.3H564.3z"/>
		<path fill="#231F20" d="M571.6,422.2v2.6h1.1v2.1h-1.1v7.1H569v-7.1h-0.9v-2.1h0.9v-2.6H571.6z"/>
	</g>
</g>
<g>
	<g>
		<path fill="#231F20" d="M352,530.5v-13.9h2.7c1.8,0,4.8,0.2,4.8,3.9c0,1.5-0.6,2.9-2,3.6l2.4,6.3h-2.9l-2.4-6.3l0,0v6.3H352z
			 M354.9,522.6h0.5c1.2,0,1.8-0.9,1.8-2s-0.5-1.8-1.8-1.7h-0.3v3.6H354.9z"/>
		<path fill="#231F20" d="M368.3,526.5h-4.1c0,0.8,0,2.1,0.9,2.1c0.6,0,0.8-0.5,0.8-1.1h2.3c-0.2,1.7-1.1,3-3,3
			c-2.6,0-3.6-2.3-3.6-4.7c0-2.3,0.8-5,3.5-5c1.7,0,3.3,1.5,3.2,4.5L368.3,526.5z M366.2,524.7c0-0.6-0.2-1.7-0.9-1.7
			c-0.8,0-0.9,1.1-0.9,1.7v0.3h2v-0.3H366.2z"/>
		<path fill="#231F20" d="M374.1,529.4L374.1,529.4c-0.5,0.8-0.9,1.2-1.8,1.2c-2.1,0-2.6-3.3-2.6-4.8c0-1.7,0.3-4.8,2.4-4.8
			c0.9,0,1.5,0.6,1.8,1.4l0,0v-1.2h2.6v9.3h-2.6v-1.1H374.1z M374.4,525.8c0-0.5,0-2.4-0.9-2.4s-0.9,2-0.9,2.4c0,0.6,0,2.6,0.9,2.6
			C374.2,528.3,374.4,526.4,374.4,525.8z"/>
		<path fill="#231F20" d="M381,521.3v1.1l0,0c0.5-0.8,1.1-1.4,2.1-1.5v2.6c-0.2,0-0.3,0-0.5,0c-1.7,0-1.8,1.2-1.8,2.6v4.7h-2.6v-9.3
			L381,521.3L381,521.3z"/>
		<path fill="#231F20" d="M397,519.3c-0.3-0.2-0.8-0.2-1.1-0.2c-2.4,0-3.5,2.3-3.5,4.4s1.1,4.5,3.5,4.5c0.3,0,0.8-0.2,1.1-0.2v2.6
			c-0.5,0.2-0.8,0.3-1.2,0.3c-3.9,0-6.2-3.6-6.2-7.2c0-3.5,2.3-6.9,6-6.9c0.5,0,0.9,0.2,1.4,0.3V519.3z"/>
		<path fill="#231F20" d="M402.5,529.4L402.5,529.4c-0.5,0.8-0.9,1.2-1.8,1.2c-2.1,0-2.6-3.3-2.6-4.8c0-1.7,0.3-4.8,2.4-4.8
			c0.9,0,1.5,0.6,1.8,1.4l0,0v-1.2h2.6v9.3h-2.6v-1.1H402.5z M402.7,525.8c0-0.5,0-2.4-0.9-2.4s-0.9,2-0.9,2.4c0,0.6,0,2.6,0.9,2.6
			S402.7,526.4,402.7,525.8z"/>
		<path fill="#231F20" d="M406.8,515.7h2.6v6.6l0,0c0.3-0.8,0.9-1.4,1.7-1.4c2.3,0,2.4,3.2,2.4,4.8c0,1.5-0.5,4.8-2.6,4.8
			c-0.9,0-1.4-0.6-1.7-1.2l0,0v1.1h-2.6v-14.8H406.8z M411.1,525.8c0-0.6,0-2.4-0.9-2.4c-0.9,0-0.9,2-0.9,2.4s0,2.6,0.9,2.6
			C411,528.3,411.1,526.4,411.1,525.8z"/>
		<path fill="#231F20" d="M419.3,529.4L419.3,529.4c-0.5,0.8-0.9,1.2-1.8,1.2c-2.1,0-2.6-3.3-2.6-4.8c0-1.7,0.3-4.8,2.4-4.8
			c0.9,0,1.5,0.6,1.8,1.4l0,0v-1.2h2.6v9.3h-2.6v-1.1H419.3z M419.6,525.8c0-0.5,0-2.4-0.9-2.4s-0.9,2-0.9,2.4c0,0.6,0,2.6,0.9,2.6
			C419.4,528.3,419.6,526.4,419.6,525.8z"/>
		<path fill="#231F20" d="M426.2,521.3v1.1l0,0c0.5-0.8,1.1-1.4,2.1-1.5v2.6c-0.2,0-0.3,0-0.5,0c-1.7,0-1.8,1.2-1.8,2.6v4.7h-2.6
			v-9.3L426.2,521.3L426.2,521.3z"/>
		<path fill="#231F20" d="M436.3,526.5h-4.1c0,0.8,0,2.1,0.9,2.1c0.6,0,0.8-0.5,0.8-1.1h2.3c-0.2,1.7-1.1,3-3,3
			c-2.6,0-3.6-2.3-3.6-4.7c0-2.3,0.8-5,3.5-5c1.7,0,3.3,1.5,3.2,4.5L436.3,526.5z M434.2,524.7c0-0.6-0.2-1.7-0.9-1.7
			c-0.8,0-0.9,1.1-0.9,1.7v0.3h2v-0.3H434.2z"/>
		<path fill="#231F20" d="M441.5,518.7v2.6h1.1v2.1h-1.1v7.1h-2.6v-7.1H438v-2.1h0.9v-2.6H441.5z"/>
	</g>
</g>
<g>
	<g>
		<path fill="#231F20" d="M102.8,39.1c-0.3-0.2-0.8-0.2-1.1-0.2c-2.4,0-3.5,2.3-3.5,4.4s1.1,4.5,3.5,4.5c0.3,0,0.8-0.2,1.1-0.2v2.6
			c-0.5,0.2-0.8,0.3-1.2,0.3c-3.9,0-6.2-3.6-6.2-7.2c0-3.5,2.3-6.9,6-6.9c0.5,0,0.9,0.2,1.4,0.3V39.1z"/>
		<path fill="#231F20" d="M110.8,46.4h-4.1c0,0.8,0,2.1,0.9,2.1c0.6,0,0.8-0.5,0.8-1.1h2.3c-0.2,1.7-1.1,3-3,3
			c-2.6,0-3.6-2.3-3.6-4.7c0-2.3,0.8-5,3.5-5c1.7,0,3.3,1.5,3.2,4.5L110.8,46.4z M108.7,44.6c0-0.6-0.2-1.7-0.9-1.7
			s-0.9,1.1-0.9,1.7v0.3h2v-0.3H108.7z"/>
		<path fill="#231F20" d="M115,42.5L115,42.5c0.5-0.9,1.2-1.7,2.3-1.7c2,0,1.8,2.1,1.8,3.5v6h-2.7v-5.1c0-0.5,0.2-1.8-0.6-1.8
			c-0.6,0-0.8,0.6-0.8,1.1v5.7h-2.6v-9.3h2.6V42.5z"/>
		<path fill="#231F20" d="M124.1,38.4V41h1.1v2.1h-1.1v7.1h-2.6v-7.1h-0.9V41h0.9v-2.6H124.1z"/>
		<path fill="#231F20" d="M133.2,46.4h-4.1c0,0.8,0,2.1,0.9,2.1c0.6,0,0.8-0.5,0.8-1.1h2.3c-0.2,1.7-1.1,3-3,3
			c-2.6,0-3.6-2.3-3.6-4.7c0-2.3,0.8-5,3.5-5c1.7,0,3.3,1.5,3.2,4.5L133.2,46.4z M131,44.6c0-0.6-0.2-1.7-0.9-1.7s-0.9,1.1-0.9,1.7
			v0.3h2v-0.3H131z"/>
		<path fill="#231F20" d="M137.5,41.2v1.1l0,0c0.5-0.8,1.1-1.4,2.1-1.5v2.6c-0.2,0-0.3,0-0.5,0c-1.7,0-1.8,1.2-1.8,2.6v4.7h-2.6
			v-9.3C134.8,41.2,137.5,41.2,137.5,41.2z"/>
		<path fill="#231F20" d="M146.4,50.4V36.5h2.7c1.1,0,2,0,2.9,0.8s1.4,2,1.4,3.2c0,1.2-0.5,2.1-1.5,2.9c1.2,0.6,1.7,2,1.7,3.2
			c0,2.7-2,3.9-4.5,3.9H146.4z M149.2,38.8v3.3c1.1,0,1.7-0.8,1.7-1.8C150.7,39.5,150.1,38.8,149.2,38.8z M149.2,44.3v3.8
			c1.1,0,1.8-0.8,1.8-2C150.9,45.1,150.3,44.3,149.2,44.3z"/>
		<path fill="#231F20" d="M159.5,49.3L159.5,49.3c-0.5,0.8-0.9,1.2-1.8,1.2c-2.1,0-2.6-3.3-2.6-4.8c0-1.7,0.3-4.8,2.4-4.8
			c0.9,0,1.5,0.6,1.8,1.4l0,0V41h2.6v9.3h-2.6v-1.1H159.5z M159.6,45.7c0-0.5,0-2.4-0.9-2.4s-0.9,2-0.9,2.4c0,0.6,0,2.6,0.9,2.6
			S159.6,46.1,159.6,45.7z"/>
		<path fill="#231F20" d="M166.4,35.6v14.8h-2.6V35.6H166.4z"/>
		<path fill="#231F20" d="M172.8,50.2c-0.5,0.2-0.9,0.3-1.5,0.3c-2.6,0-3.5-2.7-3.5-4.8c0-2.3,0.9-4.8,3.6-4.8
			c0.5,0,0.9,0.2,1.4,0.3v2.3c-0.3-0.2-0.5-0.3-0.8-0.3c-1.2,0-1.5,1.5-1.5,2.4c0,1.1,0.2,2.4,1.5,2.4c0.3,0,0.6-0.2,0.8-0.3V50.2z"
			/>
		<path fill="#231F20" d="M181.2,45.7c0,2.4-0.8,4.8-3.5,4.8s-3.5-2.4-3.5-4.8c0-2.4,0.8-4.8,3.5-4.8S181.2,43.4,181.2,45.7z
			 M176.8,45.7c0,0.6,0,2.6,0.9,2.6s0.9-2,0.9-2.6s0-2.6-0.9-2.6C176.8,43.3,176.8,45.2,176.8,45.7z"/>
		<path fill="#231F20" d="M185.4,42.5L185.4,42.5c0.5-0.9,1.2-1.7,2.3-1.7c2,0,1.8,2.1,1.8,3.5v6h-2.6v-5.1c0-0.5,0.2-1.8-0.6-1.8
			c-0.6,0-0.8,0.6-0.8,1.1v5.7H183v-9.3h2.6v1.7H185.4z"/>
		<path fill="#231F20" d="M193.3,41.2l0.9,3.8l0.3,1.5l0,0l1.2-5.3h2.6L194.3,55h-2.6l1.5-4.8l-2.7-9
			C190.5,41.2,193.3,41.2,193.3,41.2z"/>
	</g>
</g>
<g>
	<g>
		<path d="M96,99.8V85.9h2.7c1.8,0,4.8,0.2,4.8,3.9c0,1.5-0.6,2.9-2,3.6l2.4,6.3h-2.9l-2.4-6.3l0,0v6.3H96z M98.7,91.8h0.5
			c1.2,0,1.8-0.9,1.8-2c0-1.1-0.5-1.8-1.8-1.7h-0.3v3.6H98.7z"/>
		<path d="M112.3,95.9h-4.1c0,0.8,0,2.1,0.9,2.1c0.6,0,0.8-0.5,0.8-1.1h2.3c-0.2,1.7-1.1,3-3,3c-2.6,0-3.6-2.3-3.6-4.7
			c0-2.3,0.8-5,3.5-5c1.7,0,3.3,1.5,3.2,4.5L112.3,95.9z M110,93.9c0-0.6-0.2-1.7-0.9-1.7s-0.9,1.1-0.9,1.7v0.3h2v-0.3H110z"/>
		<path d="M118,98.8L118,98.8c-0.5,0.8-0.9,1.2-1.8,1.2c-2.1,0-2.6-3.3-2.6-4.8c0-1.7,0.3-4.8,2.4-4.8c0.9,0,1.5,0.6,1.8,1.4l0,0
			v-1.2h2.6v9.3h-2.6v-1.1H118z M118.2,95.1c0-0.5,0-2.4-0.9-2.4c-0.9,0-0.9,2-0.9,2.4c0,0.6,0,2.6,0.9,2.6
			C118,97.6,118.2,95.6,118.2,95.1z"/>
		<path d="M125,90.5v1.1l0,0c0.5-0.8,1.1-1.4,2.1-1.5v2.6c-0.2,0-0.3,0-0.5,0c-1.7,0-1.8,1.2-1.8,2.6v4.7h-2.6v-9.3H125z"/>
		<path d="M133.9,99.8V85.9h2.7c1.1,0,2,0,2.9,0.8c0.9,0.8,1.4,2,1.4,3.2s-0.5,2.1-1.5,2.9c1.2,0.6,1.7,2,1.7,3.2
			c0,2.7-2,3.9-4.5,3.9L133.9,99.8L133.9,99.8z M136.6,88.2v3.3c1.1,0,1.7-0.8,1.7-1.8C138.2,88.8,137.6,88.2,136.6,88.2z
			 M136.6,93.8v3.8c1.1,0,1.8-0.8,1.8-2C138.4,94.5,137.6,93.6,136.6,93.8z"/>
		<path d="M146.8,98.8L146.8,98.8c-0.5,0.8-0.9,1.2-1.8,1.2c-2.1,0-2.6-3.3-2.6-4.8c0-1.7,0.3-4.8,2.4-4.8c0.9,0,1.5,0.6,1.8,1.4
			l0,0v-1.2h2.6v9.3h-2.6v-1.1H146.8z M147.1,95.1c0-0.5,0-2.4-0.9-2.4c-0.9,0-0.9,2-0.9,2.4c0,0.6,0,2.6,0.9,2.6
			C147,97.6,147.1,95.6,147.1,95.1z"/>
		<path d="M153.8,84.9v14.8h-2.6V84.9H153.8z"/>
		<path d="M160.2,99.7c-0.5,0.2-0.9,0.3-1.5,0.3c-2.6,0-3.5-2.7-3.5-4.8c0-2.3,0.9-4.8,3.6-4.8c0.5,0,0.9,0.2,1.4,0.3v2.3
			c-0.3-0.2-0.5-0.3-0.8-0.3c-1.2,0-1.5,1.5-1.5,2.4c0,1.1,0.2,2.4,1.5,2.4c0.3,0,0.6-0.2,0.8-0.3V99.7z"/>
		<path d="M168.7,95.1c0,2.4-0.8,4.8-3.5,4.8c-2.7,0-3.5-2.4-3.5-4.8c0-2.4,0.8-4.8,3.5-4.8C167.9,90.3,168.7,92.7,168.7,95.1z
			 M164.2,95.1c0,0.6,0,2.6,0.9,2.6s0.9-2,0.9-2.6s0-2.6-0.9-2.6S164.2,94.7,164.2,95.1z"/>
		<path d="M172.8,92L172.8,92c0.5-0.9,1.2-1.7,2.3-1.7c2,0,1.8,2.1,1.8,3.5v6h-2.6v-5.1c0-0.5,0.2-1.8-0.6-1.8
			c-0.6,0-0.8,0.6-0.8,1.1v5.7h-2.6v-9.3h2.6V92H172.8z"/>
		<path d="M180.7,90.5l0.9,3.8l0.3,1.5l0,0l1.2-5.3h2.6l-3.9,13.9h-2.6l1.5-4.8l-2.7-9H180.7z"/>
	</g>
</g>
<rect x="253.1" y="25.6" fill="#C37DB2" width="48.9" height="33.9"/>
<g>
	<path fill="#FFFFFF" d="M272.6,49.8V34.2h3.2c2,0,5.4,0.2,5.4,4.5c0,1.7-0.8,3.2-2.3,4.1l2.7,7.1h-3.3l-2.7-7.2l0,0v7.2h-3V49.8z
		 M275.6,40.9h0.6c1.4,0,2-0.9,2-2.3c0-1.1-0.6-2-2.1-2h-0.5V40.9z"/>
</g>
<g>
	<g>
		<path fill="#231F20" d="M317.8,39.7c-0.6-0.5-1.2-0.9-2-0.9c-0.9,0-1.4,0.5-1.4,1.4c0,2.3,4.2,2.4,4.2,6.2c0,2.4-1.4,4.4-3.9,4.4
			c-0.8,0-1.7-0.3-2.4-0.8v-2.6c0.6,0.5,1.2,0.8,2.1,0.8c0.9,0,1.5-0.6,1.5-1.5c0-1.1-0.9-1.5-1.7-2c-1.5-1.1-2.6-2.1-2.6-4.1
			c0-2.3,1.2-4.1,3.6-4.1c0.9,0,1.7,0.3,2.4,0.8L317.8,39.7L317.8,39.7z"/>
		<path fill="#231F20" d="M319.9,38.3c0-0.9,0.8-1.7,1.7-1.7c0.9,0,1.7,0.8,1.7,1.7c0,0.9-0.8,1.7-1.7,1.7
			C320.7,40,319.9,39.2,319.9,38.3z M322.8,41.2v9.3h-2.6v-9.3H322.8z"/>
		<path fill="#231F20" d="M328.7,49.3L328.7,49.3c-0.5,0.8-0.9,1.2-1.8,1.2c-2.1,0-2.6-3.3-2.6-4.8c0-1.7,0.3-4.8,2.4-4.8
			c0.9,0,1.5,0.6,1.8,1.4l0,0v-6.6h2.6v14.8h-2.6v-1.1H328.7z M328.8,45.7c0-0.5,0-2.4-0.9-2.4c-0.9,0-0.9,2-0.9,2.4
			c0,0.6,0,2.6,0.9,2.6C328.8,48.2,328.8,46.1,328.8,45.7z"/>
		<path fill="#231F20" d="M339.4,46.4h-4.1c0,0.8,0,2.1,0.9,2.1c0.6,0,0.8-0.5,0.8-1.1h2.3c-0.2,1.7-1.1,3-3,3
			c-2.6,0-3.6-2.3-3.6-4.7c0-2.3,0.8-5,3.5-5c1.7,0,3.3,1.5,3.2,4.5L339.4,46.4z M337.3,44.6c0-0.6-0.2-1.7-0.9-1.7
			c-0.8,0-0.9,1.1-0.9,1.7v0.3h2v-0.3H337.3z"/>
		<path fill="#231F20" d="M350.4,35.6l-7.2,17.9H341l7.2-17.9C348.3,35.6,350.4,35.6,350.4,35.6z"/>
		<path fill="#231F20" d="M358.8,39.1c-0.3-0.2-0.8-0.2-1.1-0.2c-2.4,0-3.5,2.3-3.5,4.4s1.1,4.5,3.5,4.5c0.3,0,0.8-0.2,1.1-0.2v2.6
			c-0.5,0.2-0.8,0.3-1.2,0.3c-3.9,0-6.2-3.6-6.2-7.2c0-3.5,2.3-6.9,6-6.9c0.5,0,0.9,0.2,1.4,0.3V39.1z"/>
		<path fill="#231F20" d="M366.8,46.4h-4.1c0,0.8,0,2.1,0.9,2.1c0.6,0,0.8-0.5,0.8-1.1h2.3c-0.2,1.7-1.1,3-3,3
			c-2.6,0-3.6-2.3-3.6-4.7c0-2.3,0.8-5,3.5-5c1.7,0,3.3,1.5,3.2,4.5L366.8,46.4z M364.6,44.6c0-0.6-0.2-1.7-0.9-1.7
			c-0.8,0-0.9,1.1-0.9,1.7v0.3h2v-0.3H364.6z"/>
		<path fill="#231F20" d="M371,42.5L371,42.5c0.5-0.9,1.2-1.7,2.3-1.7c2,0,1.8,2.1,1.8,3.5v6h-2.6v-5.1c0-0.5,0.2-1.8-0.6-1.8
			c-0.6,0-0.8,0.6-0.8,1.1v5.7h-2.6v-9.3h2.6v1.7H371z"/>
		<path fill="#231F20" d="M380.1,38.4V41h1.1v2.1h-1.1v7.1h-2.6v-7.1h-0.9V41h0.9v-2.6H380.1z"/>
		<path fill="#231F20" d="M389.3,46.4h-4.1c0,0.8,0,2.1,0.9,2.1c0.6,0,0.8-0.5,0.8-1.1h2.3c-0.2,1.7-1.1,3-3,3
			c-2.6,0-3.6-2.3-3.6-4.7c0-2.3,0.8-5,3.5-5c1.7,0,3.3,1.5,3.2,4.5L389.3,46.4z M387,44.6c0-0.6-0.2-1.7-0.9-1.7
			c-0.8,0-0.9,1.1-0.9,1.7v0.3h2v-0.3H387z"/>
		<path fill="#231F20" d="M393.5,41.2v1.1l0,0c0.5-0.8,1.1-1.4,2.1-1.5v2.6c-0.2,0-0.3,0-0.5,0c-1.7,0-1.8,1.2-1.8,2.6v4.7h-2.6
			v-9.3C390.8,41.2,393.5,41.2,393.5,41.2z"/>
	</g>
</g>
<g>
	<g>
		<path fill="#231F20" d="M375.9,113.4l1.4,8.1l0,0l1.1-8.1h3.6l1.5,13.9h-2.9l-0.6-10l0,0l-0.5,3.5l-1.2,6.6h-2.1l-1.4-6.6l-0.5-3
			v-0.3l0,0l-0.5,10h-3l1.2-13.9h3.8V113.4z"/>
		<path fill="#231F20" d="M389.1,126.2L389.1,126.2c-0.5,0.8-0.9,1.2-1.8,1.2c-2.1,0-2.6-3.3-2.6-4.8c0-1.7,0.3-4.8,2.4-4.8
			c0.9,0,1.5,0.6,1.8,1.4l0,0v-1.2h2.6v9.3H389v-1.1H389.1z M389.3,122.6c0-0.5,0-2.4-0.9-2.4s-0.9,2-0.9,2.4c0,0.6,0,2.6,0.9,2.6
			C389.3,125.1,389.3,123.2,389.3,122.6z"/>
		<path fill="#231F20" d="M395.6,128.6c0,0.6,0.2,1.4,0.9,1.4c1.2,0,1.1-1.8,1.1-2.6v-1.2l0,0c-0.3,0.8-0.8,1.4-1.7,1.4
			c-0.9,0-1.7-0.8-2-1.5c-0.5-0.9-0.6-2.1-0.6-3.2c0-1.7,0.3-5,2.6-5c0.9,0,1.5,0.6,1.8,1.4l0,0v-1.1h2.6v10.1
			c0,2.7-1.2,3.8-3.5,3.8s-3.2-1.2-3.3-3.3h2.1V128.6z M397.7,122.6c0-0.5,0-2.4-0.9-2.4c-0.9,0-0.9,2-0.9,2.4c0,0.6,0,2.6,0.9,2.6
			C397.7,125.1,397.7,123.2,397.7,122.6z"/>
		<path fill="#231F20" d="M404.5,119.4L404.5,119.4c0.5-0.9,1.2-1.7,2.3-1.7c2,0,1.8,2.1,1.8,3.5v6h-2.7v-5.1c0-0.5,0.2-1.8-0.6-1.8
			c-0.6,0-0.8,0.6-0.8,1.1v5.7h-2.6v-9.3h2.6V119.4z"/>
		<path fill="#231F20" d="M409.8,115.2c0-0.9,0.8-1.7,1.7-1.7s1.7,0.8,1.7,1.7c0,0.9-0.8,1.7-1.7,1.7
			C410.5,117,409.8,116.3,409.8,115.2z M412.8,118.1v9.3h-2.6v-9.3H412.8z"/>
		<path fill="#231F20" d="M417,119.4L417,119.4c0.5-0.9,1.2-1.7,2.3-1.7c2,0,1.8,2.1,1.8,3.5v6h-2.6v-5.1c0-0.5,0.2-1.8-0.6-1.8
			c-0.6,0-0.8,0.6-0.8,1.1v5.7h-2.6v-9.3h2.6v1.7H417z"/>
		<path fill="#231F20" d="M428,127.3v-13.9h2.7c1.1,0,2,0,2.9,0.8c0.9,0.8,1.4,2,1.4,3.2s-0.5,2.1-1.5,2.9c1.2,0.6,1.7,2,1.7,3.2
			c0,2.7-2,3.9-4.5,3.9L428,127.3L428,127.3z M430.7,115.8v3.3c1.1,0,1.7-0.8,1.7-1.8C432.4,116.4,431.8,115.6,430.7,115.8z
			 M430.7,121.2v3.8c1.1,0,1.8-0.8,1.8-2C432.6,122,431.8,121.2,430.7,121.2z"/>
		<path fill="#231F20" d="M443.9,122.7c0,2.4-0.8,4.8-3.5,4.8c-2.7,0-3.5-2.4-3.5-4.8c0-2.4,0.8-4.8,3.5-4.8
			C443.1,117.9,443.9,120.3,443.9,122.7z M439.3,122.7c0,0.6,0,2.6,0.9,2.6s0.9-2,0.9-2.6s0-2.6-0.9-2.6
			C439.5,120.2,439.3,122.1,439.3,122.7z"/>
		<path fill="#231F20" d="M448.2,118.1l0.8,1.4l0.3,0.6l1.1-2h2.7l-2.4,4.2l2.7,5h-2.7l-1.4-2.6l-1.4,2.6h-2.7l2.7-5l-2.3-4.2
			L448.2,118.1L448.2,118.1z"/>
	</g>
</g>
</svg>
