<?xml version="1.0" encoding="utf-8"?>
<!-- Generator: Adobe Illustrator 18.0.0, SVG Export Plug-In . SVG Version: 6.00 Build 0)  -->
<!DOCTYPE svg PUBLIC "-//W3C//DTD SVG 1.1//EN" "http://www.w3.org/Graphics/SVG/1.1/DTD/svg11.dtd">
<svg version="1.1" id="Layer_1" xmlns="http://www.w3.org/2000/svg" xmlns:xlink="http://www.w3.org/1999/xlink" x="0px" y="0px"
	 viewBox="0 0 792 612" enable-background="new 0 0 792 612" xml:space="preserve">
<rect x="443.2" y="429.1" fill="#DB7171" width="32.4" height="22.5"/>
<rect x="527" y="365.1" fill="#894951" width="32.4" height="22.5"/>
<rect x="273.3" y="143.4" fill="#DF2D2B" width="32.4" height="22.5"/>
<rect x="273.3" y="110.6" fill="#338FD0" width="32.4" height="22.5"/>
<rect x="456.2" y="161.7" fill="#6C9188" width="32.4" height="22.5"/>
<g>
	<path fill="#FFFFFF" d="M469.1,177.7v-10.3h2.1c1.3,0,3.6,0.1,3.6,3c0,1.1-0.5,2.1-1.5,2.7l1.8,4.7H473l-1.8-4.8h0v4.8H469.1z
		 M471.1,171.8l0.4,0c0.9,0,1.3-0.6,1.3-1.5c0-0.7-0.4-1.3-1.4-1.3h-0.3V171.8z"/>
</g>
<polygon fill="#DB7171" points="351.8,423.9 447.9,383.4 351.9,318 262,356.2 "/>
<polygon fill="#E7E8E9" stroke="#231F20" stroke-width="0.7618" points="262,356.2 300.9,340.6 392.8,406.6 351.8,423.9 "/>
<polygon fill="#894951" points="444.5,384.8 528.4,349.5 433.9,283.2 351.8,318 "/>
<polygon fill="#E7E8E9" stroke="#231F20" stroke-width="1.5236" stroke-linejoin="bevel" points="438.6,253.1 438.6,281.9 
	262,356.2 262,325.3 290.8,313.6 290.8,335.8 312.4,327.4 312.4,320 320.5,316.6 320.5,309.8 328.2,306.6 328.2,298.7 "/>
<polygon fill="#E7E8E9" stroke="#231F20" stroke-width="1.5236" stroke-linejoin="bevel" points="505.1,327.5 421.9,272.7 
	452.1,264.8 528.4,317.8 "/>
<polygon fill="#E7E8E9" stroke="#231F20" stroke-width="1.5236" stroke-linejoin="bevel" points="262,185 351.8,251.8 351.8,314 
	262,251.4 "/>
<polygon fill="#E7E8E9" stroke="#231F20" stroke-width="1.5236" stroke-linejoin="bevel" points="262,185 292.5,188.4 302.5,196.3 
	275,194.7 "/>
<polygon fill="#E7E8E9" stroke="#231F20" stroke-width="1.5236" stroke-linejoin="bevel" points="337.9,241.5 368.9,246 
	382.7,257.7 351.8,251.8 "/>
<polygon fill="#E7E8E9" stroke="#231F20" stroke-width="1.5236" stroke-linejoin="bevel" points="292.5,188.4 353.5,178.4 
	363.8,186.1 302.5,196.3 "/>
<polygon fill="#E7E8E9" stroke="#231F20" stroke-width="1.5236" stroke-linejoin="bevel" points="368.9,246 430.3,235.6 440.7,244 
	382.7,257.7 "/>
<polygon fill="#C37DB2" stroke="#231F20" stroke-width="1.5236" stroke-linejoin="bevel" points="353.5,178.4 434.5,144.5 
	434.5,168.3 374.8,194.2 "/>
<polygon fill="#C37DB2" stroke="#231F20" stroke-width="1.5236" stroke-linejoin="bevel" points="430.3,235.6 499.6,209.7 
	510.7,215.4 440.7,244 "/>
<polygon fill="#DF2D2B" stroke="#000000" stroke-width="1.5236" stroke-linejoin="bevel" points="275,194.7 302.5,196.3 368.9,246 
	337.9,241.5 "/>
<polygon fill="#338FD0" stroke="#000000" stroke-width="1.5236" stroke-linejoin="bevel" points="302.5,196.3 344.7,189.3 
	408.6,239.2 368.9,246 "/>
<polygon fill="#C37DB2" stroke="#231F20" stroke-width="1.5236" stroke-linejoin="bevel" points="408.6,239.2 417.5,237.7 
	354.3,187.7 344.7,189.3 "/>
<polygon fill="#E7E8E9" stroke="#231F20" stroke-width="1.5236" stroke-linejoin="bevel" points="430.3,235.6 417.5,237.7 
	354.3,187.7 363.6,185.9 "/>
<polygon fill="#C37DB2" stroke="#231F20" stroke-width="1.5236" stroke-linejoin="bevel" points="374.8,194.2 386.8,203.1 
	440.6,179.6 440.6,165.7 "/>
<polygon fill="#6C9188" stroke="#000000" stroke-width="1.5236" stroke-linejoin="bevel" points="439.8,232 439.8,224.1 
	401.2,196.8 381.8,199.5 430.3,235.6 "/>
<polygon fill="#C37DB2" stroke="#231F20" stroke-width="1.5236" stroke-linejoin="bevel" points="440.6,165.7 434.5,161.2 
	434.5,168.3 "/>
<polygon fill="#D7A76E" stroke="#000000" stroke-width="1.5236" stroke-linejoin="bevel" points="415,312.4 415,305.7 398.9,294.7 
	398.9,301.2 "/>
<polygon fill="#D7A76E" stroke="#000000" stroke-width="1.5236" stroke-linejoin="bevel" points="415,305.7 449.3,290.8 
	433.7,280.4 398.9,294.7 "/>
<polygon fill="#D7A76E" stroke="#000000" stroke-width="1.5236" stroke-linejoin="bevel" points="415,312.4 456.3,295.3 
	449.3,290.8 415,305.7 "/>
<polygon fill="#E7E8E9" stroke="#231F20" stroke-width="1.5236" stroke-linejoin="bevel" points="528.4,317.8 528.4,349.5 
	351.8,423.9 351.8,390 380.6,378.3 380.6,400.5 402.2,392.1 402.2,384.8 410.3,381.3 410.3,374.5 418,371.3 418,363.4 "/>
<polygon stroke="#000000" stroke-width="1.5236" points="304.6,334.5 304.6,351.6 300.6,353.1 285.4,342.2 "/>
<line fill="none" stroke="#000000" stroke-width="1.5236" stroke-linejoin="bevel" stroke-dasharray="4.5708,4.5708" x1="262" y1="251.4" x2="262" y2="325.3"/>
<line fill="none" stroke="#000000" stroke-width="1.5236" stroke-linejoin="bevel" stroke-dasharray="4.5708,4.5708" x1="351.8" y1="314" x2="351.8" y2="390"/>
<line fill="none" stroke="#000000" stroke-width="1.5236" stroke-linejoin="bevel" stroke-dasharray="4.5708,4.5708" x1="519.6" y1="241.4" x2="519.6" y2="353.2"/>
<polygon fill="#6C9188" stroke="#000000" stroke-width="1.5236" stroke-linejoin="bevel" points="439.8,224.1 421.8,229.2 
	430.3,235.6 439.8,232 "/>
<polygon fill="#E7E8E9" stroke="#231F20" stroke-width="1.5236" stroke-linejoin="bevel" points="351.8,423.9 389.7,453.5 
	426.7,436.2 389.8,407.9 "/>
<polygon fill="#E7E8E9" stroke="#231F20" stroke-width="1.5236" stroke-linejoin="bevel" points="389.8,407.9 389.8,388.4 
	426.7,415.6 426.7,436.2 "/>
<polygon fill="#E7E8E9" stroke="#231F20" stroke-width="1.5236" stroke-linejoin="bevel" points="401.6,448 401.6,439.7 
	409.7,436.2 409.7,430.3 417.4,426.8 417.4,420.2 426.7,415.6 426.7,436.2 "/>
<polygon stroke="#000000" stroke-width="1.5236" points="272.5,332.8 294.6,324.5 304.6,334.5 285.4,342.2 "/>
<polygon fill="#CCCCCC" stroke="#000000" stroke-width="1.5236" stroke-linejoin="bevel" points="422.2,305.1 422.2,313.5 
	466.6,343.6 473.4,340.7 "/>
<polygon fill="#CCCCCC" stroke="#000000" stroke-width="1.5236" stroke-linejoin="bevel" points="422.2,305.1 451.9,292.5 
	505.1,327.5 473.4,340.7 "/>
<polygon fill="#DF2D2B" stroke="#000000" stroke-width="1.5236" points="362.1,419.5 362.1,391.3 374.9,386.1 374.9,414.2 "/>
<polygon fill="#E7E8E9" stroke="#231F20" stroke-width="1.5236" stroke-linejoin="bevel" points="351.8,314 519.6,245.2 
	519.6,211.8 440.7,244 382.7,257.7 351.8,251.8 "/>
<polygon fill="#DF2D2B" stroke="#000000" stroke-width="1.5236" points="362.1,298.5 362.1,269.5 374.6,265 374.6,293.6 "/>
<polygon fill="#E7E8E9" stroke="#231F20" stroke-width="1.5236" stroke-linejoin="bevel" points="262,325.3 351.8,390 351.8,423.9 
	262,356.2 "/>
<polygon stroke="#000000" stroke-width="1.5236" points="293.8,380.1 293.8,360.6 313.4,374.6 313.4,394.9 "/>
<g>
	<g>
		<path fill="#231F20" d="M331.7,451.3c-0.4-0.3-0.8-0.6-1.3-0.6c-0.6,0-0.9,0.3-0.9,0.9c0,1.5,2.8,1.6,2.8,4.1
			c0,1.6-0.9,2.9-2.6,2.9c-0.5,0-1.1-0.2-1.6-0.5v-1.7c0.4,0.3,0.8,0.5,1.4,0.5c0.6,0,1-0.4,1-1c0-0.7-0.6-1-1.1-1.3
			c-1-0.7-1.7-1.4-1.7-2.7c0-1.5,0.8-2.7,2.4-2.7c0.6,0,1.1,0.2,1.6,0.5V451.3z"/>
		<path fill="#231F20" d="M335.6,450.6v1.7h0.7v1.4h-0.7v4.7h-1.7v-4.7h-0.6v-1.4h0.6v-1.7H335.6z"/>
		<path fill="#231F20" d="M340.1,457.8L340.1,457.8c-0.3,0.5-0.6,0.8-1.2,0.8c-1.4,0-1.7-2.2-1.7-3.2c0-1.1,0.2-3.2,1.6-3.2
			c0.6,0,1,0.4,1.2,0.9h0v-0.8h1.7v6.2h-1.7V457.8z M340.2,455.3c0-0.3,0-1.6-0.6-1.6c-0.6,0-0.6,1.3-0.6,1.6c0,0.4,0,1.7,0.6,1.7
			C340.2,457,340.2,455.7,340.2,455.3z"/>
		<path fill="#231F20" d="M342.7,450.5c0-0.6,0.5-1.1,1.1-1.1c0.6,0,1.1,0.5,1.1,1.1s-0.5,1.1-1.1,1.1
			C343.2,451.6,342.7,451.1,342.7,450.5z M344.7,452.3v6.2H343v-6.2H344.7z"/>
		<path fill="#231F20" d="M347.6,452.3v0.7h0c0.3-0.5,0.7-0.9,1.4-1v1.7c-0.1,0-0.2,0-0.3,0c-1.1,0-1.2,0.8-1.2,1.7v3.1h-1.7v-6.2
			H347.6z"/>
		<path fill="#231F20" d="M351.6,452.3l0.8,3.6h0l0.8-3.6h1.5l0.8,3.6h0l0.1-0.7l0.7-3h1.6l-1.7,6.2h-1.4l-0.6-2.1l-0.4-1.8h0
			l-0.4,2l-0.5,1.9h-1.4l-1.7-6.2H351.6z"/>
		<path fill="#231F20" d="M361.7,457.8L361.7,457.8c-0.3,0.5-0.6,0.8-1.2,0.8c-1.4,0-1.7-2.2-1.7-3.2c0-1.1,0.2-3.2,1.6-3.2
			c0.6,0,1,0.4,1.2,0.9h0v-0.8h1.7v6.2h-1.7V457.8z M361.8,455.3c0-0.3,0-1.6-0.6-1.6c-0.6,0-0.6,1.3-0.6,1.6c0,0.4,0,1.7,0.6,1.7
			C361.8,457,361.8,455.7,361.8,455.3z"/>
		<path fill="#231F20" d="M366,452.3l0.6,2.5l0.2,1h0l0.8-3.5h1.7l-2.6,9.2h-1.7l1-3.2l-1.8-6H366z"/>
		<path fill="#231F20" d="M375.9,450.6v1.7h0.7v1.4h-0.7v4.7h-1.7v-4.7h-0.6v-1.4h0.6v-1.7H375.9z"/>
		<path fill="#231F20" d="M382.3,455.4c0,1.6-0.5,3.2-2.3,3.2s-2.3-1.6-2.3-3.2c0-1.6,0.5-3.2,2.3-3.2S382.3,453.8,382.3,455.4z
			 M379.3,455.4c0,0.4,0,1.7,0.6,1.7c0.6,0,0.6-1.3,0.6-1.7s0-1.7-0.6-1.7C379.3,453.7,379.3,455,379.3,455.4z"/>
		<path fill="#231F20" d="M327.9,473.1v-9.2h1.8c1.2,0,3.2,0.1,3.2,2.6c0,1-0.4,1.9-1.3,2.4l1.6,4.2h-1.9l-1.6-4.2h0v4.2H327.9z
			 M329.7,467.8l0.3,0c0.8,0,1.2-0.6,1.2-1.3c0-0.7-0.3-1.2-1.2-1.1h-0.2V467.8z"/>
		<path fill="#231F20" d="M338.7,470.5H336c0,0.5,0,1.4,0.6,1.4c0.4,0,0.5-0.3,0.5-0.7h1.5c-0.1,1.1-0.7,2-2,2
			c-1.7,0-2.4-1.5-2.4-3.1c0-1.5,0.5-3.3,2.3-3.3c1.1,0,2.2,1,2.1,3L338.7,470.5z M337.3,469.3c0-0.4-0.1-1.1-0.6-1.1
			c-0.5,0-0.6,0.7-0.6,1.1v0.2h1.3V469.3z"/>
		<path fill="#231F20" d="M342.5,472.4L342.5,472.4c-0.3,0.5-0.6,0.8-1.2,0.8c-1.4,0-1.7-2.2-1.7-3.2c0-1.1,0.2-3.2,1.6-3.2
			c0.6,0,1,0.4,1.2,0.9h0v-0.8h1.7v6.2h-1.7V472.4z M342.6,470c0-0.3,0-1.6-0.6-1.6c-0.6,0-0.6,1.3-0.6,1.6c0,0.4,0,1.7,0.6,1.7
			C342.6,471.6,342.6,470.3,342.6,470z"/>
		<path fill="#231F20" d="M347.1,466.9v0.7h0c0.3-0.5,0.7-0.9,1.4-1v1.7c-0.1,0-0.2,0-0.3,0c-1.1,0-1.2,0.8-1.2,1.7v3.1h-1.7v-6.2
			H347.1z"/>
		<path fill="#231F20" d="M353,473.1v-9.2h1.8c0.7,0,1.3,0,1.9,0.5c0.6,0.5,0.9,1.3,0.9,2.1c0,0.8-0.3,1.4-1,1.9
			c0.8,0.4,1.1,1.3,1.1,2.1c0,1.8-1.3,2.6-3,2.6H353z M354.8,465.4v2.2c0.7,0,1.1-0.5,1.1-1.2C355.9,465.8,355.5,465.4,354.8,465.4z
			 M354.8,469.1v2.5c0.7,0,1.2-0.5,1.2-1.3C356,469.6,355.6,469,354.8,469.1z"/>
		<path fill="#231F20" d="M361.7,472.4L361.7,472.4c-0.3,0.5-0.6,0.8-1.2,0.8c-1.4,0-1.7-2.2-1.7-3.2c0-1.1,0.2-3.2,1.6-3.2
			c0.6,0,1,0.4,1.2,0.9h0v-0.8h1.7v6.2h-1.7V472.4z M361.8,470c0-0.3,0-1.6-0.6-1.6c-0.6,0-0.6,1.3-0.6,1.6c0,0.4,0,1.7,0.6,1.7
			C361.7,471.6,361.8,470.3,361.8,470z"/>
		<path fill="#231F20" d="M366.2,463.2v9.8h-1.7v-9.8H366.2z"/>
		<path fill="#231F20" d="M370.5,473c-0.3,0.1-0.6,0.2-1,0.2c-1.7,0-2.3-1.8-2.3-3.2c0-1.5,0.6-3.2,2.4-3.2c0.3,0,0.6,0.1,0.9,0.2
			v1.5c-0.2-0.1-0.3-0.2-0.5-0.2c-0.8,0-1,1-1,1.6c0,0.7,0.1,1.6,1,1.6c0.2,0,0.4-0.1,0.5-0.2V473z"/>
		<path fill="#231F20" d="M376.1,470c0,1.6-0.5,3.2-2.3,3.2s-2.3-1.6-2.3-3.2c0-1.6,0.5-3.2,2.3-3.2S376.1,468.4,376.1,470z
			 M373.1,470c0,0.4,0,1.7,0.6,1.7c0.6,0,0.6-1.3,0.6-1.7s0-1.7-0.6-1.7C373.2,468.4,373.1,469.7,373.1,470z"/>
		<path fill="#231F20" d="M378.9,467.9L378.9,467.9c0.3-0.6,0.8-1.1,1.5-1.1c1.3,0,1.2,1.4,1.2,2.3v4h-1.7v-3.4
			c0-0.3,0.1-1.2-0.4-1.2c-0.4,0-0.5,0.4-0.5,0.7v3.8h-1.7v-6.2h1.7V467.9z"/>
		<path fill="#231F20" d="M384.1,466.9l0.6,2.5l0.2,1h0l0.8-3.5h1.7l-2.6,9.2h-1.7l1-3.2l-1.8-6H384.1z"/>
	</g>
</g>
<g>
	<g>
		<path fill="#231F20" d="M461.2,388.9c-0.4-0.3-0.8-0.6-1.3-0.6c-0.6,0-0.9,0.3-0.9,0.9c0,1.5,2.8,1.6,2.8,4.1
			c0,1.6-0.9,2.9-2.6,2.9c-0.5,0-1.1-0.2-1.6-0.5v-1.7c0.4,0.3,0.8,0.5,1.4,0.5c0.6,0,1-0.4,1-1c0-0.7-0.6-1-1.1-1.3
			c-1-0.7-1.7-1.4-1.7-2.7c0-1.5,0.8-2.7,2.4-2.7c0.6,0,1.1,0.2,1.6,0.5V388.9z"/>
		<path fill="#231F20" d="M465.1,388.1v1.7h0.7v1.4h-0.7v4.7h-1.7v-4.7h-0.6v-1.4h0.6v-1.7H465.1z"/>
		<path fill="#231F20" d="M469.6,395.3L469.6,395.3c-0.3,0.5-0.6,0.8-1.2,0.8c-1.4,0-1.7-2.2-1.7-3.2c0-1.1,0.2-3.2,1.6-3.2
			c0.6,0,1,0.4,1.2,0.9h0v-0.8h1.7v6.2h-1.7V395.3z M469.7,392.9c0-0.3,0-1.6-0.6-1.6c-0.6,0-0.6,1.3-0.6,1.6c0,0.4,0,1.7,0.6,1.7
			C469.7,394.5,469.7,393.2,469.7,392.9z"/>
		<path fill="#231F20" d="M472.2,388c0-0.6,0.5-1.1,1.1-1.1c0.6,0,1.1,0.5,1.1,1.1s-0.5,1.1-1.1,1.1
			C472.7,389.1,472.2,388.6,472.2,388z M474.2,389.8v6.2h-1.7v-6.2H474.2z"/>
		<path fill="#231F20" d="M477.1,389.8v0.7h0c0.3-0.5,0.7-0.9,1.4-1v1.7c-0.1,0-0.2,0-0.3,0c-1.1,0-1.2,0.8-1.2,1.7v3.1h-1.7v-6.2
			H477.1z"/>
		<path fill="#231F20" d="M481.1,389.8l0.8,3.6h0l0.8-3.6h1.5l0.8,3.6h0l0.1-0.7l0.7-3h1.6l-1.7,6.2h-1.4l-0.6-2.1l-0.4-1.8h0
			l-0.4,2l-0.5,1.9h-1.4l-1.7-6.2H481.1z"/>
		<path fill="#231F20" d="M491.2,395.3L491.2,395.3c-0.3,0.5-0.6,0.8-1.2,0.8c-1.4,0-1.7-2.2-1.7-3.2c0-1.1,0.2-3.2,1.6-3.2
			c0.6,0,1,0.4,1.2,0.9h0v-0.8h1.7v6.2h-1.7V395.3z M491.3,392.9c0-0.3,0-1.6-0.6-1.6c-0.6,0-0.6,1.3-0.6,1.6c0,0.4,0,1.7,0.6,1.7
			C491.3,394.5,491.3,393.2,491.3,392.9z"/>
		<path fill="#231F20" d="M495.5,389.8l0.6,2.5l0.2,1h0l0.8-3.5h1.7l-2.6,9.2h-1.7l1-3.2l-1.8-6H495.5z"/>
		<path fill="#231F20" d="M505.4,388.1v1.7h0.7v1.4h-0.7v4.7h-1.7v-4.7h-0.6v-1.4h0.6v-1.7H505.4z"/>
		<path fill="#231F20" d="M511.8,392.9c0,1.6-0.5,3.2-2.3,3.2c-1.8,0-2.3-1.6-2.3-3.2c0-1.6,0.5-3.2,2.3-3.2
			C511.3,389.7,511.8,391.3,511.8,392.9z M508.8,392.9c0,0.4,0,1.7,0.6,1.7c0.6,0,0.6-1.3,0.6-1.7s0-1.7-0.6-1.7
			C508.8,391.3,508.8,392.6,508.8,392.9z"/>
		<path fill="#231F20" d="M462,403.2c-0.2-0.1-0.5-0.1-0.7-0.1c-1.6,0-2.3,1.5-2.3,2.9c0,1.4,0.7,3,2.3,3c0.2,0,0.5-0.1,0.7-0.1v1.7
			c-0.3,0.1-0.5,0.2-0.8,0.2c-2.6,0-4.1-2.4-4.1-4.8c0-2.3,1.5-4.6,4-4.6c0.3,0,0.6,0.1,0.9,0.2V403.2z"/>
		<path fill="#231F20" d="M467.3,408h-2.7c0,0.5,0,1.4,0.6,1.4c0.4,0,0.5-0.3,0.5-0.7h1.5c-0.1,1.1-0.7,2-2,2
			c-1.7,0-2.4-1.5-2.4-3.1c0-1.5,0.5-3.3,2.3-3.3c1.1,0,2.2,1,2.1,3L467.3,408z M465.8,406.8c0-0.4-0.1-1.1-0.6-1.1
			c-0.5,0-0.6,0.7-0.6,1.1v0.2h1.3V406.8z"/>
		<path fill="#231F20" d="M470.1,405.4L470.1,405.4c0.3-0.6,0.8-1.1,1.5-1.1c1.3,0,1.2,1.4,1.2,2.3v4H471v-3.4
			c0-0.3,0.1-1.2-0.4-1.2c-0.4,0-0.5,0.4-0.5,0.7v3.8h-1.7v-6.2h1.7V405.4z"/>
		<path fill="#231F20" d="M476.1,402.8v1.7h0.7v1.4h-0.7v4.7h-1.7v-4.7h-0.6v-1.4h0.6v-1.7H476.1z"/>
		<path fill="#231F20" d="M482.1,408h-2.7c0,0.5,0,1.4,0.6,1.4c0.4,0,0.5-0.3,0.5-0.7h1.5c-0.1,1.1-0.7,2-2,2
			c-1.7,0-2.4-1.5-2.4-3.1c0-1.5,0.5-3.3,2.3-3.3c1.1,0,2.2,1,2.1,3L482.1,408z M480.7,406.8c0-0.4-0.1-1.1-0.6-1.1
			c-0.5,0-0.6,0.7-0.6,1.1v0.2h1.3V406.8z"/>
		<path fill="#231F20" d="M484.9,404.5v0.7h0c0.3-0.5,0.7-0.9,1.4-1v1.7c-0.1,0-0.2,0-0.3,0c-1.1,0-1.2,0.8-1.2,1.7v3.1h-1.7v-6.2
			H484.9z"/>
		<path fill="#231F20" d="M490.9,410.6v-9.2h1.8c0.7,0,1.3,0,1.9,0.5c0.6,0.5,0.9,1.3,0.9,2.1c0,0.8-0.3,1.4-1,1.9
			c0.8,0.4,1.1,1.3,1.1,2.1c0,1.8-1.3,2.6-3,2.6H490.9z M492.7,402.9v2.2c0.7,0,1.1-0.5,1.1-1.2
			C493.8,403.4,493.4,402.9,492.7,402.9z M492.7,406.6v2.5c0.7,0,1.2-0.5,1.2-1.3C493.9,407.1,493.4,406.6,492.7,406.6z"/>
		<path fill="#231F20" d="M499.5,409.9L499.5,409.9c-0.3,0.5-0.6,0.8-1.2,0.8c-1.4,0-1.7-2.2-1.7-3.2c0-1.1,0.2-3.2,1.6-3.2
			c0.6,0,1,0.4,1.2,0.9h0v-0.8h1.7v6.2h-1.7V409.9z M499.6,407.5c0-0.3,0-1.6-0.6-1.6c-0.6,0-0.6,1.3-0.6,1.6c0,0.4,0,1.7,0.6,1.7
			C499.6,409.2,499.6,407.8,499.6,407.5z"/>
		<path fill="#231F20" d="M504.1,400.8v9.8h-1.7v-9.8H504.1z"/>
		<path fill="#231F20" d="M508.4,410.5c-0.3,0.1-0.6,0.2-1,0.2c-1.7,0-2.3-1.8-2.3-3.2c0-1.5,0.6-3.2,2.4-3.2c0.3,0,0.6,0.1,0.9,0.2
			v1.5c-0.2-0.1-0.3-0.2-0.5-0.2c-0.8,0-1,1-1,1.6c0,0.7,0.1,1.6,1,1.6c0.2,0,0.4-0.1,0.5-0.2V410.5z"/>
		<path fill="#231F20" d="M514,407.5c0,1.6-0.5,3.2-2.3,3.2c-1.8,0-2.3-1.6-2.3-3.2c0-1.6,0.5-3.2,2.3-3.2
			C513.5,404.3,514,406,514,407.5z M511,407.5c0,0.4,0,1.7,0.6,1.7c0.6,0,0.6-1.3,0.6-1.7s0-1.7-0.6-1.7
			C511,405.9,511,407.2,511,407.5z"/>
		<path fill="#231F20" d="M516.7,405.4L516.7,405.4c0.3-0.6,0.8-1.1,1.5-1.1c1.3,0,1.2,1.4,1.2,2.3v4h-1.7v-3.4
			c0-0.3,0.1-1.2-0.4-1.2c-0.4,0-0.5,0.4-0.5,0.7v3.8H515v-6.2h1.7V405.4z"/>
		<path fill="#231F20" d="M522,404.5l0.6,2.5l0.2,1h0l0.8-3.5h1.7l-2.6,9.2H521l1-3.2l-1.8-6H522z"/>
	</g>
</g>
<g>
	<path d="M267,389.5v1.7h-1.8v2h1.6v1.7h-1.6v2.1h1.9v1.7h-3.7v-9.2H267z"/>
	<path d="M269.9,393.5L269.9,393.5c0.3-0.6,0.8-1.1,1.5-1.1c1.3,0,1.2,1.4,1.2,2.3v4h-1.7v-3.4c0-0.3,0.1-1.2-0.4-1.2
		c-0.4,0-0.5,0.4-0.5,0.7v3.8h-1.7v-6.2h1.7V393.5z"/>
	<path d="M275.9,390.8v1.7h0.7v1.4h-0.7v4.7h-1.7v-4.7h-0.6v-1.4h0.6v-1.7H275.9z"/>
	<path d="M279.4,392.5v0.7h0c0.3-0.5,0.7-0.9,1.4-1v1.7c-0.1,0-0.2,0-0.3,0c-1.1,0-1.2,0.8-1.2,1.7v3.1h-1.7v-6.2H279.4z"/>
	<path d="M284.6,398L284.6,398c-0.3,0.5-0.6,0.8-1.2,0.8c-1.4,0-1.7-2.2-1.7-3.2c0-1.1,0.2-3.2,1.6-3.2c0.6,0,1,0.4,1.2,0.9h0v-0.8
		h1.7v6.2h-1.7V398z M284.7,395.6c0-0.3,0-1.6-0.6-1.6c-0.6,0-0.6,1.3-0.6,1.6c0,0.4,0,1.7,0.6,1.7
		C284.6,397.2,284.7,395.9,284.7,395.6z"/>
	<path d="M289.1,393.5L289.1,393.5c0.3-0.6,0.8-1.1,1.5-1.1c1.3,0,1.2,1.4,1.2,2.3v4H290v-3.4c0-0.3,0.1-1.2-0.4-1.2
		c-0.4,0-0.5,0.4-0.5,0.7v3.8h-1.7v-6.2h1.7V393.5z"/>
	<path d="M296,398.6c-0.3,0.1-0.6,0.2-1,0.2c-1.7,0-2.3-1.8-2.3-3.2c0-1.5,0.6-3.2,2.4-3.2c0.3,0,0.6,0.1,0.9,0.2v1.5
		c-0.2-0.1-0.3-0.2-0.5-0.2c-0.8,0-1,1-1,1.6c0,0.7,0.1,1.6,1,1.6c0.2,0,0.4-0.1,0.5-0.2V398.6z"/>
	<path d="M301.3,396h-2.7c0,0.5,0,1.4,0.6,1.4c0.4,0,0.5-0.3,0.5-0.7h1.5c-0.1,1.1-0.7,2-2,2c-1.7,0-2.4-1.5-2.4-3.1
		c0-1.5,0.5-3.3,2.3-3.3c1.1,0,2.2,1,2.1,3L301.3,396z M299.9,394.8c0-0.4-0.1-1.1-0.6-1.1c-0.5,0-0.6,0.7-0.6,1.1v0.2h1.3V394.8z"
		/>
</g>
<g>
	<path d="M263.3,504.9v-9.2h1.8c1.2,0,3.2,0.1,3.2,2.6c0,1-0.4,1.9-1.3,2.4l1.6,4.2h-1.9l-1.6-4.2h0v4.2H263.3z M265.1,499.6l0.3,0
		c0.8,0,1.2-0.6,1.2-1.3c0-0.7-0.3-1.2-1.2-1.1h-0.2V499.6z"/>
	<path d="M275.6,500v1.6h-3V500H275.6z"/>
	<path d="M279.6,504.9v-9.2h1.8c1.2,0,3.2,0.1,3.2,2.6c0,1-0.4,1.9-1.3,2.4l1.6,4.2H283l-1.6-4.2h0v4.2H279.6z M281.4,499.6l0.3,0
		c0.8,0,1.2-0.6,1.2-1.3c0-0.7-0.3-1.2-1.2-1.1h-0.2V499.6z"/>
	<path d="M290.1,502.2h-2.7c0,0.5,0,1.4,0.6,1.4c0.4,0,0.5-0.3,0.5-0.7h1.5c-0.1,1.1-0.7,2-2,2c-1.7,0-2.4-1.5-2.4-3.1
		c0-1.5,0.5-3.3,2.3-3.3c1.1,0,2.2,1,2.1,3L290.1,502.2z M288.7,501c0-0.4-0.1-1.1-0.6-1.1c-0.5,0-0.6,0.7-0.6,1.1v0.2h1.3V501z"/>
	<path d="M294,500.4c-0.2-0.2-0.5-0.4-0.8-0.4c-0.3,0-0.5,0.2-0.5,0.5c0,0.7,2,0.6,2,2.4c0,1.2-0.7,2.2-2,2.2
		c-0.7,0-1.3-0.3-1.9-0.7l0.8-1.2c0.3,0.2,0.5,0.4,0.9,0.4c0.3,0,0.5-0.2,0.5-0.5c0-0.8-2-0.6-2-2.6c0-1.2,1-1.8,2.1-1.8
		c0.6,0,1.1,0.2,1.6,0.5L294,500.4z"/>
	<path d="M299.7,502.2H297c0,0.5,0,1.4,0.6,1.4c0.4,0,0.5-0.3,0.5-0.7h1.5c-0.1,1.1-0.7,2-2,2c-1.7,0-2.4-1.5-2.4-3.1
		c0-1.5,0.5-3.3,2.3-3.3c1.1,0,2.2,1,2.1,3L299.7,502.2z M298.3,501c0-0.4-0.1-1.1-0.6-1.1c-0.5,0-0.6,0.7-0.6,1.1v0.2h1.3V501z"/>
	<path d="M302.2,498.7v0.7h0c0.3-0.5,0.7-0.9,1.4-1v1.7c-0.1,0-0.2,0-0.3,0c-1.1,0-1.2,0.8-1.2,1.7v3.1h-1.7v-6.2H302.2z"/>
	<path d="M306,498.7l0.8,3.4l0,0.1h0l0.1-0.6l0.7-2.8h1.8l-1.8,6.2h-1.6l-1.8-6.2H306z"/>
	<path d="M314.4,502.2h-2.7c0,0.5,0,1.4,0.6,1.4c0.4,0,0.5-0.3,0.5-0.7h1.5c-0.1,1.1-0.7,2-2,2c-1.7,0-2.4-1.5-2.4-3.1
		c0-1.5,0.5-3.3,2.3-3.3c1.1,0,2.2,1,2.1,3L314.4,502.2z M312.9,501c0-0.4-0.1-1.1-0.6-1.1c-0.5,0-0.6,0.7-0.6,1.1v0.2h1.3V501z"/>
	<path d="M317.9,504.2L317.9,504.2c-0.3,0.5-0.6,0.8-1.2,0.8c-1.4,0-1.7-2.2-1.7-3.2c0-1.1,0.2-3.2,1.6-3.2c0.6,0,1,0.4,1.2,0.9h0
		V495h1.7v9.8h-1.7V504.2z M318,501.8c0-0.3,0-1.6-0.6-1.6c-0.6,0-0.6,1.3-0.6,1.6c0,0.4,0,1.7,0.6,1.7
		C317.9,503.4,318,502.1,318,501.8z"/>
	<path d="M327.4,497.7c-0.4-0.3-0.8-0.6-1.3-0.6c-0.6,0-0.9,0.3-0.9,0.9c0,1.5,2.8,1.6,2.8,4.1c0,1.6-0.9,2.9-2.6,2.9
		c-0.5,0-1.1-0.2-1.6-0.5v-1.7c0.4,0.3,0.8,0.5,1.4,0.5c0.6,0,1-0.4,1-1c0-0.7-0.6-1-1.1-1.3c-1-0.7-1.7-1.4-1.7-2.7
		c0-1.5,0.8-2.7,2.4-2.7c0.6,0,1.1,0.2,1.6,0.5V497.7z"/>
	<path d="M333,502.2h-2.7c0,0.5,0,1.4,0.6,1.4c0.4,0,0.5-0.3,0.5-0.7h1.5c-0.1,1.1-0.7,2-2,2c-1.7,0-2.4-1.5-2.4-3.1
		c0-1.5,0.5-3.3,2.3-3.3c1.1,0,2.2,1,2.1,3L333,502.2z M331.6,501c0-0.4-0.1-1.1-0.6-1.1c-0.5,0-0.6,0.7-0.6,1.1v0.2h1.3V501z"/>
	<path d="M336.5,504.2L336.5,504.2c-0.3,0.5-0.6,0.8-1.2,0.8c-1.4,0-1.7-2.2-1.7-3.2c0-1.1,0.2-3.2,1.6-3.2c0.6,0,1,0.4,1.2,0.9h0
		v-0.8h1.7v6.2h-1.7V504.2z M336.6,501.8c0-0.3,0-1.6-0.6-1.6c-0.6,0-0.6,1.3-0.6,1.6c0,0.4,0,1.7,0.6,1.7
		C336.6,503.4,336.6,502.1,336.6,501.8z"/>
	<path d="M341.3,497v1.7h0.7v1.4h-0.7v4.7h-1.7v-4.7H339v-1.4h0.6V497H341.3z"/>
	<path d="M342.6,496.9c0-0.6,0.5-1.1,1.1-1.1c0.6,0,1.1,0.5,1.1,1.1s-0.5,1.1-1.1,1.1C343.1,498,342.6,497.5,342.6,496.9z
		 M344.5,498.7v6.2h-1.7v-6.2H344.5z"/>
	<path d="M347.1,499.7L347.1,499.7c0.3-0.6,0.8-1.1,1.5-1.1c1.3,0,1.2,1.4,1.2,2.3v4H348v-3.4c0-0.3,0.1-1.2-0.4-1.2
		c-0.4,0-0.5,0.4-0.5,0.7v3.8h-1.7v-6.2h1.7V499.7z"/>
	<path d="M352,505.7c0,0.4,0.1,0.9,0.6,0.9c0.8,0,0.7-1.2,0.7-1.7v-0.8h0c-0.2,0.5-0.5,0.9-1.1,0.9c-0.6,0-1.1-0.5-1.3-1
		c-0.3-0.6-0.4-1.4-0.4-2.1c0-1.1,0.2-3.3,1.7-3.3c0.6,0,1,0.4,1.2,0.9h0v-0.7h1.7v6.7c0,1.8-0.8,2.5-2.3,2.5
		c-1.5,0-2.1-0.8-2.2-2.2H352z M353.4,501.8c0-0.3,0-1.6-0.6-1.6c-0.6,0-0.6,1.3-0.6,1.6c0,0.4,0,1.7,0.6,1.7
		C353.4,503.4,353.4,502.1,353.4,501.8z"/>
	<path d="M362,500.4c-0.2-0.2-0.5-0.4-0.8-0.4c-0.3,0-0.5,0.2-0.5,0.5c0,0.7,2,0.6,2,2.4c0,1.2-0.7,2.2-2,2.2
		c-0.7,0-1.3-0.3-1.9-0.7l0.8-1.2c0.3,0.2,0.5,0.4,0.9,0.4c0.3,0,0.5-0.2,0.5-0.5c0-0.8-2-0.6-2-2.6c0-1.2,1-1.8,2.1-1.8
		c0.6,0,1.1,0.2,1.6,0.5L362,500.4z"/>
	<path d="M367.7,502.2H365c0,0.5,0,1.4,0.6,1.4c0.4,0,0.5-0.3,0.5-0.7h1.5c-0.1,1.1-0.7,2-2,2c-1.7,0-2.4-1.5-2.4-3.1
		c0-1.5,0.5-3.3,2.3-3.3c1.1,0,2.2,1,2.1,3L367.7,502.2z M366.3,501c0-0.4-0.1-1.1-0.6-1.1c-0.5,0-0.6,0.7-0.6,1.1v0.2h1.3V501z"/>
	<path d="M371.6,504.8c-0.3,0.1-0.6,0.2-1,0.2c-1.7,0-2.3-1.8-2.3-3.2c0-1.5,0.6-3.2,2.4-3.2c0.3,0,0.6,0.1,0.9,0.2v1.5
		c-0.2-0.1-0.3-0.2-0.5-0.2c-0.8,0-1,1-1,1.6c0,0.7,0.1,1.6,1,1.6c0.2,0,0.4-0.1,0.5-0.2V504.8z"/>
	<path d="M374.6,497v1.7h0.7v1.4h-0.7v4.7h-1.7v-4.7h-0.6v-1.4h0.6V497H374.6z"/>
	<path d="M375.8,496.9c0-0.6,0.5-1.1,1.1-1.1c0.6,0,1.1,0.5,1.1,1.1s-0.5,1.1-1.1,1.1C376.3,498,375.8,497.5,375.8,496.9z
		 M377.8,498.7v6.2h-1.7v-6.2H377.8z"/>
	<path d="M383.2,501.8c0,1.6-0.5,3.2-2.3,3.2s-2.3-1.6-2.3-3.2c0-1.6,0.5-3.2,2.3-3.2S383.2,500.2,383.2,501.8z M380.2,501.8
		c0,0.4,0,1.7,0.6,1.7c0.6,0,0.6-1.3,0.6-1.7s0-1.7-0.6-1.7C380.3,500.1,380.2,501.4,380.2,501.8z"/>
	<path d="M385.7,499.7L385.7,499.7c0.3-0.6,0.8-1.1,1.5-1.1c1.3,0,1.2,1.4,1.2,2.3v4h-1.7v-3.4c0-0.3,0.1-1.2-0.4-1.2
		c-0.4,0-0.5,0.4-0.5,0.7v3.8h-1.7v-6.2h1.7V499.7z"/>
	<path d="M392.2,500.4c-0.2-0.2-0.5-0.4-0.8-0.4c-0.3,0-0.5,0.2-0.5,0.5c0,0.7,2,0.6,2,2.4c0,1.2-0.7,2.2-2,2.2
		c-0.7,0-1.3-0.3-1.9-0.7l0.8-1.2c0.3,0.2,0.5,0.4,0.9,0.4c0.3,0,0.5-0.2,0.5-0.5c0-0.8-2-0.6-2-2.6c0-1.2,1-1.8,2.1-1.8
		c0.6,0,1.1,0.2,1.6,0.5L392.2,500.4z"/>
	<path d="M399.7,495.9c-0.8,1.6-1.2,3.4-1.2,5.2c0,1.8,0.5,3.5,1.2,5.1l-1.6,0.4c-0.9-1.7-1.4-3.5-1.4-5.5c0-1.9,0.5-3.9,1.4-5.5
		L399.7,495.9z"/>
	<path d="M402.4,495.7v7.5h1.9v1.7h-3.7v-9.2H402.4z"/>
	<path d="M404.6,496.9c0-0.6,0.5-1.1,1.1-1.1c0.6,0,1.1,0.5,1.1,1.1s-0.5,1.1-1.1,1.1C405.1,498,404.6,497.5,404.6,496.9z
		 M406.6,498.7v6.2h-1.7v-6.2H406.6z"/>
	<path d="M409.2,499.7L409.2,499.7c0.3-0.6,0.8-1.1,1.5-1.1c0.6,0,1,0.5,1.1,1h0c0.3-0.5,0.8-1,1.5-1c1.1,0,1.1,1.2,1.1,2v4.3h-1.7
		v-3.3c0-0.3,0.1-1.2-0.4-1.2c-0.4,0-0.5,0.4-0.5,0.7v3.9H410v-3.5c0-0.3,0.1-1.1-0.4-1.1c-0.4,0-0.5,0.4-0.5,0.7v3.8h-1.7v-6.2h1.7
		L409.2,499.7z"/>
	<path d="M415,496.9c0-0.6,0.5-1.1,1.1-1.1c0.6,0,1.1,0.5,1.1,1.1s-0.5,1.1-1.1,1.1C415.5,498,415,497.5,415,496.9z M416.9,498.7
		v6.2h-1.7v-6.2H416.9z"/>
	<path d="M420,497v1.7h0.7v1.4H420v4.7h-1.7v-4.7h-0.6v-1.4h0.6V497H420z"/>
	<path d="M425.8,502.2h-2.7c0,0.5,0,1.4,0.6,1.4c0.4,0,0.5-0.3,0.5-0.7h1.5c-0.1,1.1-0.7,2-2,2c-1.7,0-2.4-1.5-2.4-3.1
		c0-1.5,0.5-3.3,2.3-3.3c1.1,0,2.2,1,2.1,3L425.8,502.2z M424.3,501c0-0.4-0.1-1.1-0.6-1.1c-0.5,0-0.6,0.7-0.6,1.1v0.2h1.3V501z"/>
	<path d="M429.3,504.2L429.3,504.2c-0.3,0.5-0.6,0.8-1.2,0.8c-1.4,0-1.7-2.2-1.7-3.2c0-1.1,0.2-3.2,1.6-3.2c0.6,0,1,0.4,1.2,0.9h0
		V495h1.7v9.8h-1.7V504.2z M429.4,501.8c0-0.3,0-1.6-0.6-1.6c-0.6,0-0.6,1.3-0.6,1.6c0,0.4,0,1.7,0.6,1.7
		C429.4,503.4,429.4,502.1,429.4,501.8z"/>
	<path d="M438.6,495.7l2.2,9.2h-1.9l-0.3-1.5h-1.8l-0.3,1.5h-1.8l2.1-9.2H438.6z M437.8,499.4l-0.2-1.4h0l-0.2,1.4l-0.4,2.5h1.3
		L437.8,499.4z"/>
	<path d="M442.3,498.7l0.8,3.4l0,0.1h0l0.1-0.6l0.7-2.8h1.8l-1.8,6.2h-1.6l-1.8-6.2H442.3z"/>
	<path d="M449.1,504.2L449.1,504.2c-0.3,0.5-0.6,0.8-1.2,0.8c-1.4,0-1.7-2.2-1.7-3.2c0-1.1,0.2-3.2,1.6-3.2c0.6,0,1,0.4,1.2,0.9h0
		v-0.8h1.7v6.2h-1.7V504.2z M449.2,501.8c0-0.3,0-1.6-0.6-1.6c-0.6,0-0.6,1.3-0.6,1.6c0,0.4,0,1.7,0.6,1.7
		C449.1,503.4,449.2,502.1,449.2,501.8z"/>
	<path d="M451.4,496.9c0-0.6,0.5-1.1,1.1-1.1c0.6,0,1.1,0.5,1.1,1.1s-0.5,1.1-1.1,1.1C451.9,498,451.4,497.5,451.4,496.9z
		 M453.3,498.7v6.2h-1.7v-6.2H453.3z"/>
	<path d="M455.9,495v9.8h-1.7V495H455.9z"/>
	<path d="M459.4,504.2L459.4,504.2c-0.3,0.5-0.6,0.8-1.2,0.8c-1.4,0-1.7-2.2-1.7-3.2c0-1.1,0.2-3.2,1.6-3.2c0.6,0,1,0.4,1.2,0.9h0
		v-0.8h1.7v6.2h-1.7V504.2z M459.6,501.8c0-0.3,0-1.6-0.6-1.6c-0.6,0-0.6,1.3-0.6,1.6c0,0.4,0,1.7,0.6,1.7
		C459.5,503.4,459.6,502.1,459.6,501.8z"/>
	<path d="M462,495h1.7v4.4h0c0.2-0.5,0.6-0.9,1.1-0.9c1.5,0,1.6,2.1,1.6,3.2c0,1-0.3,3.2-1.7,3.2c-0.6,0-0.9-0.4-1.1-0.8h0v0.7H462
		V495z M464.8,501.8c0-0.4,0-1.6-0.6-1.6c-0.6,0-0.6,1.3-0.6,1.6c0,0.3,0,1.7,0.6,1.7C464.8,503.4,464.8,502.1,464.8,501.8z"/>
	<path d="M467,496.9c0-0.6,0.5-1.1,1.1-1.1c0.6,0,1.1,0.5,1.1,1.1s-0.5,1.1-1.1,1.1C467.5,498,467,497.5,467,496.9z M469,498.7v6.2
		h-1.7v-6.2H469z"/>
	<path d="M471.5,495v9.8h-1.7V495H471.5z"/>
	<path d="M472.1,496.9c0-0.6,0.5-1.1,1.1-1.1c0.6,0,1.1,0.5,1.1,1.1s-0.5,1.1-1.1,1.1C472.6,498,472.1,497.5,472.1,496.9z
		 M474.1,498.7v6.2h-1.7v-6.2H474.1z"/>
	<path d="M477.2,497v1.7h0.7v1.4h-0.7v4.7h-1.7v-4.7h-0.6v-1.4h0.6V497H477.2z"/>
	<path d="M480.2,498.7l0.6,2.5l0.2,1h0l0.8-3.5h1.7l-2.6,9.2h-1.7l1-3.2l-1.8-6H480.2z"/>
	<path d="M484,506.2c0.8-1.6,1.2-3.4,1.2-5.2c0-1.8-0.5-3.5-1.2-5.1l1.6-0.4c0.9,1.7,1.4,3.5,1.4,5.4c0,1.9-0.5,3.9-1.4,5.5
		L484,506.2z"/>
</g>
<g>
	<g>
		<path d="M310.2,349.5v-9.2h1.8c0.7,0,1.3,0,1.9,0.5c0.6,0.5,0.9,1.3,0.9,2.1c0,0.8-0.3,1.4-1,1.9c0.8,0.4,1.1,1.3,1.1,2.1
			c0,1.8-1.3,2.6-3,2.6H310.2z M312,341.8v2.2c0.7,0,1.1-0.5,1.1-1.2C313.1,342.2,312.7,341.8,312,341.8z M312,345.4v2.5
			c0.7,0,1.2-0.5,1.2-1.3C313.1,345.9,312.7,345.4,312,345.4z"/>
		<path d="M318.8,348.8L318.8,348.8c-0.3,0.5-0.6,0.8-1.2,0.8c-1.4,0-1.7-2.2-1.7-3.2c0-1.1,0.2-3.2,1.6-3.2c0.6,0,1,0.4,1.2,0.9h0
			v-0.8h1.7v6.2h-1.7V348.8z M318.9,346.3c0-0.3,0-1.6-0.6-1.6c-0.6,0-0.6,1.3-0.6,1.6c0,0.4,0,1.7,0.6,1.7
			C318.9,348,318.9,346.7,318.9,346.3z"/>
		<path d="M323.4,343.3v0.7h0c0.3-0.5,0.7-0.9,1.4-1v1.7c-0.1,0-0.2,0-0.3,0c-1.1,0-1.2,0.8-1.2,1.7v3.1h-1.7v-6.2H323.4z"/>
	</g>
</g>
<g>
	<path d="M458.7,315.7c-0.4-0.3-0.8-0.6-1.3-0.6c-0.6,0-0.9,0.3-0.9,0.9c0,1.5,2.8,1.6,2.8,4.1c0,1.6-0.9,2.9-2.6,2.9
		c-0.5,0-1.1-0.2-1.6-0.5v-1.7c0.4,0.3,0.8,0.5,1.4,0.5c0.6,0,1-0.4,1-1c0-0.7-0.6-1-1.1-1.3c-1-0.7-1.7-1.4-1.7-2.7
		c0-1.5,0.8-2.7,2.4-2.7c0.6,0,1.1,0.2,1.6,0.5V315.7z"/>
	<path d="M462.6,314.9v1.7h0.7v1.4h-0.7v4.7h-1.7V318h-0.6v-1.4h0.6v-1.7H462.6z"/>
	<path d="M467.1,322.1L467.1,322.1c-0.3,0.5-0.6,0.8-1.2,0.8c-1.4,0-1.7-2.2-1.7-3.2c0-1.1,0.2-3.2,1.6-3.2c0.6,0,1,0.4,1.2,0.9h0
		v-0.8h1.7v6.2h-1.7V322.1z M467.3,319.7c0-0.3,0-1.6-0.6-1.6c-0.6,0-0.6,1.3-0.6,1.6c0,0.4,0,1.7,0.6,1.7
		C467.2,321.3,467.3,320,467.3,319.7z"/>
	<path d="M471.5,323.6c0,0.4,0.1,0.9,0.6,0.9c0.8,0,0.7-1.2,0.7-1.7V322h0c-0.2,0.5-0.5,0.9-1.1,0.9c-0.6,0-1.1-0.5-1.3-1
		c-0.3-0.6-0.4-1.4-0.4-2.1c0-1.1,0.2-3.3,1.7-3.3c0.6,0,1,0.4,1.2,0.9h0v-0.7h1.7v6.7c0,1.8-0.8,2.5-2.3,2.5
		c-1.5,0-2.1-0.8-2.2-2.2H471.5z M472.8,319.7c0-0.3,0-1.6-0.6-1.6c-0.6,0-0.6,1.3-0.6,1.6c0,0.4,0,1.7,0.6,1.7
		C472.8,321.3,472.8,320,472.8,319.7z"/>
	<path d="M479.9,320.2h-2.7c0,0.5,0,1.4,0.6,1.4c0.4,0,0.5-0.3,0.5-0.7h1.5c-0.1,1.1-0.7,2-2,2c-1.7,0-2.4-1.5-2.4-3.1
		c0-1.5,0.5-3.3,2.3-3.3c1.1,0,2.2,1,2.1,3L479.9,320.2z M478.4,319c0-0.4-0.1-1.1-0.6-1.1c-0.5,0-0.6,0.7-0.6,1.1v0.2h1.3V319z"/>
</g>
<g>
	<path d="M413.8,296.9v-9.2h1.8c0.7,0,1.3,0,1.9,0.5c0.6,0.5,0.9,1.3,0.9,2.1c0,0.8-0.3,1.4-1,1.9c0.8,0.4,1.1,1.3,1.1,2.1
		c0,1.8-1.3,2.6-3,2.6H413.8z M415.6,289.2v2.2c0.7,0,1.1-0.5,1.1-1.2C416.7,289.6,416.3,289.2,415.6,289.2z M415.6,292.9v2.5
		c0.7,0,1.2-0.5,1.2-1.3C416.7,293.4,416.3,292.9,415.6,292.9z"/>
	<path d="M422.4,296.2L422.4,296.2c-0.3,0.5-0.6,0.8-1.2,0.8c-1.4,0-1.7-2.2-1.7-3.2c0-1.1,0.2-3.2,1.6-3.2c0.6,0,1,0.4,1.2,0.9h0
		v-0.8h1.7v6.2h-1.7V296.2z M422.5,293.8c0-0.3,0-1.6-0.6-1.6c-0.6,0-0.6,1.3-0.6,1.6c0,0.4,0,1.7,0.6,1.7
		C422.5,295.4,422.5,294.1,422.5,293.8z"/>
	<path d="M427,291.7L427,291.7c0.3-0.6,0.8-1.1,1.5-1.1c1.3,0,1.2,1.4,1.2,2.3v4h-1.7v-3.4c0-0.3,0.1-1.2-0.4-1.2
		c-0.4,0-0.5,0.4-0.5,0.7v3.8h-1.7v-6.2h1.7V291.7z"/>
	<path d="M433.5,296.2L433.5,296.2c-0.3,0.5-0.6,0.8-1.2,0.8c-1.4,0-1.7-2.2-1.7-3.2c0-1.1,0.2-3.2,1.6-3.2c0.6,0,1,0.4,1.2,0.9h0
		v-4.4h1.7v9.8h-1.7V296.2z M433.6,293.8c0-0.3,0-1.6-0.6-1.6c-0.6,0-0.6,1.3-0.6,1.6c0,0.4,0,1.7,0.6,1.7
		C433.5,295.4,433.6,294.1,433.6,293.8z"/>
</g>
<g>
	<g>
		<path fill="#231F20" d="M569.8,372.3v1.7h-1.9v2h1.7v1.7h-1.7v3.8h-1.8v-9.2H569.8z"/>
		<path fill="#231F20" d="M572.7,375.3v0.7h0c0.3-0.5,0.7-0.9,1.4-1v1.7c-0.1,0-0.2,0-0.3,0c-1.1,0-1.2,0.8-1.2,1.7v3.1H571v-6.2
			H572.7z"/>
		<path fill="#231F20" d="M579.7,378.4c0,1.6-0.5,3.2-2.3,3.2c-1.8,0-2.3-1.6-2.3-3.2c0-1.6,0.5-3.2,2.3-3.2
			C579.2,375.2,579.7,376.8,579.7,378.4z M576.8,378.4c0,0.4,0,1.7,0.6,1.7c0.6,0,0.6-1.3,0.6-1.7s0-1.7-0.6-1.7
			C576.8,376.7,576.8,378,576.8,378.4z"/>
		<path fill="#231F20" d="M582.5,376.2L582.5,376.2c0.3-0.6,0.8-1.1,1.5-1.1c1.3,0,1.2,1.4,1.2,2.3v4h-1.7v-3.4
			c0-0.3,0.1-1.2-0.4-1.2c-0.4,0-0.5,0.4-0.5,0.7v3.8h-1.7v-6.2h1.7V376.2z"/>
		<path fill="#231F20" d="M588.5,373.6v1.7h0.7v1.4h-0.7v4.7h-1.7v-4.7h-0.6v-1.4h0.6v-1.7H588.5z"/>
		<path fill="#231F20" d="M598.4,374c-0.2-0.1-0.5-0.1-0.7-0.1c-1.6,0-2.3,1.5-2.3,2.9c0,1.4,0.7,3,2.3,3c0.2,0,0.5-0.1,0.7-0.1v1.7
			c-0.3,0.1-0.5,0.2-0.8,0.2c-2.6,0-4.1-2.4-4.1-4.8c0-2.3,1.5-4.6,4-4.6c0.3,0,0.6,0.1,0.9,0.2V374z"/>
		<path fill="#231F20" d="M602.1,380.8L602.1,380.8c-0.3,0.5-0.6,0.8-1.2,0.8c-1.4,0-1.7-2.2-1.7-3.2c0-1.1,0.2-3.2,1.6-3.2
			c0.6,0,1,0.4,1.2,0.9h0v-0.8h1.7v6.2h-1.7V380.8z M602.3,378.3c0-0.3,0-1.6-0.6-1.6c-0.6,0-0.6,1.3-0.6,1.6c0,0.4,0,1.7,0.6,1.7
			C602.2,380,602.3,378.7,602.3,378.3z"/>
		<path fill="#231F20" d="M605,371.6h1.7v4.4h0c0.2-0.5,0.6-0.9,1.1-0.9c1.5,0,1.6,2.1,1.6,3.2c0,1-0.3,3.2-1.7,3.2
			c-0.6,0-0.9-0.4-1.1-0.8h0v0.7H605V371.6z M607.8,378.3c0-0.4,0-1.6-0.6-1.6c-0.6,0-0.6,1.3-0.6,1.6c0,0.3,0,1.7,0.6,1.7
			C607.8,380,607.8,378.7,607.8,378.3z"/>
		<path fill="#231F20" d="M613.3,380.8L613.3,380.8c-0.3,0.5-0.6,0.8-1.2,0.8c-1.4,0-1.7-2.2-1.7-3.2c0-1.1,0.2-3.2,1.6-3.2
			c0.6,0,1,0.4,1.2,0.9h0v-0.8h1.7v6.2h-1.7V380.8z M613.4,378.3c0-0.3,0-1.6-0.6-1.6c-0.6,0-0.6,1.3-0.6,1.6c0,0.4,0,1.7,0.6,1.7
			C613.4,380,613.4,378.7,613.4,378.3z"/>
		<path fill="#231F20" d="M617.9,375.3v0.7h0c0.3-0.5,0.7-0.9,1.4-1v1.7c-0.1,0-0.2,0-0.3,0c-1.1,0-1.2,0.8-1.2,1.7v3.1h-1.7v-6.2
			H617.9z"/>
		<path fill="#231F20" d="M624.6,378.8h-2.7c0,0.5,0,1.4,0.6,1.4c0.4,0,0.5-0.3,0.5-0.7h1.5c-0.1,1.1-0.7,2-2,2
			c-1.7,0-2.4-1.5-2.4-3.1c0-1.5,0.5-3.3,2.3-3.3c1.1,0,2.2,1,2.1,3L624.6,378.8z M623.1,377.6c0-0.4-0.1-1.1-0.6-1.1
			c-0.5,0-0.6,0.7-0.6,1.1v0.2h1.3V377.6z"/>
		<path fill="#231F20" d="M627.9,373.6v1.7h0.7v1.4h-0.7v4.7h-1.7v-4.7h-0.6v-1.4h0.6v-1.7H627.9z"/>
	</g>
</g>
<g>
	<g>
		<path fill="#231F20" d="M482.3,445.4v-9.2h1.8c1.2,0,3.2,0.1,3.2,2.6c0,1-0.4,1.9-1.3,2.4l1.6,4.2h-1.9l-1.6-4.2h0v4.2H482.3z
			 M484.2,440.2l0.3,0c0.8,0,1.2-0.6,1.2-1.3c0-0.7-0.3-1.2-1.2-1.1h-0.2V440.2z"/>
		<path fill="#231F20" d="M493.1,442.8h-2.7c0,0.5,0,1.4,0.6,1.4c0.4,0,0.5-0.3,0.5-0.7h1.5c-0.1,1.1-0.7,2-2,2
			c-1.7,0-2.4-1.5-2.4-3.1c0-1.5,0.5-3.3,2.3-3.3c1.1,0,2.2,1,2.1,3L493.1,442.8z M491.7,441.6c0-0.4-0.1-1.1-0.6-1.1
			c-0.5,0-0.6,0.7-0.6,1.1v0.2h1.3V441.6z"/>
		<path fill="#231F20" d="M496.9,444.7L496.9,444.7c-0.3,0.5-0.6,0.8-1.2,0.8c-1.4,0-1.7-2.2-1.7-3.2c0-1.1,0.2-3.2,1.6-3.2
			c0.6,0,1,0.4,1.2,0.9h0v-0.8h1.7v6.2h-1.7V444.7z M497.1,442.3c0-0.3,0-1.6-0.6-1.6c-0.6,0-0.6,1.3-0.6,1.6c0,0.4,0,1.7,0.6,1.7
			C497,444,497.1,442.7,497.1,442.3z"/>
		<path fill="#231F20" d="M501.5,439.3v0.7h0c0.3-0.5,0.7-0.9,1.4-1v1.7c-0.1,0-0.2,0-0.3,0c-1.1,0-1.2,0.8-1.2,1.7v3.1h-1.7v-6.2
			H501.5z"/>
		<path fill="#231F20" d="M512.1,438c-0.2-0.1-0.5-0.1-0.7-0.1c-1.6,0-2.3,1.5-2.3,2.9c0,1.4,0.7,3,2.3,3c0.2,0,0.5-0.1,0.7-0.1v1.7
			c-0.3,0.1-0.5,0.2-0.8,0.2c-2.6,0-4.1-2.4-4.1-4.8c0-2.3,1.5-4.6,4-4.6c0.3,0,0.6,0.1,0.9,0.2V438z"/>
		<path fill="#231F20" d="M515.8,444.7L515.8,444.7c-0.3,0.5-0.6,0.8-1.2,0.8c-1.4,0-1.7-2.2-1.7-3.2c0-1.1,0.2-3.2,1.6-3.2
			c0.6,0,1,0.4,1.2,0.9h0v-0.8h1.7v6.2h-1.7V444.7z M515.9,442.3c0-0.3,0-1.6-0.6-1.6c-0.6,0-0.6,1.3-0.6,1.6c0,0.4,0,1.7,0.6,1.7
			C515.9,444,515.9,442.7,515.9,442.3z"/>
		<path fill="#231F20" d="M518.6,435.6h1.7v4.4h0c0.2-0.5,0.6-0.9,1.1-0.9c1.5,0,1.6,2.1,1.6,3.2c0,1-0.3,3.2-1.7,3.2
			c-0.6,0-0.9-0.4-1.1-0.8h0v0.7h-1.7V435.6z M521.5,442.3c0-0.4,0-1.6-0.6-1.6c-0.6,0-0.6,1.3-0.6,1.6c0,0.3,0,1.7,0.6,1.7
			C521.4,444,521.5,442.7,521.5,442.3z"/>
		<path fill="#231F20" d="M526.9,444.7L526.9,444.7c-0.3,0.5-0.6,0.8-1.2,0.8c-1.4,0-1.7-2.2-1.7-3.2c0-1.1,0.2-3.2,1.6-3.2
			c0.6,0,1,0.4,1.2,0.9h0v-0.8h1.7v6.2h-1.7V444.7z M527.1,442.3c0-0.3,0-1.6-0.6-1.6c-0.6,0-0.6,1.3-0.6,1.6c0,0.4,0,1.7,0.6,1.7
			C527,444,527.1,442.7,527.1,442.3z"/>
		<path fill="#231F20" d="M531.5,439.3v0.7h0c0.3-0.5,0.7-0.9,1.4-1v1.7c-0.1,0-0.2,0-0.3,0c-1.1,0-1.2,0.8-1.2,1.7v3.1h-1.7v-6.2
			H531.5z"/>
		<path fill="#231F20" d="M538.2,442.8h-2.7c0,0.5,0,1.4,0.6,1.4c0.4,0,0.5-0.3,0.5-0.7h1.5c-0.1,1.1-0.7,2-2,2
			c-1.7,0-2.4-1.5-2.4-3.1c0-1.5,0.5-3.3,2.3-3.3c1.1,0,2.2,1,2.1,3L538.2,442.8z M536.8,441.6c0-0.4-0.1-1.1-0.6-1.1
			c-0.5,0-0.6,0.7-0.6,1.1v0.2h1.3V441.6z"/>
		<path fill="#231F20" d="M541.6,437.6v1.7h0.7v1.4h-0.7v4.7h-1.7v-4.7h-0.6v-1.4h0.6v-1.7H541.6z"/>
	</g>
</g>
<g>
	<g>
		<path fill="#231F20" d="M317,119.5c-0.2-0.1-0.5-0.1-0.7-0.1c-1.6,0-2.3,1.5-2.3,2.9c0,1.4,0.7,3,2.3,3c0.2,0,0.5-0.1,0.7-0.1v1.7
			c-0.3,0.1-0.5,0.2-0.8,0.2c-2.6,0-4.1-2.4-4.1-4.8c0-2.3,1.5-4.6,4-4.6c0.3,0,0.6,0.1,0.9,0.2V119.5z"/>
		<path fill="#231F20" d="M322.3,124.4h-2.7c0,0.5,0,1.4,0.6,1.4c0.4,0,0.5-0.3,0.5-0.7h1.5c-0.1,1.1-0.7,2-2,2
			c-1.7,0-2.4-1.5-2.4-3.1c0-1.5,0.5-3.3,2.3-3.3c1.1,0,2.2,1,2.1,3L322.3,124.4z M320.9,123.2c0-0.4-0.1-1.1-0.6-1.1
			c-0.5,0-0.6,0.7-0.6,1.1v0.2h1.3V123.2z"/>
		<path fill="#231F20" d="M325.1,121.8L325.1,121.8c0.3-0.6,0.8-1.1,1.5-1.1c1.3,0,1.2,1.4,1.2,2.3v4H326v-3.4
			c0-0.3,0.1-1.2-0.4-1.2c-0.4,0-0.5,0.4-0.5,0.7v3.8h-1.7v-6.2h1.7V121.8z"/>
		<path fill="#231F20" d="M331.1,119.1v1.7h0.7v1.4h-0.7v4.7h-1.7v-4.7h-0.6v-1.4h0.6v-1.7H331.1z"/>
		<path fill="#231F20" d="M337.2,124.4h-2.7c0,0.5,0,1.4,0.6,1.4c0.4,0,0.5-0.3,0.5-0.7h1.5c-0.1,1.1-0.7,2-2,2
			c-1.7,0-2.4-1.5-2.4-3.1c0-1.5,0.5-3.3,2.3-3.3c1.1,0,2.2,1,2.1,3L337.2,124.4z M335.7,123.2c0-0.4-0.1-1.1-0.6-1.1
			c-0.5,0-0.6,0.7-0.6,1.1v0.2h1.3V123.2z"/>
		<path fill="#231F20" d="M340,120.9v0.7h0c0.3-0.5,0.7-0.9,1.4-1v1.7c-0.1,0-0.2,0-0.3,0c-1.1,0-1.2,0.8-1.2,1.7v3.1h-1.7v-6.2H340
			z"/>
		<path fill="#231F20" d="M345.9,127v-9.2h1.8c0.7,0,1.3,0,1.9,0.5c0.6,0.5,0.9,1.3,0.9,2.1c0,0.8-0.3,1.4-1,1.9
			c0.8,0.4,1.1,1.3,1.1,2.1c0,1.8-1.3,2.6-3,2.6H345.9z M347.8,119.3v2.2c0.7,0,1.1-0.5,1.1-1.2
			C348.8,119.8,348.4,119.3,347.8,119.3z M347.8,123v2.5c0.7,0,1.2-0.5,1.2-1.3C348.9,123.5,348.5,123,347.8,123z"/>
		<path fill="#231F20" d="M354.6,126.3L354.6,126.3c-0.3,0.5-0.6,0.8-1.2,0.8c-1.4,0-1.7-2.2-1.7-3.2c0-1.1,0.2-3.2,1.6-3.2
			c0.6,0,1,0.4,1.2,0.9h0v-0.8h1.7v6.2h-1.7V126.3z M354.7,123.9c0-0.3,0-1.6-0.6-1.6c-0.6,0-0.6,1.3-0.6,1.6c0,0.4,0,1.7,0.6,1.7
			C354.7,125.6,354.7,124.2,354.7,123.9z"/>
		<path fill="#231F20" d="M359.2,117.2v9.8h-1.7v-9.8H359.2z"/>
		<path fill="#231F20" d="M363.4,126.9c-0.3,0.1-0.6,0.2-1,0.2c-1.7,0-2.3-1.8-2.3-3.2c0-1.5,0.6-3.2,2.4-3.2c0.3,0,0.6,0.1,0.9,0.2
			v1.5c-0.2-0.1-0.3-0.2-0.5-0.2c-0.8,0-1,1-1,1.6c0,0.7,0.1,1.6,1,1.6c0.2,0,0.4-0.1,0.5-0.2V126.9z"/>
		<path fill="#231F20" d="M369,123.9c0,1.6-0.5,3.2-2.3,3.2s-2.3-1.6-2.3-3.2s0.5-3.2,2.3-3.2S369,122.4,369,123.9z M366.1,123.9
			c0,0.4,0,1.7,0.6,1.7c0.6,0,0.6-1.3,0.6-1.7s0-1.7-0.6-1.7C366.1,122.3,366.1,123.6,366.1,123.9z"/>
		<path fill="#231F20" d="M371.8,121.8L371.8,121.8c0.3-0.6,0.8-1.1,1.5-1.1c1.3,0,1.2,1.4,1.2,2.3v4h-1.7v-3.4
			c0-0.3,0.1-1.2-0.4-1.2c-0.4,0-0.5,0.4-0.5,0.7v3.8h-1.7v-6.2h1.7V121.8z"/>
		<path fill="#231F20" d="M377,120.9l0.6,2.5l0.2,1h0l0.8-3.5h1.7l-2.6,9.2h-1.7l1-3.2l-1.8-6H377z"/>
	</g>
</g>
<g>
	<g>
		<path d="M312.5,159.8v-9.2h1.8c1.2,0,3.2,0.1,3.2,2.6c0,1-0.4,1.9-1.3,2.4l1.6,4.2h-1.9l-1.6-4.2h0v4.2H312.5z M314.3,154.5l0.3,0
			c0.8,0,1.2-0.6,1.2-1.3c0-0.7-0.3-1.2-1.2-1.1h-0.2V154.5z"/>
		<path d="M323.3,157.2h-2.7c0,0.5,0,1.4,0.6,1.4c0.4,0,0.5-0.3,0.5-0.7h1.5c-0.1,1.1-0.7,2-2,2c-1.7,0-2.4-1.5-2.4-3.1
			c0-1.5,0.5-3.3,2.3-3.3c1.1,0,2.2,1,2.1,3L323.3,157.2z M321.8,155.9c0-0.4-0.1-1.1-0.6-1.1c-0.5,0-0.6,0.7-0.6,1.1v0.2h1.3V155.9
			z"/>
		<path d="M327.1,159.1L327.1,159.1c-0.3,0.5-0.6,0.8-1.2,0.8c-1.4,0-1.7-2.2-1.7-3.2c0-1.1,0.2-3.2,1.6-3.2c0.6,0,1,0.4,1.2,0.9h0
			v-0.8h1.7v6.2h-1.7V159.1z M327.2,156.7c0-0.3,0-1.6-0.6-1.6c-0.6,0-0.6,1.3-0.6,1.6c0,0.4,0,1.7,0.6,1.7
			C327.1,158.3,327.2,157,327.2,156.7z"/>
		<path d="M331.7,153.6v0.7h0c0.3-0.5,0.7-0.9,1.4-1v1.7c-0.1,0-0.2,0-0.3,0c-1.1,0-1.2,0.8-1.2,1.7v3.1h-1.7v-6.2H331.7z"/>
		<path d="M337.6,159.8v-9.2h1.8c0.7,0,1.3,0,1.9,0.5c0.6,0.5,0.9,1.3,0.9,2.1c0,0.8-0.3,1.4-1,1.9c0.8,0.4,1.1,1.3,1.1,2.1
			c0,1.8-1.3,2.6-3,2.6H337.6z M339.4,152.1v2.2c0.7,0,1.1-0.5,1.1-1.2C340.5,152.5,340.1,152.1,339.4,152.1z M339.4,155.8v2.5
			c0.7,0,1.2-0.5,1.2-1.3C340.6,156.3,340.1,155.7,339.4,155.8z"/>
		<path d="M346.2,159.1L346.2,159.1c-0.3,0.5-0.6,0.8-1.2,0.8c-1.4,0-1.7-2.2-1.7-3.2c0-1.1,0.2-3.2,1.6-3.2c0.6,0,1,0.4,1.2,0.9h0
			v-0.8h1.7v6.2h-1.7V159.1z M346.4,156.7c0-0.3,0-1.6-0.6-1.6c-0.6,0-0.6,1.3-0.6,1.6c0,0.4,0,1.7,0.6,1.7
			C346.3,158.3,346.4,157,346.4,156.7z"/>
		<path d="M350.8,149.9v9.8h-1.7v-9.8H350.8z"/>
		<path d="M355.1,159.7c-0.3,0.1-0.6,0.2-1,0.2c-1.7,0-2.3-1.8-2.3-3.2c0-1.5,0.6-3.2,2.4-3.2c0.3,0,0.6,0.1,0.9,0.2v1.5
			c-0.2-0.1-0.3-0.2-0.5-0.2c-0.8,0-1,1-1,1.6c0,0.7,0.1,1.6,1,1.6c0.2,0,0.4-0.1,0.5-0.2V159.7z"/>
		<path d="M360.7,156.7c0,1.6-0.5,3.2-2.3,3.2s-2.3-1.6-2.3-3.2s0.5-3.2,2.3-3.2S360.7,155.1,360.7,156.7z M357.7,156.7
			c0,0.4,0,1.7,0.6,1.7c0.6,0,0.6-1.3,0.6-1.7s0-1.7-0.6-1.7C357.7,155,357.7,156.4,357.7,156.7z"/>
		<path d="M363.4,154.6L363.4,154.6c0.3-0.6,0.8-1.1,1.5-1.1c1.3,0,1.2,1.4,1.2,2.3v4h-1.7v-3.4c0-0.3,0.1-1.2-0.4-1.2
			c-0.4,0-0.5,0.4-0.5,0.7v3.8h-1.7v-6.2h1.7V154.6z"/>
		<path d="M368.7,153.6l0.6,2.5l0.2,1h0l0.8-3.5h1.7l-2.6,9.2h-1.7l1-3.2l-1.8-6H368.7z"/>
	</g>
</g>
<rect x="416.7" y="110.6" fill="#C37DB2" width="32.4" height="22.5"/>
<g>
	<path fill="#FFFFFF" d="M429.6,126.6v-10.3h2.1c1.3,0,3.6,0.1,3.6,3c0,1.1-0.5,2.1-1.5,2.7l1.8,4.7h-2.2l-1.8-4.8h0v4.8H429.6z
		 M431.6,120.7l0.4,0c0.9,0,1.3-0.6,1.3-1.5c0-0.7-0.4-1.3-1.4-1.3h-0.3V120.7z"/>
</g>
<g>
	<g>
		<path fill="#231F20" d="M459.6,119.9c-0.4-0.3-0.8-0.6-1.3-0.6c-0.6,0-0.9,0.3-0.9,0.9c0,1.5,2.8,1.6,2.8,4.1
			c0,1.6-0.9,2.9-2.6,2.9c-0.5,0-1.1-0.2-1.6-0.5V125c0.4,0.3,0.8,0.5,1.4,0.5c0.6,0,1-0.4,1-1c0-0.7-0.6-1-1.1-1.3
			c-1-0.7-1.7-1.4-1.7-2.7c0-1.5,0.8-2.7,2.4-2.7c0.6,0,1.1,0.2,1.6,0.5V119.9z"/>
		<path fill="#231F20" d="M461,119c0-0.6,0.5-1.1,1.1-1.1c0.6,0,1.1,0.5,1.1,1.1c0,0.6-0.5,1.1-1.1,1.1
			C461.5,120.1,461,119.6,461,119z M462.9,120.9v6.2h-1.7v-6.2H462.9z"/>
		<path fill="#231F20" d="M466.8,126.3L466.8,126.3c-0.3,0.5-0.6,0.8-1.2,0.8c-1.4,0-1.7-2.2-1.7-3.2c0-1.1,0.2-3.2,1.6-3.2
			c0.6,0,1,0.4,1.2,0.9h0v-4.4h1.7v9.8h-1.7V126.3z M466.9,123.9c0-0.3,0-1.6-0.6-1.6c-0.6,0-0.6,1.3-0.6,1.6c0,0.4,0,1.7,0.6,1.7
			C466.9,125.6,466.9,124.2,466.9,123.9z"/>
		<path fill="#231F20" d="M473.9,124.4h-2.7c0,0.5,0,1.4,0.6,1.4c0.4,0,0.5-0.3,0.5-0.7h1.5c-0.1,1.1-0.7,2-2,2
			c-1.7,0-2.4-1.5-2.4-3.1c0-1.5,0.5-3.3,2.3-3.3c1.1,0,2.2,1,2.1,3L473.9,124.4z M472.5,123.2c0-0.4-0.1-1.1-0.6-1.1
			c-0.5,0-0.6,0.7-0.6,1.1v0.2h1.3V123.2z"/>
		<path fill="#231F20" d="M481.2,117.2l-4.8,11.9H475l4.8-11.9H481.2z"/>
		<path fill="#231F20" d="M486.8,119.5c-0.2-0.1-0.5-0.1-0.7-0.1c-1.6,0-2.3,1.5-2.3,2.9c0,1.4,0.7,3,2.3,3c0.2,0,0.5-0.1,0.7-0.1
			v1.7c-0.3,0.1-0.5,0.2-0.8,0.2c-2.6,0-4.1-2.4-4.1-4.8c0-2.3,1.5-4.6,4-4.6c0.3,0,0.6,0.1,0.9,0.2V119.5z"/>
		<path fill="#231F20" d="M492.1,124.4h-2.7c0,0.5,0,1.4,0.6,1.4c0.4,0,0.5-0.3,0.5-0.7h1.5c-0.1,1.1-0.7,2-2,2
			c-1.7,0-2.4-1.5-2.4-3.1c0-1.5,0.5-3.3,2.3-3.3c1.1,0,2.2,1,2.1,3L492.1,124.4z M490.6,123.2c0-0.4-0.1-1.1-0.6-1.1
			c-0.5,0-0.6,0.7-0.6,1.1v0.2h1.3V123.2z"/>
		<path fill="#231F20" d="M494.9,121.8L494.9,121.8c0.3-0.6,0.8-1.1,1.5-1.1c1.3,0,1.2,1.4,1.2,2.3v4h-1.7v-3.4
			c0-0.3,0.1-1.2-0.4-1.2c-0.4,0-0.5,0.4-0.5,0.7v3.8h-1.7v-6.2h1.7V121.8z"/>
		<path fill="#231F20" d="M500.9,119.1v1.7h0.7v1.4h-0.7v4.7h-1.7v-4.7h-0.6v-1.4h0.6v-1.7H500.9z"/>
		<path fill="#231F20" d="M507,124.4h-2.7c0,0.5,0,1.4,0.6,1.4c0.4,0,0.5-0.3,0.5-0.7h1.5c-0.1,1.1-0.7,2-2,2
			c-1.7,0-2.4-1.5-2.4-3.1c0-1.5,0.5-3.3,2.3-3.3c1.1,0,2.2,1,2.1,3L507,124.4z M505.5,123.2c0-0.4-0.1-1.1-0.6-1.1
			c-0.5,0-0.6,0.7-0.6,1.1v0.2h1.3V123.2z"/>
		<path fill="#231F20" d="M509.8,120.9v0.7h0c0.3-0.5,0.7-0.9,1.4-1v1.7c-0.1,0-0.2,0-0.3,0c-1.1,0-1.2,0.8-1.2,1.7v3.1H508v-6.2
			H509.8z"/>
	</g>
</g>
<g>
	<g>
		<path fill="#231F20" d="M498.1,168.8l0.9,5.4h0l0.7-5.4h2.4l1,9.2h-1.9l-0.4-6.6h0l-0.3,2.3l-0.8,4.4h-1.4l-0.9-4.4l-0.3-2v-0.2h0
			l-0.3,6.6h-2l0.8-9.2H498.1z"/>
		<path fill="#231F20" d="M506.9,177.3L506.9,177.3c-0.3,0.5-0.6,0.8-1.2,0.8c-1.4,0-1.7-2.2-1.7-3.2c0-1.1,0.2-3.2,1.6-3.2
			c0.6,0,1,0.4,1.2,0.9h0v-0.8h1.7v6.2h-1.7V177.3z M507,174.9c0-0.3,0-1.6-0.6-1.6c-0.6,0-0.6,1.3-0.6,1.6c0,0.4,0,1.7,0.6,1.7
			C507,176.6,507,175.3,507,174.9z"/>
		<path fill="#231F20" d="M511.2,178.9c0,0.4,0.1,0.9,0.6,0.9c0.8,0,0.7-1.2,0.7-1.7v-0.8h0c-0.2,0.5-0.5,0.9-1.1,0.9
			c-0.6,0-1.1-0.5-1.3-1c-0.3-0.6-0.4-1.4-0.4-2.1c0-1.1,0.2-3.3,1.7-3.3c0.6,0,1,0.4,1.2,0.9h0v-0.7h1.7v6.7c0,1.8-0.8,2.5-2.3,2.5
			c-1.5,0-2.1-0.8-2.2-2.2H511.2z M512.6,174.9c0-0.3,0-1.6-0.6-1.6c-0.6,0-0.6,1.3-0.6,1.6c0,0.4,0,1.7,0.6,1.7
			C512.6,176.6,512.6,175.3,512.6,174.9z"/>
		<path fill="#231F20" d="M517.1,172.8L517.1,172.8c0.3-0.6,0.8-1.1,1.5-1.1c1.3,0,1.2,1.4,1.2,2.3v4H518v-3.4
			c0-0.3,0.1-1.2-0.4-1.2c-0.4,0-0.5,0.4-0.5,0.7v3.8h-1.7v-6.2h1.7V172.8z"/>
		<path fill="#231F20" d="M520.6,170c0-0.6,0.5-1.1,1.1-1.1c0.6,0,1.1,0.5,1.1,1.1c0,0.6-0.5,1.1-1.1,1.1
			C521.1,171.2,520.6,170.7,520.6,170z M522.6,171.9v6.2h-1.7v-6.2H522.6z"/>
		<path fill="#231F20" d="M525.4,172.8L525.4,172.8c0.3-0.6,0.8-1.1,1.5-1.1c1.3,0,1.2,1.4,1.2,2.3v4h-1.7v-3.4
			c0-0.3,0.1-1.2-0.4-1.2c-0.4,0-0.5,0.4-0.5,0.7v3.8h-1.7v-6.2h1.7V172.8z"/>
		<path fill="#231F20" d="M532.7,178v-9.2h1.8c0.7,0,1.3,0,1.9,0.5c0.6,0.5,0.9,1.3,0.9,2.1c0,0.8-0.3,1.4-1,1.9
			c0.8,0.4,1.1,1.3,1.1,2.1c0,1.8-1.3,2.6-3,2.6H532.7z M534.5,170.4v2.2c0.7,0,1.1-0.5,1.1-1.2
			C535.6,170.8,535.2,170.3,534.5,170.4z M534.5,174v2.5c0.7,0,1.2-0.5,1.2-1.3C535.7,174.5,535.2,174,534.5,174z"/>
		<path fill="#231F20" d="M543.2,175c0,1.6-0.5,3.2-2.3,3.2c-1.8,0-2.3-1.6-2.3-3.2s0.5-3.2,2.3-3.2
			C542.7,171.8,543.2,173.4,543.2,175z M540.2,175c0,0.4,0,1.7,0.6,1.7c0.6,0,0.6-1.3,0.6-1.7s0-1.7-0.6-1.7
			C540.3,173.3,540.2,174.6,540.2,175z"/>
		<path fill="#231F20" d="M546.1,171.9l0.5,0.9l0.2,0.4l0.7-1.3h1.8l-1.6,2.8l1.8,3.3h-1.8l-0.9-1.7l-0.9,1.7h-1.8l1.8-3.3l-1.5-2.8
			H546.1z"/>
	</g>
</g>
</svg>
