<?xml version="1.0" encoding="utf-8"?>
<!-- Generator: Adobe Illustrator 18.1.0, SVG Export Plug-In . SVG Version: 6.00 Build 0)  -->
<svg version="1.1" id="Layer_1"
	 xmlns="http://www.w3.org/2000/svg" xmlns:xlink="http://www.w3.org/1999/xlink" x="0px" y="0px" viewBox="0 0 612 792"
	 enable-background="new 0 0 612 792" xml:space="preserve">
<g id="Layer_1_1_">
	<path d="M276.3,565.5H30.4V135.1h74.1v47.1h102.7v-47.1h69.1V565.5L276.3,565.5z M32.6,563.3H274V137.4h-64.6v47.1H102.2v-47.1
		H32.6V563.3z"/>
	<rect x="30.6" y="388.7" width="243.9" height="2.3"/>
	<rect x="31.5" y="495.5" width="72.8" height="2.3"/>
	<rect x="203.8" y="494.6" width="72.8" height="2.3"/>
	<rect x="110.4" y="554.7" width="86.1" height="2.3"/>
	<path d="M583,565.5H334.3V174.8h41v200.8h168.9V174.8h38.5v390.8L583,565.5L583,565.5z M336.6,563.3h243.9V177h-34v200.8H373.1V177
		h-36.5V563.3z"/>
	<rect x="374.5" y="333.4" width="171.1" height="2.3"/>
	<rect x="335.5" y="468.1" width="245.5" height="2.3"/>
	<path d="M511.1,182.9H405.5v-47.8h105.6V182.9z M407.8,180.7h101.1v-43.3H407.8V180.7z"/>
	<g>
		<path d="M434.1,156c0-1.6-0.2-3.4-2-3.4c-1.1,0-1.8,0.5-1.8,1.8c0,1.4,0.9,2,2,2.7s3.2,2,4.3,2.9c1.1,1.1,1.6,2.3,1.6,3.9
			c0,3.6-2.3,5.4-5.7,5.4c-4.1,0-5.7-2.3-5.7-5.7v-1.4h3.4v1.1c0,1.8,0.5,3.2,2.3,3.2c1.4,0,2.3-0.7,2.3-2.3c0-1.1-0.5-1.8-1.4-2.5
			c-1.8-1.4-4.1-2.5-5.4-4.3c-0.7-0.9-0.9-1.8-0.9-2.9c0-3.2,1.8-5,5.4-5c5.4,0,5.4,4.3,5.4,6.1H434v0.4H434.1z"/>
		<path d="M438.8,150.3h11.6v2.7h-3.9v15.9h-3.4V153H439v-2.7H438.8z"/>
		<path d="M449.3,168.9l4.5-18.6h4.8l4.3,18.6h-3.6l-0.9-4.8h-4.1l-0.9,4.8H449.3z M454.5,161.4h2.9l-0.9-5.2
			c-0.2-0.9-0.2-1.8-0.5-2.5c0-0.5,0-0.9-0.2-1.1l0,0c0,0.5,0,0.9-0.2,1.1c0,0.9-0.2,1.8-0.5,2.5L454.5,161.4z"/>
		<path d="M463.8,158.2c0.2-4.8,0.5-8.2,6.1-8.2c2.9,0,5,0.9,5.9,4.1c0.2,0.7,0.2,1.6,0.2,2.3h-3.4c0-1.8-0.2-3.4-2.5-3.4
			c-2.7,0-2.5,3.2-2.5,4.8v4.8c0,1.6,0.2,4.1,2.5,4.1c2,0,2.7-2,2.5-5h-2.5V159h5.7v10h-2.5v-2l0,0c-0.7,2-2,2.5-3.2,2.5
			c-5.7,0-6.1-3.6-6.1-8.6v-2.5h-0.2V158.2z"/>
		<path d="M478.5,168.9v-18.6h9.7v2.7h-6.3v4.8h5.9v2.7h-5.9v5.7h6.3v2.7L478.5,168.9L478.5,168.9z"/>
	</g>
	<g>
		<path d="M131.9,156c0-1.6-0.2-3.4-2-3.4c-1.1,0-1.8,0.5-1.8,1.8c0,1.4,0.9,2,2,2.7s3.2,2,4.3,2.9c1.1,1.1,1.6,2.3,1.6,3.9
			c0,3.6-2.3,5.4-5.7,5.4c-4.1,0-5.7-2.3-5.7-5.7v-1.4h3.4v1.1c0,1.8,0.5,3.2,2.3,3.2c1.4,0,2.3-0.7,2.3-2.3c0-1.1-0.5-1.8-1.4-2.5
			c-1.8-1.4-4.1-2.5-5.4-4.3c-0.7-0.9-0.9-1.8-0.9-2.9c0-3.2,1.8-5,5.4-5c5.4,0,5.4,4.3,5.4,6.1h-3.9L131.9,156L131.9,156z"/>
		<path d="M136.9,150.3h11.6v2.7h-4.1v15.9H141V153h-4.1V150.3z"/>
		<path d="M147.3,168.9l4.5-18.6h4.5l4.3,18.6H157l-0.9-4.8h-4.3l-0.9,4.8H147.3z M152.3,161.4h2.9l-0.9-5.2c0-0.9-0.2-1.8-0.2-2.7
			c0-0.5,0-0.9-0.2-1.1l0,0c0,0.5,0,0.9-0.2,1.1c0,0.9-0.2,1.8-0.5,2.5L152.3,161.4z"/>
		<path d="M161.6,158c0.2-4.8,0.5-8.2,6.1-8.2c2.9,0,5,0.9,5.9,4.1c0.2,0.7,0.2,1.6,0.2,2.3h-3.4c0-1.8-0.2-3.4-2.5-3.4
			c-2.7,0-2.5,3.2-2.5,4.8v5.2c0,1.6,0.2,4.1,2.5,4.1c2,0,2.7-2,2.5-5H168v-2.7h5.7v10h-2.5v-2l0,0c-0.7,2-2,2.5-3.2,2.5
			c-5.7,0-6.1-3.6-6.1-8.6V158H161.6z"/>
		<path d="M176.6,168.9v-18.6h9.7v2.7H180v4.8h5.9v2.5H180v5.7h6.3v2.7h-9.7V168.9z"/>
	</g>
	<g>
		<path d="M51.5,169.3V158h3.4c0.9,0,1.8,0,2.3,0.9c0.5,0.7,0.5,1.4,0.5,2c0,0.9-0.2,1.8-1.4,2.3l0,0c1.1,0.2,1.6,1.1,1.6,2.5
			c0,0.5,0,0.9-0.2,1.4c0,1.6-0.9,2.3-2.3,2.3L51.5,169.3L51.5,169.3z M53.9,162.5c0.5,0,1.1,0,1.6-0.5c0.2-0.2,0.2-0.7,0.2-1.1
			c0-0.9-0.2-1.4-1.1-1.4h-0.9v2.9h0.2V162.5z M54.2,167.5c0.5,0,0.9,0,1.4-0.2s0.7-0.9,0.7-1.6c0-1.1-0.2-1.8-1.6-1.8h-0.9v3.4h0.5
			v0.2H54.2z"/>
		<path d="M58.7,169.3l2.7-11.1h2.7l2.5,11.1h-2.3l-0.5-2.7h-2.5l-0.5,2.7H58.7z M61.9,164.8h1.6l-0.5-3.2c0-0.5-0.2-1.1-0.2-1.6
			c0-0.2,0-0.5,0-0.7l0,0c0,0.2,0,0.5,0,0.7c0,0.5,0,1.1-0.2,1.6L61.9,164.8z"/>
		<path d="M72.5,158h2v11.3h-2.3l-1.6-4.1c-0.5-1.4-0.9-2.7-1.6-4.5l0,0c0,0.9,0.2,2,0.2,3.2s0,2.3,0,3.2v2.3h-2V158h2.3l1.6,4.1
			c0.5,1.4,0.9,2.7,1.6,4.5l0,0c0-0.9-0.2-2-0.2-3.2c0-1.1,0-2,0-3.2C72.5,160.3,72.5,158,72.5,158z"/>
		<path d="M76.4,169.3V158h4.3c0.5,0,1.6,0.2,2.3,1.4c0.5,0.7,0.7,2,0.7,3.9c0,2.3,0,4.8-1.8,5.7c-0.5,0.2-1.1,0.2-1.6,0.2h-3.9
			V169.3z M79.3,167.5c1.8,0,2-0.9,2-4.3c0-2.7-0.2-3.6-1.6-3.6h-1.4v7.9L79.3,167.5L79.3,167.5z"/>
	</g>
	<g>
		<path d="M91.1,264.8v-15H99v2.3h-5v3.9h4.8v2.3H94v6.8h-2.9V264.8z"/>
		<path d="M103.1,258.4v6.3h-2.7v-15h5.2c2.5,0,4.3,0.9,4.3,3.6c0,1.6-0.5,3.4-2.3,3.6l0,0c1.6,0.2,2,1.4,2,2.7c0,0.7,0,4.3,0.7,4.8
			v0.2h-2.9c-0.2-0.9-0.2-2.7-0.2-3.9c0-0.9,0-2.3-0.9-2.5c-0.7-0.2-1.6-0.2-2.3-0.2h-0.9C103.1,258,103.1,258.4,103.1,258.4z
			 M103.1,256.1h2.3c0.9,0,1.6-0.7,1.6-2c0-1.6-0.7-2-1.8-2h-2L103.1,256.1L103.1,256.1z"/>
		<path d="M112,256.1c0.2-3.9,0.5-6.6,4.8-6.6c4.5,0,4.8,2.7,4.8,6.6v2c0,4.1-0.2,6.8-4.8,6.8s-4.8-2.9-4.8-6.8V256.1z M114.9,259.8
			c0,1.1,0,3.2,2,3.2s2-2,2-3.4v-3.9c0-1.1,0-3.9-2-3.9c-2.3,0-2,2.5-2,3.9V259.8z"/>
		<path d="M130.6,249.8h2.7v15h-2.9l-2.3-5.2c-0.7-1.8-1.4-3.6-2-5.9l0,0c0,1.1,0.2,2.7,0.2,4.3s0.2,2.9,0.2,4.1v2.7h-2.7v-15h2.9
			l2.3,5.4c0.7,1.8,1.4,3.4,2,5.9l0,0c0-1.4-0.2-2.7-0.2-4.3c0-1.4-0.2-2.9-0.2-4.1V249.8z"/>
		<path d="M134.6,249.8h9.3v2.3h-3.4v12.7h-2.7v-12.7h-3.2C134.6,252.1,134.6,249.8,134.6,249.8z"/>
		<path d="M158.4,259.5c0,0.2,0,0.7,0,0.9c-0.2,2.7-1.1,4.8-4.1,4.8c-4.5,0-4.8-2.9-4.8-6.8v-2c0.2-3.9,0.5-6.6,4.8-6.6
			c2.5,0,3.9,1.4,4.1,3.9c0,0.5,0,0.7,0,1.1h-2.7c-0.2-0.9,0-2.7-1.4-2.7c-2.3,0-2,2.5-2,3.9v4.1c0,1.1,0,3.2,2,3.2
			c1.6,0,1.4-2.5,1.4-3.4h2.7V259.5z"/>
		<path d="M159.1,264.8l3.6-15h3.9l3.4,15h-2.9l-0.7-3.9h-3.2l-0.7,3.9H159.1z M163.2,258.9h2.3l-0.7-4.3c-0.2-0.7-0.2-1.4-0.2-2
			c0-0.2,0-0.7,0-0.9l0,0c0,0.2,0,0.7,0,0.9c0,0.7-0.2,1.4-0.2,2L163.2,258.9z"/>
		<path d="M170.9,264.8v-15h4.5c1.1,0,2.3,0,3.2,1.1c0.7,0.9,0.7,1.6,0.7,2.7c0,1.4-0.2,2.5-1.8,3.2l0,0c1.6,0.2,2.3,1.6,2.3,3.4
			c0,0.7,0,1.1-0.2,1.8c-0.7,1.8-1.6,2.7-3.6,2.7h-5.1V264.8z M174.1,255.9c0.7,0,1.6,0,2-0.5c0.2-0.5,0.2-0.9,0.2-1.6
			c0-1.1-0.2-1.6-1.6-1.8h-1.4v3.9L174.1,255.9L174.1,255.9z M174.3,262.5c0.7,0,1.1,0,1.6-0.2c0.7-0.2,0.9-1.4,0.9-2
			c0-1.6-0.2-2.3-2-2.3h-1.1v4.5H174.3z"/>
		<path d="M180.4,264.8l3.6-15h3.9l3.4,15h-3.2l-0.7-3.9h-3.2l-0.7,3.9H180.4z M184.5,258.9h2.3l-0.7-4.3c-0.2-0.7-0.2-1.4-0.2-2
			c0-0.2,0-0.7,0-0.9l0,0c0,0.2,0,0.7,0,0.9c0,0.7-0.2,1.4-0.2,2L184.5,258.9z"/>
		<path d="M194.9,258.4v6.3h-2.7v-15h5.2c2.5,0,4.3,0.9,4.3,3.6c0,1.6-0.5,3.4-2.3,3.6l0,0c1.6,0.2,2,1.4,2,2.7c0,0.7,0,4.3,0.7,4.8
			v0.2h-2.9c-0.2-0.9-0.2-2.7-0.2-3.9c0-0.9,0-2.3-0.9-2.5c-0.7-0.2-1.6-0.2-2.3-0.2h-0.9L194.9,258.4L194.9,258.4z M194.9,256.1
			h2.3c0.9,0,1.6-0.7,1.6-2c0-1.6-0.7-2-1.8-2h-2v4H194.9z"/>
		<path d="M203.8,264.8v-15h7.7v2.3h-5v3.9h4.5v2.3h-4.5v4.5h5v2.3h-7.7V264.8z"/>
		<path d="M212.4,249.8h9.3v2.3h-3.2v12.7h-2.7v-12.7h-3.2v-2.3L212.4,249.8L212.4,249.8z"/>
	</g>
	<g>
		<path d="M99.1,423.9v6.3h-2.7v-15h5.2c2.5,0,4.3,0.9,4.3,3.6c0,1.6-0.5,3.4-2.3,3.6l0,0c1.6,0.2,2,1.4,2,2.7c0,0.7,0,4.3,0.7,4.8
			v0.2h-2.9c-0.2-0.9-0.2-2.7-0.2-3.9c0-0.9,0-2.3-0.9-2.5c-0.7-0.2-1.6-0.2-2.3-0.2h-0.9C99.1,423.5,99.1,423.9,99.1,423.9z
			 M99.1,421.6h2.3c0.9,0,1.6-0.7,1.6-2c0-1.6-0.7-2-1.8-2h-2L99.1,421.6L99.1,421.6z"/>
		<path d="M107.9,430.2v-15h7.7v2.3h-5v3.9h4.5v2.3h-4.5v4.5h5v2.3h-7.7V430.2z"/>
		<path d="M116.3,430.2l3.6-15h3.9l3.4,15h-2.9l-0.7-3.9h-3.2l-0.7,3.9H116.3z M120.4,424.3h2.5l-0.7-4.3c-0.2-0.7-0.2-1.4-0.2-2
			c0-0.5,0-0.7,0-0.9l0,0c0,0.2,0,0.7,0,0.9c0,0.7-0.2,1.4-0.2,2L120.4,424.3z"/>
		<path d="M130.8,423.9v6.3h-2.7v-15h5.2c2.5,0,4.3,0.9,4.3,3.6c0,1.6-0.5,3.4-2.3,3.6l0,0c1.6,0.2,2,1.4,2,2.7c0,0.7,0,4.3,0.7,4.8
			v0.2h-2.9c-0.2-0.9-0.2-2.7-0.2-3.9c0-0.9,0-2.3-0.9-2.5c-0.7-0.2-1.6-0.2-2.3-0.2h-0.9L130.8,423.9L130.8,423.9z M130.8,421.6
			h2.3c0.9,0,1.6-0.7,1.6-2c0-1.6-0.7-2-1.8-2h-2v4H130.8z"/>
		<path d="M153.2,425c0,0.2,0,0.7,0,0.9c-0.2,2.7-1.1,4.8-4.1,4.8c-4.5,0-4.8-2.9-4.8-6.8v-2c0.2-3.9,0.5-6.6,4.8-6.6
			c2.5,0,3.9,1.4,4.1,3.9c0,0.5,0,0.7,0,1.1h-2.7c-0.2-0.9,0-2.7-1.4-2.7c-2.3,0-2,2.5-2,3.9v4.1c0,1.1,0,3.2,2,3.2
			c1.6,0,1.4-2.5,1.4-3.4h2.7V425z"/>
		<path d="M153.9,430.2l3.6-15h3.9l3.4,15h-2.9l-0.7-3.9H158l-0.7,3.9H153.9z M158,424.3h2.3l-0.7-4.3c-0.2-0.7-0.2-1.4-0.2-2
			c0-0.5,0-0.7,0-0.9l0,0c0,0.2,0,0.7,0,0.9c0,0.7-0.2,1.4-0.2,2L158,424.3z"/>
		<path d="M165.7,430.2v-15h4.5c1.1,0,2.3,0,3.2,1.1c0.7,0.9,0.7,1.6,0.7,2.7c0,1.4-0.2,2.5-1.8,3.2l0,0c1.6,0.2,2.3,1.6,2.3,3.4
			c0,0.7,0,1.1-0.2,1.8c-0.7,1.8-1.6,2.7-3.6,2.7L165.7,430.2L165.7,430.2z M168.9,421.4c0.7,0,1.6,0,2-0.5c0.2-0.5,0.2-0.9,0.2-1.6
			c0-1.1-0.2-1.6-1.6-1.8h-1.4v3.9H168.9z M168.9,428.2c0.7,0,1.1,0,1.6-0.2c0.7-0.2,0.9-1.4,0.9-2c0-1.6-0.2-2.3-2-2.3h-1.1v4.5
			H168.9z"/>
		<path d="M175.2,430.2l3.6-15h3.9l3.4,15h-2.9l-0.7-3.9h-3.2l-0.7,3.9H175.2z M179.3,424.3h2.3l-0.7-4.3c-0.2-0.7-0.2-1.4-0.2-2
			c0-0.5,0-0.7,0-0.9l0,0c0,0.2,0,0.7,0,0.9c0,0.7-0.2,1.4-0.2,2L179.3,424.3z"/>
		<path d="M189.7,423.9v6.3H187v-15h5.2c2.5,0,4.3,0.9,4.3,3.6c0,1.6-0.5,3.4-2.3,3.6l0,0c1.6,0.2,2,1.4,2,2.7c0,0.7,0,4.3,0.7,4.8
			v0.2H194c-0.2-0.9-0.2-2.7-0.2-3.9c0-0.9,0-2.3-0.9-2.5c-0.7-0.2-1.6-0.2-2.3-0.2h-0.9L189.7,423.9L189.7,423.9z M189.7,421.6h2.3
			c0.9,0,1.6-0.7,1.6-2c0-1.6-0.7-2-1.8-2h-2L189.7,421.6L189.7,421.6z"/>
		<path d="M198.6,430.2v-15h7.7v2.3h-5v3.9h4.5v2.3h-4.5v4.5h5v2.3h-7.7V430.2z"/>
		<path d="M207.2,415.5h9.3v2.3h-3.4v12.7h-2.7v-12.7h-3.2L207.2,415.5L207.2,415.5z"/>
	</g>
	<g>
		<path d="M112,548.3v-11.1h5.9v1.6H114v2.7h3.6v1.6H114v5h-2V548.3z"/>
		<path d="M121,543.6v4.8h-2v-11.1h3.9c1.8,0,3.2,0.7,3.2,2.7c0,1.1-0.2,2.5-1.8,2.7l0,0c1.1,0.2,1.6,0.9,1.6,2c0,0.5,0,3.2,0.5,3.6
			v0.2H124c-0.2-0.7-0.2-2-0.2-2.7s0-1.6-0.7-1.8c-0.5-0.2-1.1-0.2-1.8-0.2H121V543.6z M121,542h1.6c0.7,0,1.1-0.5,1.1-1.6
			c0-1.4-0.5-1.4-1.4-1.4h-1.6v2.9L121,542L121,542z"/>
		<path d="M127.6,542c0-2.9,0.2-5,3.6-5c3.4,0,3.6,2,3.6,5v1.6c0,2.9-0.2,5.2-3.6,5.2c-3.4,0-3.6-2.3-3.6-5.2V542z M129.9,544.5
			c0,0.9,0,2.5,1.6,2.5s1.6-1.6,1.6-2.5v-2.9c0-0.9,0-2.9-1.6-2.9s-1.6,2-1.6,2.7V544.5z"/>
		<path d="M141.4,537.2h2v11.1h-2.3l-1.6-4.1c-0.5-1.4-0.9-2.7-1.6-4.5l0,0c0,0.9,0.2,2,0.2,3.2c0,1.1,0,2.3,0,3.2v2h-2V537h2.3
			l1.6,4.1c0.5,1.4,0.9,2.7,1.6,4.5l0,0c0-0.9-0.2-2-0.2-3.2s0-2,0-3.2V537.2z"/>
		<path d="M144.6,537.2h7v1.6h-2.5v9.5h-2v-9.5h-2.5V537.2z"/>
		<path d="M155.9,548.3v-11.1h4.3c0.5,0,1.6,0.2,2.3,1.4c0.5,0.7,0.7,2,0.7,3.9c0,2.3,0,4.8-1.8,5.7c-0.5,0.2-1.1,0.2-1.6,0.2h-3.9
			V548.3z M158.9,546.7c1.8,0,2-0.9,2-4.3c0-2.7-0.2-3.6-1.6-3.6H158v7.9L158.9,546.7L158.9,546.7z"/>
		<path d="M164.6,542c0-2.9,0.2-5,3.6-5c3.4,0,3.6,2,3.6,5v1.6c0,2.9-0.2,5.2-3.6,5.2c-3.4,0-3.6-2.3-3.6-5.2V542z M166.8,544.5
			c0,0.9,0,2.5,1.6,2.5s1.6-1.6,1.6-2.5v-2.9c0-0.9,0-2.9-1.6-2.9s-1.6,2-1.6,2.7V544.5z"/>
		<path d="M173.4,542c0-2.9,0.2-5,3.6-5c3.4,0,3.6,2,3.6,5v1.6c0,2.9-0.2,5.2-3.6,5.2c-3.4,0-3.6-2.3-3.6-5.2V542z M175.4,544.5
			c0,0.9,0,2.5,1.6,2.5s1.6-1.6,1.6-2.5v-2.9c0-0.9,0-2.9-1.6-2.9s-1.6,2-1.6,2.7V544.5z"/>
		<path d="M184.3,543.6v4.8h-2v-11.1h3.9c1.8,0,3.2,0.7,3.2,2.7c0,1.1-0.2,2.5-1.8,2.7l0,0c1.1,0.2,1.6,0.9,1.6,2
			c0,0.5,0,3.2,0.5,3.6v0.2h-2.3c-0.2-0.7-0.2-2-0.2-2.7s0-1.6-0.7-1.8c-0.5-0.2-1.1-0.2-1.8-0.2h-0.2v-0.2H184.3z M184.3,542h1.6
			c0.7,0,1.1-0.5,1.1-1.6c0-1.4-0.5-1.4-1.4-1.4H184v2.9L184.3,542L184.3,542z"/>
		<path d="M195.4,540.6c0-0.9,0-2-1.1-2c-0.7,0-1.1,0.2-1.1,1.1c0,0.9,0.5,1.1,1.1,1.6s2,1.4,2.5,1.8c0.7,0.7,0.9,1.4,0.9,2.3
			c0,2-1.4,3.2-3.4,3.2c-2.5,0-3.4-1.4-3.4-3.4v-0.9h2v0.7c0,1.1,0.2,1.8,1.4,1.8c0.9,0,1.4-0.5,1.4-1.4c0-0.7-0.2-1.1-0.9-1.6
			c-1.1-0.9-2.5-1.4-3.4-2.5c-0.5-0.5-0.5-1.1-0.5-1.8c0-1.8,1.1-2.9,3.2-2.9c3.4,0,3.2,2.5,3.2,3.6h-1.8L195.4,540.6L195.4,540.6z"
			/>
	</g>
	<g>
		<path d="M115.4,584.6c0-2.3,0.2-4.1,2.9-4.1c1.6,0,2.5,0.5,2.9,2c0,0.5,0,0.7,0,1.1h-1.8c0-0.9,0-1.6-1.4-1.8
			c-1.4,0-1.4,1.6-1.4,2.3v2.5c0,0.7,0,2,1.4,2c0.9,0,1.4-1.1,1.4-2.5h-1.1v-1.4h2.9v5h-1.1v-1.1l0,0c-0.5,0.9-0.9,1.1-1.6,1.4
			c-2.9,0-2.9-1.8-2.9-4.3v-1.1L115.4,584.6L115.4,584.6z"/>
		<path d="M124.7,585.9v4.1h-1.8v-9.3h3.2c1.6,0,2.7,0.5,2.7,2.3c0,0.9-0.2,2-1.4,2.3l0,0c1.1,0.2,1.4,0.7,1.4,1.6
			c0,0.5,0,2.7,0.5,2.9v0.2h-1.8c-0.2-0.7-0.2-1.8-0.2-2.3c0-0.7,0-1.4-0.7-1.6c-0.5-0.2-0.9-0.2-1.6-0.2H124.7z M124.7,584.6h1.4
			c0.7,0,0.9-0.5,0.9-1.4c0-1.1-0.5-1.1-1.1-1.1h-1.1v2.5H124.7z"/>
		<path d="M130.1,584.6c0-2.3,0.2-4.1,2.9-4.1s2.9,1.8,2.9,4.1v1.4c0,2.5-0.2,4.3-2.9,4.3c-2.9,0-2.9-1.8-2.9-4.3V584.6z
			 M131.9,586.6c0,0.7,0,2,1.4,2c1.1,0,1.4-1.4,1.4-2.3V584c0-0.7,0-2.5-1.4-2.5s-1.4,1.6-1.4,2.3V586.6z"/>
		<path d="M141.7,580.7h1.8v6.6c0,2-0.7,2.9-2.9,2.9c-2.3,0-2.9-0.9-2.9-2.9v-6.6h1.8v6.3c0,0.9,0,1.8,1.1,1.8s1.1-0.9,1.1-1.8
			L141.7,580.7L141.7,580.7z"/>
		<path d="M148.9,580.7h1.8v9.3h-1.8l-1.4-3.4c-0.5-1.1-0.9-2.3-1.1-3.6l0,0c0,0.7,0.2,1.8,0.2,2.7s0,1.8,0,2.5v1.8h-1.8v-9.3h1.8
			l1.4,3.4c0.5,1.1,0.9,2.3,1.1,3.6l0,0c0-0.9-0.2-1.8-0.2-2.7s0-1.8,0-2.7V580.7z"/>
		<path d="M152.3,590v-9.3h3.6c0.5,0,1.4,0.2,1.8,1.1c0.5,0.7,0.5,1.6,0.5,3.2c0,1.8,0,3.9-1.4,4.8c-0.5,0.2-0.9,0.2-1.4,0.2H152.3z
			 M154.8,588.7c1.6,0,1.6-0.9,1.6-3.4c0-2.3-0.2-3.2-1.4-3.2h-1.1v6.6L154.8,588.7L154.8,588.7z"/>
		<path d="M162.5,590v-9.3h5v1.4h-3.2v2.3h2.9v1.4h-2.9v4.3h-1.8V590z"/>
		<path d="M168.4,590v-9.3h1.6v7.9h3.2v1.4L168.4,590L168.4,590z"/>
		<path d="M174.1,584.6c0-2.3,0.2-4.1,2.9-4.1s2.9,1.8,2.9,4.1v1.4c0,2.5-0.2,4.3-2.9,4.3c-2.9,0-2.9-1.8-2.9-4.3V584.6z
			 M175.9,586.6c0,0.7,0,2,1.4,2c1.1,0,1.4-1.4,1.4-2.3V584c0-0.7,0-2.5-1.4-2.5s-1.4,1.6-1.4,2.3V586.6z"/>
		<path d="M181.6,584.6c0-2.3,0.2-4.1,2.9-4.1s2.9,1.8,2.9,4.1v1.4c0,2.5-0.2,4.3-2.9,4.3c-2.9,0-2.9-1.8-2.9-4.3V584.6z
			 M183.4,586.6c0,0.7,0,2,1.4,2c1.1,0,1.4-1.4,1.4-2.3V584c0-0.7,0-2.5-1.4-2.5s-1.4,1.6-1.4,2.3V586.6z"/>
		<path d="M190.6,585.9v4.1h-1.8v-9.3h3.2c1.6,0,2.7,0.5,2.7,2.3c0,0.9-0.2,2-1.4,2.3l0,0c1.1,0.2,1.4,0.7,1.4,1.6
			c0,0.5,0,2.7,0.5,2.9v0.2h-1.8c-0.2-0.7-0.2-1.8-0.2-2.3c0-0.7,0-1.4-0.7-1.6c-0.5-0.2-0.9-0.2-1.6-0.2H190.6z M190.6,584.6h1.4
			c0.7,0,0.9-0.5,0.9-1.4c0-1.1-0.5-1.1-1.1-1.1h-1.4v2.5H190.6z"/>
	</g>
	<g>
		<path d="M398,438.8c0,0.2,0,0.7,0,0.9c-0.2,2.7-1.1,4.8-4.1,4.8c-4.5,0-4.8-2.9-4.8-6.8v-2c0.2-3.9,0.5-6.6,4.8-6.6
			c2.5,0,3.9,1.4,4.1,3.9c0,0.5,0,0.7,0,1.1h-2.7c-0.2-0.9,0-2.7-1.4-2.7c-2.3,0-2,2.5-2,3.9v4.1c0,1.1,0,3.2,2,3.2
			c1.6,0,1.4-2.5,1.4-3.4h2.7V438.8z"/>
		<path d="M399.8,444.1v-15h7.7v2.3h-5v3.9h4.5v2.3h-4.5v4.5h5v2.3h-7.7V444.1z"/>
		<path d="M416.2,429.1h2.7v15H416l-2.3-5.2c-0.7-1.8-1.4-3.6-2-5.9l0,0c0,1.1,0.2,2.7,0.2,4.3c0,1.6,0.2,2.9,0.2,4.1v2.7h-2.7v-15
			h2.9l2.3,5.4c0.7,1.8,1.4,3.4,2,5.9l0,0c0-1.4-0.2-2.7-0.2-4.3c0-1.4-0.2-2.9-0.2-4.1V429.1z"/>
		<path d="M420.2,429.1h9.3v2.3h-3.4v12.7h-2.7v-12.7h-3.2L420.2,429.1L420.2,429.1z"/>
		<path d="M430.7,444.1v-15h7.7v2.3h-5v3.9h4.5v2.3h-4.5v4.5h5v2.3h-7.7V444.1z"/>
		<path d="M442.9,437.7v6.3h-2.7v-15h5.2c2.5,0,4.3,0.9,4.3,3.6c0,1.6-0.5,3.4-2.3,3.6l0,0c1.6,0.2,2,1.4,2,2.7c0,0.7,0,4.3,0.7,4.8
			v0.2h-2.9c-0.2-0.9-0.2-2.7-0.2-3.9c0-0.9,0-2.3-0.9-2.5c-0.7-0.2-1.6-0.2-2.3-0.2h-0.9L442.9,437.7L442.9,437.7z M442.9,435.4
			h2.3c0.9,0,1.6-0.7,1.6-2c0-1.6-0.7-2-1.8-2h-2v4H442.9z"/>
		<path d="M456.5,444.1v-15h4.5c1.1,0,2.3,0,3.2,1.1c0.7,0.9,0.7,1.6,0.7,2.7c0,1.4-0.2,2.5-1.8,3.2l0,0c1.6,0.2,2.3,1.6,2.3,3.4
			c0,0.7,0,1.1-0.2,1.8c-0.7,1.8-1.6,2.7-3.6,2.7L456.5,444.1L456.5,444.1z M459.7,435.2c0.7,0,1.6,0,2-0.5c0.2-0.5,0.2-0.9,0.2-1.6
			c0-1.1-0.2-1.6-1.6-1.8H459v3.9H459.7z M459.9,441.8c0.7,0,1.1,0,1.6-0.2c0.7-0.2,0.9-1.4,0.9-2c0-1.6-0.2-2.3-2-2.3h-1.1v4.5
			H459.9z"/>
		<path d="M466,444.1l3.6-15h3.9l3.4,15h-3.2l-0.7-3.9h-3.2l-0.7,3.9H466z M470.1,438.2h2.3l-0.7-4.3c-0.2-0.7-0.2-1.4-0.2-2
			c0-0.2,0-0.7,0-0.9l0,0c0,0.2,0,0.7,0,0.9c0,0.7-0.2,1.4-0.2,2L470.1,438.2z"/>
		<path d="M477.8,444.1v-15h2.7v12.7h5.2v2.3H477.8z"/>
		<path d="M496.2,438.8c0,0.2,0,0.7,0,0.9c-0.2,2.7-1.1,4.8-4.1,4.8c-4.5,0-4.8-2.9-4.8-6.8v-2c0.2-3.9,0.5-6.6,4.8-6.6
			c2.5,0,3.9,1.4,4.1,3.9c0,0.5,0,0.7,0,1.1h-2.7c-0.2-0.9,0-2.7-1.4-2.7c-2.3,0-2,2.5-2,3.9v4.1c0,1.1,0,3.2,2,3.2
			c1.6,0,1.4-2.5,1.4-3.4h2.7V438.8z"/>
		<path d="M497.8,435.4c0.2-3.9,0.5-6.6,4.8-6.6c4.5,0,4.8,2.7,4.8,6.6v2c0,4.1-0.2,6.8-4.8,6.8s-4.8-2.9-4.8-6.8V435.4z
			 M500.7,439.1c0,1.1,0,3.2,2,3.2s2-2,2-3.4V435c0-1.1,0-3.9-2-3.9c-2.3,0-2,2.5-2,3.9V439.1z"/>
		<path d="M516.3,429.1h2.7v15h-2.9l-2.3-5.2c-0.7-1.8-1.4-3.6-2-5.9l0,0c0,1.1,0.2,2.7,0.2,4.3c0,1.6,0.2,2.9,0.2,4.1v2.7h-2.7v-15
			h2.9l2.3,5.4c0.7,1.8,1.4,3.4,2,5.9l0,0c0-1.4-0.2-2.7-0.2-4.3c0-1.4-0.2-2.9-0.2-4.1V429.1z"/>
		<path d="M524.7,433.2c0.2,0.7,0.5,1.6,0.7,2.3l0,0c0.2-1.1,0.7-2,0.9-2.7l1.4-3.4h2.9l-3.9,8.6v6.3H524V438l-3.9-8.6h2.9
			L524.7,433.2z"/>
	</g>
	<g>
		<path d="M419.3,394.2c0,0.2,0,0.7,0,0.9c-0.2,2.7-1.1,4.8-4.1,4.8c-4.5,0-4.8-2.9-4.8-6.8v-2c0.2-3.9,0.5-6.6,4.8-6.6
			c2.5,0,3.9,1.4,4.1,3.9c0,0.5,0,0.7,0,1.1h-2.7c-0.2-0.9,0-2.7-1.4-2.7c-2.3,0-2,2.5-2,3.9v4.1c0,1.1,0,3.2,2,3.2
			c1.6,0,1.4-2.5,1.4-3.4h2.7V394.2z"/>
		<path d="M421.1,399.4v-14.7h7.7v2.3h-5v3.9h4.5v2.3h-4.5v4.5h5v2.3h-7.7V399.4z"/>
		<path d="M437.2,384.7h2.7v15H437l-2.3-5.2c-0.7-1.8-1.4-3.6-2-5.9l0,0c0,1.1,0.2,2.7,0.2,4.3c0,1.6,0.2,2.9,0.2,4.1v2.7h-2.5v-15
			h2.9l2.3,5.4c0.7,1.8,1.4,3.4,2,5.9l0,0c0-1.4-0.2-2.7-0.2-4.3c0-1.4-0.2-2.9-0.2-4.1v-2.9H437.2z"/>
		<path d="M441.3,384.7h9.3v2.3h-3.2v12.7h-2.7V387h-3.2v-2.3H441.3z"/>
		<path d="M452,399.4v-14.7h7.7v2.3h-5v3.9h4.5v2.3h-4.5v4.5h5v2.3H452V399.4z"/>
		<path d="M464.2,393.1v6.3h-2.7v-14.7h5.2c2.5,0,4.3,0.9,4.3,3.6c0,1.6-0.5,3.4-2.3,3.6l0,0c1.6,0.2,2,1.4,2,2.7
			c0,0.7,0,4.3,0.7,4.8v0.2h-2.9c-0.2-0.9-0.2-2.7-0.2-3.9c0-0.9,0-2.3-0.9-2.5c-0.7-0.2-1.6-0.2-2.3-0.2L464.2,393.1L464.2,393.1z
			 M464.2,390.8h2.3c0.9,0,1.6-0.7,1.6-2c0-1.6-0.7-2-1.8-2h-2v4H464.2z"/>
		<path d="M477.6,399.4v-14.7h4.5c1.1,0,2.3,0,3.2,1.1c0.7,0.9,0.7,1.6,0.7,2.7c0,1.4-0.2,2.5-1.8,3.2l0,0c1.6,0.2,2.3,1.6,2.3,3.4
			c0,0.7,0,1.1-0.2,1.8c-0.7,1.8-1.6,2.7-3.6,2.7h-5v-0.2H477.6z M481,390.6c0.7,0,1.6,0,2-0.5c0.2-0.5,0.2-0.9,0.2-1.6
			c0-1.1-0.2-1.6-1.6-1.8h-1.1v3.9H481z M481,397.4c0.7,0,1.1,0,1.6-0.2c0.7-0.2,0.9-1.4,0.9-2c0-1.6-0.2-2.3-2-2.3h-0.9v4.5H481z"
			/>
		<path d="M488.2,390.8c0.2-3.9,0.5-6.6,4.8-6.6c4.5,0,4.8,2.7,4.8,6.6v2c0,4.1-0.2,6.8-4.8,6.8s-4.8-2.9-4.8-6.8V390.8z
			 M491.2,394.4c0,1.1,0,3.2,2,3.2s2-2,2-3.4v-3.9c0-1.1,0-3.9-2-3.9c-2.3,0-2,2.5-2,3.9V394.4z"/>
		<path d="M509.5,399.4h-3.2l-1.6-3.6c-0.2-0.7-0.5-1.1-0.7-1.8l0,0c-0.2,0.9-0.5,1.8-0.9,2.7l-1.1,2.7h-2.9l3.6-7.5l-3.4-7.3h3.2
			l1.6,3.4c0.2,0.7,0.5,1.1,0.5,1.8l0,0c0-0.9,0.5-1.8,0.9-2.7l1.1-2.5h3.2l-3.6,7.3L509.5,399.4z"/>
	</g>
	<g>
		<path d="M435.9,590v-9.3h2.7c0.7,0,1.6,0,2,0.7c0.5,0.5,0.5,1.1,0.5,1.6c0,0.9-0.2,1.6-1.1,2l0,0c0.9,0.2,1.4,0.9,1.4,2.3
			c0,0.5,0,0.7-0.2,1.1c-0.5,1.1-1.1,1.6-2.3,1.6L435.9,590L435.9,590z M437.9,584.4c0.5,0,0.9,0,1.1-0.2s0.2-0.5,0.2-0.9
			c0-0.7-0.2-1.1-0.9-1.1h-0.9v2.5h0.5L437.9,584.4L437.9,584.4z M438.1,588.7c0.5,0,0.7,0,1.1,0c0.5-0.2,0.5-0.9,0.5-1.4
			c0-0.9-0.2-1.4-1.4-1.4h-0.7v2.7h0.5V588.7z"/>
		<path d="M442,590l2.3-9.3h2.3l2,9.3h-1.8l-0.5-2.3h-2l-0.5,2.3H442z M444.5,586.2h1.6l-0.5-2.7c0-0.5-0.2-0.9-0.2-1.4
			c0-0.2,0-0.5,0-0.7l0,0c0,0.2,0,0.5,0,0.7c0,0.5,0,0.9-0.2,1.4L444.5,586.2z"/>
		<path d="M449.3,590v-9.3h1.8v7.9h3.2v1.4L449.3,590L449.3,590z"/>
		<path d="M460.8,586.6c0,0.2,0,0.5,0,0.5c0,1.8-0.7,2.9-2.5,2.9c-2.9,0-2.9-1.8-2.9-4.3v-1.4c0-2.3,0.2-4.1,2.9-4.1
			c1.6,0,2.5,0.9,2.5,2.5c0,0.2,0,0.5,0,0.7H459c0-0.7,0-1.8-0.9-1.8c-1.4,0-1.4,1.6-1.4,2.3v2.5c0,0.7,0,2,1.4,2
			c0.9,0,0.9-1.6,0.9-2h1.8V586.6z"/>
		<path d="M461.7,584.6c0-2.3,0.2-4.1,2.9-4.1s2.9,1.8,2.9,4.1v1.4c0,2.5-0.2,4.3-2.9,4.3c-2.9,0-2.9-1.8-2.9-4.3V584.6z
			 M463.5,586.6c0,0.7,0,2,1.4,2c1.1,0,1.4-1.4,1.4-2.3V584c0-0.7,0-2.5-1.4-2.5s-1.4,1.6-1.4,2.3V586.6z"/>
		<path d="M473.3,580.7h1.8v9.3h-1.8l-1.4-3.4c-0.5-1.1-0.9-2.3-1.1-3.6l0,0c0,0.7,0.2,1.8,0.2,2.7s0,1.8,0,2.5v1.8h-1.8v-9.3h1.8
			l1.4,3.4c0.5,1.1,0.9,2.3,1.1,3.6l0,0c0-0.9-0.2-1.8-0.2-2.7s0-1.8,0-2.7V580.7z"/>
		<path d="M478.7,583c0.2,0.5,0.2,0.9,0.5,1.4l0,0c0.2-0.7,0.5-1.1,0.7-1.8l0.9-2h1.8l-2.5,5.4v3.9h-1.8V586l-2.5-5.4h1.8L478.7,583
			z"/>
	</g>
	<g>
		<path d="M415.9,358.1c0,0.2,0,0.5,0,0.5c0,1.6-0.7,2.9-2.5,2.9c-2.9,0-2.9-1.8-2.9-4.3v-1.4c0-2.3,0.2-4.1,2.9-4.1
			c1.6,0,2.5,0.9,2.5,2.5c0,0.2,0,0.5,0,0.7h-1.8c0-0.7,0-1.8-0.9-1.8c-1.4,0-1.4,1.6-1.4,2.3v2.5c0,0.7,0,2,1.4,2
			c0.9,0,0.9-1.6,0.9-2h1.8V358.1z"/>
		<path d="M419.1,354.5c0.2,0.5,0.2,0.9,0.5,1.4l0,0c0.2-0.7,0.5-1.1,0.7-1.8l0.9-2h1.8l-2.5,5.4v3.9h-1.8v-3.9l-2.5-5.4h1.8
			L419.1,354.5z"/>
		<path d="M425.2,357.5v4.1h-1.8v-9.3h3.2c1.6,0,2.7,0.5,2.7,2.3c0,0.9-0.2,2-1.4,2.3l0,0c1.1,0.2,1.4,0.9,1.4,1.6
			c0,0.5,0,2.7,0.5,2.9v0.2H428c-0.2-0.7-0.2-1.8-0.2-2.3c0-0.7,0-1.4-0.7-1.6c-0.5-0.2-0.9-0.2-1.6-0.2H425.2z M425.2,356.1h1.4
			c0.7,0,0.9-0.5,0.9-1.4c0-1.1-0.5-1.1-1.1-1.1H425v2.5H425.2z"/>
		<path d="M430.9,361.5v-9.3h1.8v9.3H430.9z"/>
		<path d="M434.1,361.5v-9.3h1.8v7.9h3.2v1.4H434.1z"/>
		<path d="M444.7,361.5h-1.8v-9.3h2.7l0.9,4.3c0.2,0.7,0.2,1.4,0.2,2l0,0c0-0.9,0.2-1.6,0.2-2l0.9-4.3h2.7v9.3h-1.8v-2.9
			c0-1.8,0-3.6,0.2-5.4l0,0l-1.8,8.4H446l-1.8-8.4l0,0c0,1.8,0.2,3.6,0.2,5.4v2.9H444.7z"/>
		<path d="M451.5,361.5l2.3-9.3h2.3l2,9.3h-1.8l-0.5-2.3h-2l-0.5,2.3H451.5z M454.2,357.7h1.6l-0.5-2.7c0-0.5-0.2-0.9-0.2-1.4
			c0-0.2,0-0.5,0-0.7l0,0c0,0.2,0,0.5,0,0.7c0,0.5,0,0.9-0.2,1.4L454.2,357.7z"/>
		<path d="M458.8,356.1c0-2.3,0.2-4.1,2.9-4.1c1.6,0,2.5,0.5,2.9,2c0,0.5,0,0.7,0,1.1h-1.8c0-0.9,0-1.6-1.4-1.8
			c-1.4,0-1.4,1.6-1.4,2.3v2.5c0,0.7,0,2,1.4,2c0.9,0,1.4-1.1,1.4-2.5h-1.1v-1.4h2.9v5h-1.4v-1.1l0,0c-0.5,0.9-0.9,1.1-1.6,1.4
			c-2.9,0-2.9-1.8-2.9-4.3v-1.1H458.8z"/>
		<path d="M470.6,352.3h1.8v9.3h-1.8l-1.4-3.4c-0.5-1.1-0.9-2.3-1.1-3.6l0,0c0,0.7,0.2,1.8,0.2,2.7c0,0.9,0,1.8,0,2.5v1.8h-1.8v-9.3
			h1.8l1.4,3.4c0.5,1.1,0.9,2.3,1.1,3.6l0,0c0-0.9-0.2-1.8-0.2-2.7s0-1.8,0-2.7V352.3z"/>
		<path d="M473.7,361.5v-9.3h1.8v9.3H473.7z"/>
		<path d="M481,352.3h1.8v9.3H481l-1.4-3.4c-0.5-1.1-0.9-2.3-1.1-3.6l0,0c0,0.7,0.2,1.8,0.2,2.7c0,0.9,0,1.8,0,2.5v1.8h-1.8v-9.3
			h1.8l1.4,3.4c0.5,1.1,0.9,2.3,1.1,3.6l0,0c0-0.9-0.2-1.8-0.2-2.7s0-1.8,0-2.7V352.3z"/>
		<path d="M486.9,361.5v-9.3h2.7c0.7,0,1.6,0,2,0.7c0.5,0.5,0.5,1.1,0.5,1.6c0,0.9-0.2,1.6-1.1,2l0,0c0.9,0.2,1.4,0.9,1.4,2.3
			c0,0.5,0,0.7-0.2,1.1c-0.5,1.1-1.1,1.6-2.3,1.6L486.9,361.5L486.9,361.5z M488.9,355.9c0.5,0,0.9,0,1.1-0.2s0.2-0.5,0.2-0.9
			c0-0.7-0.2-1.1-0.9-1.1h-0.9v2.5h0.5L488.9,355.9L488.9,355.9z M489.1,360.2c0.5,0,0.7,0,1.1,0c0.5-0.2,0.5-0.9,0.5-1.4
			c0-0.9-0.2-1.4-1.4-1.4h-0.7v2.7L489.1,360.2L489.1,360.2z"/>
		<path d="M493.5,356.1c0-2.3,0.2-4.1,2.9-4.1s2.9,1.8,2.9,4.1v1.4c0,2.5-0.2,4.3-2.9,4.3c-2.9,0-2.9-1.8-2.9-4.3V356.1z
			 M495.3,358.4c0,0.7,0,2,1.4,2c1.1,0,1.4-1.4,1.4-2.3v-2.5c0-0.7,0-2.5-1.4-2.5s-1.4,1.6-1.4,2.3V358.4z"/>
		<path d="M506.8,361.5h-2l-0.9-2.3c-0.2-0.5-0.2-0.7-0.5-1.1l0,0c0,0.7-0.5,1.1-0.7,1.8l-0.7,1.8h-1.8l2.3-4.8l-2.3-4.5h2l0.9,2
			c0.2,0.5,0.2,0.7,0.2,1.1l0,0c0-0.7,0.2-1.1,0.7-1.8l0.7-1.6h2l-2.3,4.5L506.8,361.5z"/>
	</g>
	<g>
		<path d="M353.1,248.4c-0.9,0-1.6,0-1.6,0.9c0,0.7,0.2,0.9,0.9,0.9s0.9-0.5,1.4-0.9c0.5-0.7,1.1-1.6,1.6-2c0.7-0.7,1.1-0.7,2-0.7
			c1.8,0,2.7,1.1,2.7,2.9c0,2-1.1,2.7-2.7,2.7h-0.7v-1.8h0.5c0.9,0,1.6-0.2,1.6-1.1c0-0.7-0.5-1.1-1.1-1.1c-0.5,0-0.9,0.2-1.1,0.7
			c-0.7,0.9-1.1,2-2,2.7c-0.5,0.2-0.9,0.5-1.4,0.5c-1.6,0-2.5-0.9-2.5-2.7c0-2.7,2-2.7,2.9-2.7v1.8L353.1,248.4L353.1,248.4z"/>
		<path d="M359.7,245.3h-9.3v-1.8h9.3V245.3z"/>
		<path d="M359.7,242.1h-9.3v-3.6c0-0.5,0.2-1.4,1.1-1.8c0.7-0.5,1.6-0.5,3.2-0.5c1.8,0,3.9,0,4.8,1.4c0.2,0.5,0.2,0.9,0.2,1.4
			L359.7,242.1L359.7,242.1z M358.4,239.6c0-1.6-0.9-1.6-3.4-1.6c-2.3,0-3.2,0.2-3.2,1.4v1.1h6.6V239.6z"/>
		<path d="M359.7,234.8h-9.3v-5h1.4v3.2h2.3v-2.9h1.4v2.9h2.9v-3.2h1.4L359.7,234.8L359.7,234.8z"/>
		<path d="M359.7,226h-9.3v-2.7c0-0.7,0-1.6,0.7-2c0.5-0.5,1.1-0.5,1.6-0.5c0.9,0,1.6,0.2,2,1.1l0,0c0.2-0.9,0.9-1.4,2.3-1.4
			c0.5,0,0.7,0,1.1,0.2c1.1,0.5,1.6,1.1,1.6,2.3L359.7,226L359.7,226z M354.1,224c0-0.5,0-0.9-0.2-1.1c-0.2-0.2-0.5-0.2-0.9-0.2
			c-0.7,0-1.1,0.2-1.1,0.9v0.9h2.5V224H354.1z M358.4,224c0-0.5,0-0.7,0-1.1c-0.2-0.5-0.9-0.5-1.4-0.5c-0.9,0-1.4,0.2-1.4,1.4v0.7
			h2.7L358.4,224L358.4,224z"/>
		<path d="M354.3,219.4c-2.3,0-4.1-0.2-4.1-2.9s1.8-2.9,4.1-2.9h1.4c2.5,0,4.3,0.2,4.3,2.9c0,2.9-1.8,2.9-4.3,2.9H354.3z
			 M356.5,217.6c0.7,0,2,0,2-1.4c0-1.1-1.4-1.4-2.3-1.4h-2.3c-0.7,0-2.5,0-2.5,1.4s1.6,1.4,2.3,1.4H356.5z"/>
		<path d="M359.7,206.3v2l-2.3,0.9c-0.5,0.2-0.7,0.2-1.1,0.5l0,0c0.7,0,1.1,0.5,1.8,0.7l1.8,0.7v1.8l-4.8-2.3l-4.5,2.3v-2l2-0.9
			c0.5-0.2,0.7-0.2,1.1-0.2l0,0c-0.7,0-1.1-0.2-1.8-0.7l-1.6-0.7v-2l4.5,2.3L359.7,206.3z"/>
	</g>
	<g>
		<path d="M565.5,208.5c0.9,0,1.6,0,1.6-0.9c0-0.7-0.2-0.9-0.9-0.9s-0.9,0.5-1.4,0.9c-0.5,0.7-1.1,1.6-1.6,2c-0.7,0.7-1.1,0.7-2,0.7
			c-1.8,0-2.7-1.1-2.7-2.9c0-2,1.1-2.7,2.7-2.7h0.7v1.8h-0.5c-0.9,0-1.6,0.2-1.6,1.1c0,0.7,0.5,1.1,1.1,1.1c0.5,0,0.9-0.2,1.1-0.7
			c0.7-0.9,1.1-2,2-2.7c0.5-0.2,0.9-0.5,1.4-0.5c1.6,0,2.5,0.9,2.5,2.7c0,2.7-2,2.7-2.9,2.7v-1.8L565.5,208.5L565.5,208.5z"/>
		<path d="M559,211.7h9.3v1.8H559V211.7z"/>
		<path d="M559,214.9h9.3v3.6c0,0.5-0.2,1.4-1.1,1.8c-0.7,0.5-1.6,0.5-3.2,0.5c-1.8,0-3.9,0-4.8-1.4c-0.2-0.5-0.2-0.9-0.2-1.4V214.9
			z M560.3,217.4c0,1.6,0.9,1.6,3.4,1.6c2.3,0,3.2-0.2,3.2-1.4v-1.1h-6.6L560.3,217.4L560.3,217.4z"/>
		<path d="M559,222.1h9.3v5h-1.4V224h-2.3v2.9h-1.4V224h-2.9v3.2H559V222.1L559,222.1z"/>
		<path d="M559,231h9.3v2.7c0,0.7,0,1.6-0.7,2c-0.5,0.5-1.1,0.5-1.6,0.5c-0.9,0-1.6-0.2-2-1.1l0,0c-0.2,0.9-0.9,1.4-2.3,1.4
			c-0.5,0-0.7,0-1.1-0.2c-1.1-0.5-1.6-1.1-1.6-2.3L559,231L559,231z M560.3,233c0,0.5,0,0.7,0,1.1c0.2,0.5,0.9,0.5,1.4,0.5
			c0.9,0,1.4-0.2,1.4-1.4v-0.5h-2.7v0.3H560.3z M564.6,233c0,0.5,0,0.9,0.2,1.1s0.5,0.2,0.9,0.2c0.7,0,1.1-0.2,1.1-0.9v-0.7h-2.5
			v0.2L564.6,233L564.6,233z"/>
		<path d="M564.4,237.6c2.3,0,4.1,0.2,4.1,2.9s-1.8,2.9-4.1,2.9H563c-2.5,0-4.3-0.2-4.3-2.9c0-2.9,1.8-2.9,4.3-2.9H564.4z
			 M562.1,239.4c-0.7,0-2,0-2,1.4c0,1.1,1.4,1.4,2.3,1.4h2.3c0.7,0,2.5,0,2.5-1.4s-1.6-1.4-2.3-1.4H562.1z"/>
		<path d="M559,250.9v-2l2.3-0.9c0.5-0.2,0.7-0.2,1.1-0.5l0,0c-0.7,0-1.1-0.5-1.8-0.7l-1.8-0.7v-1.8l4.8,2.3l4.5-2.3v2l-2,0.9
			c-0.5,0.2-0.7,0.2-1.1,0.2l0,0c0.7,0,1.1,0.2,1.8,0.7l1.6,0.7v2l-4.5-2.3L559,250.9z"/>
	</g>
	<g>
		<rect x="335.5" y="469.2" fill="#FFFFFF" width="246.2" height="95"/>
		<path d="M583,565.5H334.3v-97.2h248.4v97.2H583z M336.6,563.3h243.9v-92.7H336.6V563.3z"/>
	</g>
	<g>
		<path d="M405.3,518.6v6.3h-2.7v-15h5.2c2.5,0,4.3,0.9,4.3,3.6c0,1.6-0.5,3.4-2.3,3.6l0,0c1.6,0.2,2,1.4,2,2.7c0,0.7,0,4.3,0.7,4.8
			v0.2h-2.9c-0.2-0.9-0.2-2.7-0.2-3.9c0-0.9,0-2.3-0.9-2.5c-0.7-0.2-1.6-0.2-2.3-0.2h-0.9L405.3,518.6L405.3,518.6z M405.3,516.6
			h2.3c0.9,0,1.6-0.7,1.6-2c0-1.6-0.7-2-1.8-2h-2v4H405.3z"/>
		<path d="M414.1,525.2v-15h7.7v2.3H417v3.9h4.5v2.3H417v4.5h5v2.3h-7.9L414.1,525.2L414.1,525.2z"/>
		<path d="M422.5,525.2l3.6-15h3.9l3.4,15h-2.9l-0.7-3.9h-3.2l-0.7,3.9H422.5z M426.8,519.1h2.3l-0.7-4.3c-0.2-0.7-0.2-1.4-0.2-2
			c0-0.2,0-0.7,0-0.9l0,0c0,0.2,0,0.7,0,0.9c0,0.7-0.2,1.4-0.2,2L426.8,519.1z"/>
		<path d="M437.2,518.6v6.3h-2.7v-15h5.2c2.5,0,4.3,0.9,4.3,3.6c0,1.6-0.5,3.4-2.3,3.6l0,0c1.6,0.2,2,1.4,2,2.7c0,0.7,0,4.3,0.7,4.8
			v0.2h-2.9c-0.2-0.9-0.2-2.7-0.2-3.9c0-0.9,0-2.3-0.9-2.5c-0.7-0.2-1.6-0.2-2.3-0.2h-0.9L437.2,518.6L437.2,518.6z M437.2,516.6
			h2.3c0.9,0,1.6-0.7,1.6-2c0-1.6-0.7-2-1.8-2h-2v4H437.2z"/>
		<path d="M450.6,525.2v-15h4.5c1.1,0,2.3,0,3.2,1.1c0.7,0.9,0.7,1.6,0.7,2.7c0,1.4-0.2,2.5-1.8,3.2l0,0c1.6,0.2,2.3,1.6,2.3,3.4
			c0,0.7,0,1.1-0.2,1.8c-0.7,1.8-1.6,2.7-3.6,2.7L450.6,525.2L450.6,525.2z M454,516.1c0.7,0,1.6,0,2-0.5c0.2-0.5,0.2-0.9,0.2-1.6
			c0-1.1-0.2-1.6-1.6-1.8h-1.4v3.9L454,516.1L454,516.1z M454,522.9c0.7,0,1.1,0,1.6-0.2c0.7-0.2,0.9-1.4,0.9-2c0-1.6-0.2-2.3-2-2.3
			h-1.1v4.5H454z"/>
		<path d="M460.1,525.2l3.6-15h3.9l3.4,15h-2.9l-0.7-3.9h-3.2l-0.7,3.9H460.1z M464.2,519.1h2.3l-0.7-4.3c-0.2-0.7-0.2-1.4-0.2-2
			c0-0.2,0-0.7,0-0.9l0,0c0,0.2,0,0.7,0,0.9c0,0.7-0.2,1.4-0.2,2L464.2,519.1z"/>
		<path d="M471.9,525.2v-15h2.7v12.7h5.2v2.3H471.9z"/>
		<path d="M490.3,519.8c0,0.2,0,0.7,0,0.9c-0.2,2.7-1.1,4.8-4.1,4.8c-4.5,0-4.8-2.9-4.8-6.8v-2c0.2-3.9,0.5-6.6,4.8-6.6
			c2.5,0,3.9,1.4,4.1,3.9c0,0.5,0,0.7,0,1.1h-2.7c-0.2-0.9,0-2.7-1.4-2.7c-2.3,0-2,2.5-2,3.9v4.1c0,1.1,0,3.2,2,3.2
			c1.6,0,1.4-2.5,1.4-3.4h2.7V519.8z"/>
		<path d="M491.9,516.4c0.2-3.9,0.5-6.6,4.8-6.6c4.5,0,4.8,2.7,4.8,6.6v2c0,4.1-0.2,6.8-4.8,6.8s-4.8-2.9-4.8-6.8V516.4z M494.8,520
			c0,1.1,0,3.2,2,3.2s2-2,2-3.4v-3.9c0-1.1,0-3.9-2-3.9c-2.3,0-2,2.5-2,3.9V520z"/>
		<path d="M510.5,510.2h2.7v15h-2.9L508,520c-0.7-1.8-1.4-3.6-2-5.9l0,0c0,1.1,0.2,2.7,0.2,4.3s0.2,2.9,0.2,4.1v2.7h-2.7v-15h2.9
			l2.3,5.4c0.7,1.8,1.4,3.4,2,5.9l0,0c0-1.4-0.2-2.7-0.2-4.3c0-1.4-0.2-2.9-0.2-4.1L510.5,510.2L510.5,510.2z"/>
		<path d="M519.1,514.1c0.2,0.7,0.5,1.6,0.7,2.3l0,0c0.2-1.1,0.7-2,0.9-2.7l1.4-3.4h2.9l-3.9,8.6v6.3h-2.7v-6.3l-3.9-8.6h2.9
			L519.1,514.1z"/>
	</g>
	<g>
		<line fill="none" x1="581.9" y1="407.3" x2="335.5" y2="407.3"/>
		<rect x="335.5" y="406.2" width="246.2" height="2.3"/>
	</g>
	<polygon points="104.5,197.2 31.5,197.2 31.5,194.9 102.2,194.9 102.2,183.4 104.5,183.4 	"/>
</g>
<g id="Layer_2">
	<rect id="front" x="31.5" y="197.2" fill="rgba(255,255,255,0)" width="243" height="191.5" onclick="alert('front')"/>
</g>

<style>
	#front:hover{
		fill: rgba(0,0,0,0.2);
	}
</style>

</svg>
