<?xml version="1.0" encoding="utf-8"?>
<!-- Generator: Adobe Illustrator 18.0.0, SVG Export Plug-In . SVG Version: 6.00 Build 0)  -->
<!DOCTYPE svg PUBLIC "-//W3C//DTD SVG 1.1//EN" "http://www.w3.org/Graphics/SVG/1.1/DTD/svg11.dtd">
<svg version="1.1" id="Layer_1" xmlns="http://www.w3.org/2000/svg" xmlns:xlink="http://www.w3.org/1999/xlink" x="0px" y="0px"
	 viewBox="0 0 270 342" enable-background="new 0 0 270 342" xml:space="preserve">
<path d="M121.9,245.8H13.4V55.9h32.7v20.8h45.3V55.9h30.5V245.8z M14.4,244.8h106.5V56.9H92.4v20.8H45.1V56.9H14.4V244.8z"/>
<rect x="13.5" y="167.8" width="107.6" height="1"/>
<rect x="13.9" y="214.9" width="32.1" height="1"/>
<rect x="89.9" y="214.5" width="32.1" height="1"/>
<rect x="48.7" y="241" width="38" height="1"/>
<path d="M257.2,245.8H147.5V73.4h18.1V162h74.5V73.4h17V245.8z M148.5,244.8h107.6V74.4h-15V163h-76.5V74.4h-16.1V244.8z"/>
<rect x="165.2" y="143.4" width="75.5" height="1"/>
<rect x="148" y="202.8" width="108.3" height="1"/>
<path d="M225.5,77h-46.6V55.9h46.6V77z M179.9,76h44.6V56.9h-44.6V76z"/>
<g>
	<path d="M191.5,65.1c0-0.7-0.1-1.5-0.9-1.5c-0.5,0-0.8,0.2-0.8,0.8c0,0.6,0.4,0.9,0.9,1.2c0.5,0.3,1.4,0.9,1.9,1.3
		c0.5,0.5,0.7,1,0.7,1.7c0,1.6-1,2.4-2.5,2.4c-1.8,0-2.5-1-2.5-2.5v-0.6h1.5v0.5c0,0.8,0.2,1.4,1,1.4c0.6,0,1-0.3,1-1
		c0-0.5-0.2-0.8-0.6-1.1c-0.8-0.6-1.8-1.1-2.4-1.9c-0.3-0.4-0.4-0.8-0.4-1.3c0-1.4,0.8-2.2,2.4-2.2c2.4,0,2.4,1.9,2.4,2.7H191.5z"/>
	<path d="M193.6,62.6h5.1v1.2H197v7h-1.5v-7h-1.8V62.6z"/>
	<path d="M198.2,70.8l2-8.2h2.1l1.9,8.2h-1.6l-0.4-2.1h-1.8l-0.4,2.1H198.2z M200.5,67.5h1.3l-0.4-2.3c-0.1-0.4-0.1-0.8-0.2-1.1
		c0-0.2,0-0.4-0.1-0.5h0c0,0.2,0,0.4-0.1,0.5c0,0.4-0.1,0.8-0.2,1.1L200.5,67.5z"/>
	<path d="M204.6,66.1c0.1-2.1,0.2-3.6,2.7-3.6c1.3,0,2.2,0.4,2.6,1.8c0.1,0.3,0.1,0.7,0.1,1h-1.5c0-0.8-0.1-1.5-1.1-1.5
		c-1.2,0-1.1,1.4-1.1,2.1V68c0,0.7,0.1,1.8,1.1,1.8c0.9,0,1.2-0.9,1.1-2.2h-1.1v-1.2h2.5v4.4h-1.1v-0.9h0c-0.3,0.9-0.9,1.1-1.4,1.1
		c-2.5,0-2.7-1.6-2.7-3.8V66.1z"/>
	<path d="M211.1,70.8v-8.2h4.3v1.2h-2.8v2.1h2.6v1.2h-2.6v2.5h2.8v1.2H211.1z"/>
</g>
<g>
	<path d="M58.2,65.1c0-0.7-0.1-1.5-0.9-1.5c-0.5,0-0.8,0.2-0.8,0.8c0,0.6,0.4,0.9,0.9,1.2c0.5,0.3,1.4,0.9,1.9,1.3
		c0.5,0.5,0.7,1,0.7,1.7c0,1.6-1,2.4-2.5,2.4c-1.8,0-2.5-1-2.5-2.5v-0.6h1.5v0.5c0,0.8,0.2,1.4,1,1.4c0.6,0,1-0.3,1-1
		c0-0.5-0.2-0.8-0.6-1.1c-0.8-0.6-1.8-1.1-2.4-1.9c-0.3-0.4-0.4-0.8-0.4-1.3c0-1.4,0.8-2.2,2.4-2.2c2.4,0,2.4,1.9,2.4,2.7H58.2z"/>
	<path d="M60.4,62.6h5.1v1.2h-1.8v7h-1.5v-7h-1.8V62.6z"/>
	<path d="M65,70.8l2-8.2H69l1.9,8.2h-1.6l-0.4-2.1H67l-0.4,2.1H65z M67.2,67.5h1.3l-0.4-2.3C68.1,64.8,68,64.4,68,64
		c0-0.2,0-0.4-0.1-0.5h0c0,0.2,0,0.4-0.1,0.5c0,0.4-0.1,0.8-0.2,1.1L67.2,67.5z"/>
	<path d="M71.3,66c0.1-2.1,0.2-3.6,2.7-3.6c1.3,0,2.2,0.4,2.6,1.8c0.1,0.3,0.1,0.7,0.1,1h-1.5c0-0.8-0.1-1.5-1.1-1.5
		c-1.2,0-1.1,1.4-1.1,2.1v2.3c0,0.7,0.1,1.8,1.1,1.8c0.9,0,1.2-0.9,1.1-2.2h-1.1v-1.2h2.5v4.4h-1.1v-0.9h0c-0.3,0.9-0.9,1.1-1.4,1.1
		c-2.5,0-2.7-1.6-2.7-3.8V66z"/>
	<path d="M77.9,70.8v-8.2h4.3v1.2h-2.8v2.1H82V67h-2.6v2.5h2.8v1.2H77.9z"/>
</g>
<g>
	<path d="M22.7,71V66h1.5c0.4,0,0.8,0,1,0.4c0.2,0.3,0.2,0.6,0.2,0.9c0,0.4-0.1,0.8-0.6,1v0c0.5,0.1,0.7,0.5,0.7,1.1
		c0,0.2,0,0.4-0.1,0.6C25.4,70.7,25,71,24.4,71H22.7z M23.8,68c0.2,0,0.5,0,0.7-0.2c0.1-0.1,0.1-0.3,0.1-0.5c0-0.4-0.1-0.6-0.5-0.6
		h-0.4V68H23.8z M23.9,70.2c0.2,0,0.4,0,0.6-0.1c0.2-0.1,0.3-0.4,0.3-0.7c0-0.5-0.1-0.8-0.7-0.8h-0.4v1.5H23.9z"/>
	<path d="M25.9,71l1.2-4.9h1.2l1.1,4.9h-1l-0.2-1.2h-1.1L26.9,71H25.9z M27.3,69H28l-0.2-1.4c0-0.2-0.1-0.5-0.1-0.7
		c0-0.1,0-0.2,0-0.3h0c0,0.1,0,0.2,0,0.3c0,0.2,0,0.5-0.1,0.7L27.3,69z"/>
	<path d="M32,66h0.9V71h-1l-0.7-1.8c-0.2-0.6-0.4-1.2-0.7-2h0c0,0.4,0.1,0.9,0.1,1.4c0,0.5,0,1,0,1.4V71h-0.9V66h1l0.7,1.8
		c0.2,0.6,0.4,1.2,0.7,2h0c0-0.4-0.1-0.9-0.1-1.4c0-0.5,0-0.9,0-1.4V66z"/>
	<path d="M33.7,71V66h1.9c0.2,0,0.7,0.1,1,0.6c0.2,0.3,0.3,0.9,0.3,1.7c0,1,0,2.1-0.8,2.5c-0.2,0.1-0.5,0.1-0.7,0.1H33.7z M35,70.2
		c0.8,0,0.9-0.4,0.9-1.9c0-1.2-0.1-1.6-0.7-1.6h-0.6v3.5H35z"/>
</g>
<g>
	<path d="M40.2,113.1v-6.6h3.5v1h-2.2v1.7h2.1v1h-2.1v3H40.2z"/>
	<path d="M45.5,110.3v2.8h-1.2v-6.6h2.3c1.1,0,1.9,0.4,1.9,1.6c0,0.7-0.2,1.5-1,1.6v0c0.7,0.1,0.9,0.6,0.9,1.2c0,0.3,0,1.9,0.3,2.1
		v0.1h-1.3c-0.1-0.4-0.1-1.2-0.1-1.7c0-0.4,0-1-0.4-1.1c-0.3-0.1-0.7-0.1-1-0.1H45.5z M45.5,109.3h1c0.4,0,0.7-0.3,0.7-0.9
		c0-0.7-0.3-0.9-0.8-0.9h-0.9V109.3z"/>
	<path d="M49.4,109.3c0.1-1.7,0.2-2.9,2.1-2.9c2,0,2.1,1.2,2.1,2.9v0.9c0,1.8-0.1,3-2.1,3c-2,0-2.1-1.3-2.1-3V109.3z M50.7,110.9
		c0,0.5,0,1.4,0.9,1.4c0.9,0,0.9-0.9,0.9-1.5v-1.7c0-0.5,0-1.7-0.9-1.7c-1,0-0.9,1.1-0.9,1.7V110.9z"/>
	<path d="M57.6,106.5h1.2v6.6h-1.3l-1-2.3c-0.3-0.8-0.6-1.6-0.9-2.6h0c0,0.5,0.1,1.2,0.1,1.9c0,0.7,0.1,1.3,0.1,1.8v1.2h-1.2v-6.6
		h1.3l1,2.4c0.3,0.8,0.6,1.5,0.9,2.6h0c0-0.6-0.1-1.2-0.1-1.9c0-0.6-0.1-1.3-0.1-1.8V106.5z"/>
	<path d="M59.4,106.5h4.1v1H62v5.6h-1.2v-5.6h-1.4V106.5z"/>
	<path d="M69.9,110.8c0,0.1,0,0.3,0,0.4c-0.1,1.2-0.5,2.1-1.8,2.1c-2,0-2.1-1.3-2.1-3v-0.9c0.1-1.7,0.2-2.9,2.1-2.9
		c1.1,0,1.7,0.6,1.8,1.7c0,0.2,0,0.3,0,0.5h-1.2c-0.1-0.4,0-1.2-0.6-1.2c-1,0-0.9,1.1-0.9,1.7v1.8c0,0.5,0,1.4,0.9,1.4
		c0.7,0,0.6-1.1,0.6-1.5H69.9z"/>
	<path d="M70.2,113.1l1.6-6.6h1.7l1.5,6.6h-1.3l-0.3-1.7h-1.4l-0.3,1.7H70.2z M72,110.5h1l-0.3-1.9c-0.1-0.3-0.1-0.6-0.1-0.9
		c0-0.1,0-0.3,0-0.4h0c0,0.1,0,0.3,0,0.4c0,0.3-0.1,0.6-0.1,0.9L72,110.5z"/>
	<path d="M75.4,113.1v-6.6h2c0.5,0,1,0,1.4,0.5c0.3,0.4,0.3,0.7,0.3,1.2c0,0.6-0.1,1.1-0.8,1.4v0c0.7,0.1,1,0.7,1,1.5
		c0,0.3,0,0.5-0.1,0.8c-0.3,0.8-0.7,1.2-1.6,1.2H75.4z M76.8,109.2c0.3,0,0.7,0,0.9-0.2c0.1-0.2,0.1-0.4,0.1-0.7
		c0-0.5-0.1-0.7-0.7-0.8h-0.6v1.7H76.8z M76.9,112.1c0.3,0,0.5,0,0.7-0.1c0.3-0.1,0.4-0.6,0.4-0.9c0-0.7-0.1-1-0.9-1h-0.5v2H76.9z"
		/>
	<path d="M79.6,113.1l1.6-6.6h1.7l1.5,6.6H83l-0.3-1.7h-1.4l-0.3,1.7H79.6z M81.4,110.5h1l-0.3-1.9c-0.1-0.3-0.1-0.6-0.1-0.9
		c0-0.1,0-0.3,0-0.4h0c0,0.1,0,0.3,0,0.4c0,0.3-0.1,0.6-0.1,0.9L81.4,110.5z"/>
	<path d="M86,110.3v2.8h-1.2v-6.6h2.3c1.1,0,1.9,0.4,1.9,1.6c0,0.7-0.2,1.5-1,1.6v0c0.7,0.1,0.9,0.6,0.9,1.2c0,0.3,0,1.9,0.3,2.1
		v0.1h-1.3c-0.1-0.4-0.1-1.2-0.1-1.7c0-0.4,0-1-0.4-1.1c-0.3-0.1-0.7-0.1-1-0.1H86z M86,109.3h1c0.4,0,0.7-0.3,0.7-0.9
		c0-0.7-0.3-0.9-0.8-0.9H86V109.3z"/>
	<path d="M89.9,113.1v-6.6h3.4v1h-2.2v1.7h2v1h-2v2h2.2v1H89.9z"/>
	<path d="M93.7,106.5h4.1v1h-1.4v5.6h-1.2v-5.6h-1.4V106.5z"/>
</g>
<g>
	<path d="M43.7,183.3v2.8h-1.2v-6.6h2.3c1.1,0,1.9,0.4,1.9,1.6c0,0.7-0.2,1.5-1,1.6v0c0.7,0.1,0.9,0.6,0.9,1.2c0,0.3,0,1.9,0.3,2.1
		v0.1h-1.3c-0.1-0.4-0.1-1.2-0.1-1.7c0-0.4,0-1-0.4-1.1c-0.3-0.1-0.7-0.1-1-0.1H43.7z M43.7,182.3h1c0.4,0,0.7-0.3,0.7-0.9
		c0-0.7-0.3-0.9-0.8-0.9h-0.9V182.3z"/>
	<path d="M47.6,186.1v-6.6H51v1h-2.2v1.7h2v1h-2v2H51v1H47.6z"/>
	<path d="M51.3,186.1l1.6-6.6h1.7l1.5,6.6h-1.3l-0.3-1.7h-1.4l-0.3,1.7H51.3z M53.1,183.5h1.1l-0.3-1.9c-0.1-0.3-0.1-0.6-0.1-0.9
		c0-0.2,0-0.3,0-0.4h0c0,0.1,0,0.3,0,0.4c0,0.3-0.1,0.6-0.1,0.9L53.1,183.5z"/>
	<path d="M57.7,183.3v2.8h-1.2v-6.6h2.3c1.1,0,1.9,0.4,1.9,1.6c0,0.7-0.2,1.5-1,1.6v0c0.7,0.1,0.9,0.6,0.9,1.2c0,0.3,0,1.9,0.3,2.1
		v0.1h-1.3c-0.1-0.4-0.1-1.2-0.1-1.7c0-0.4,0-1-0.4-1.1c-0.3-0.1-0.7-0.1-1-0.1H57.7z M57.7,182.3h1c0.4,0,0.7-0.3,0.7-0.9
		c0-0.7-0.3-0.9-0.8-0.9h-0.9V182.3z"/>
	<path d="M67.6,183.8c0,0.1,0,0.3,0,0.4c-0.1,1.2-0.5,2.1-1.8,2.1c-2,0-2.1-1.3-2.1-3v-0.9c0.1-1.7,0.2-2.9,2.1-2.9
		c1.1,0,1.7,0.6,1.8,1.7c0,0.2,0,0.3,0,0.5h-1.2c-0.1-0.4,0-1.2-0.6-1.2c-1,0-0.9,1.1-0.9,1.7v1.8c0,0.5,0,1.4,0.9,1.4
		c0.7,0,0.6-1.1,0.6-1.5H67.6z"/>
	<path d="M67.9,186.1l1.6-6.6h1.7l1.5,6.6h-1.3l-0.3-1.7h-1.4l-0.3,1.7H67.9z M69.7,183.5h1l-0.3-1.9c-0.1-0.3-0.1-0.6-0.1-0.9
		c0-0.2,0-0.3,0-0.4h0c0,0.1,0,0.3,0,0.4c0,0.3-0.1,0.6-0.1,0.9L69.7,183.5z"/>
	<path d="M73.1,186.1v-6.6h2c0.5,0,1,0,1.4,0.5c0.3,0.4,0.3,0.7,0.3,1.2c0,0.6-0.1,1.1-0.8,1.4v0c0.7,0.1,1,0.7,1,1.5
		c0,0.3,0,0.5-0.1,0.8c-0.3,0.8-0.7,1.2-1.6,1.2H73.1z M74.5,182.2c0.3,0,0.7,0,0.9-0.2c0.1-0.2,0.1-0.4,0.1-0.7
		c0-0.5-0.1-0.7-0.7-0.8h-0.6v1.7H74.5z M74.5,185.2c0.3,0,0.5,0,0.7-0.1c0.3-0.1,0.4-0.6,0.4-0.9c0-0.7-0.1-1-0.9-1h-0.5v2H74.5z"
		/>
	<path d="M77.3,186.1l1.6-6.6h1.7l1.5,6.6h-1.3l-0.3-1.7h-1.4l-0.3,1.7H77.3z M79.1,183.5h1l-0.3-1.9c-0.1-0.3-0.1-0.6-0.1-0.9
		c0-0.2,0-0.3,0-0.4h0c0,0.1,0,0.3,0,0.4c0,0.3-0.1,0.6-0.1,0.9L79.1,183.5z"/>
	<path d="M83.7,183.3v2.8h-1.2v-6.6h2.3c1.1,0,1.9,0.4,1.9,1.6c0,0.7-0.2,1.5-1,1.6v0c0.7,0.1,0.9,0.6,0.9,1.2c0,0.3,0,1.9,0.3,2.1
		v0.1h-1.3c-0.1-0.4-0.1-1.2-0.1-1.7c0-0.4,0-1-0.4-1.1c-0.3-0.1-0.7-0.1-1-0.1H83.7z M83.7,182.3h1c0.4,0,0.7-0.3,0.7-0.9
		c0-0.7-0.3-0.9-0.8-0.9h-0.9V182.3z"/>
	<path d="M87.6,186.1v-6.6H91v1h-2.2v1.7h2v1h-2v2H91v1H87.6z"/>
	<path d="M91.4,179.6h4.1v1H94v5.6h-1.2v-5.6h-1.4V179.6z"/>
</g>
<g>
	<path d="M49.4,238.2v-4.9H52v0.7h-1.7v1.2h1.6v0.7h-1.6v2.2H49.4z"/>
	<path d="M53.4,236.1v2.1h-0.9v-4.9h1.7c0.8,0,1.4,0.3,1.4,1.2c0,0.5-0.1,1.1-0.8,1.2v0c0.5,0.1,0.7,0.4,0.7,0.9
		c0,0.2,0,1.4,0.2,1.6v0.1h-1c-0.1-0.3-0.1-0.9-0.1-1.2c0-0.3,0-0.7-0.3-0.8c-0.2-0.1-0.5-0.1-0.8-0.1H53.4z M53.4,235.4h0.7
		c0.3,0,0.5-0.2,0.5-0.7c0-0.6-0.2-0.6-0.6-0.6h-0.7V235.4z"/>
	<path d="M56.3,235.4c0-1.3,0.1-2.2,1.6-2.2c1.5,0,1.6,0.9,1.6,2.2v0.7c0,1.3-0.1,2.3-1.6,2.3c-1.5,0-1.6-1-1.6-2.3V235.4z
		 M57.3,236.5c0,0.4,0,1.1,0.7,1.1c0.7,0,0.7-0.7,0.7-1.1v-1.3c0-0.4,0-1.3-0.7-1.3c-0.7,0-0.7,0.9-0.7,1.2V236.5z"/>
	<path d="M62.4,233.3h0.9v4.9h-1l-0.7-1.8c-0.2-0.6-0.4-1.2-0.7-2h0c0,0.4,0.1,0.9,0.1,1.4c0,0.5,0,1,0,1.4v0.9h-0.9v-4.9h1l0.7,1.8
		c0.2,0.6,0.4,1.2,0.7,2h0c0-0.4-0.1-0.9-0.1-1.4c0-0.5,0-0.9,0-1.4V233.3z"/>
	<path d="M63.8,233.3h3.1v0.7h-1.1v4.2h-0.9V234h-1.1V233.3z"/>
	<path d="M68.8,238.2v-4.9h1.9c0.2,0,0.7,0.1,1,0.6c0.2,0.3,0.3,0.9,0.3,1.7c0,1,0,2.1-0.8,2.5c-0.2,0.1-0.5,0.1-0.7,0.1H68.8z
		 M70.1,237.5c0.8,0,0.9-0.4,0.9-1.9c0-1.2-0.1-1.6-0.7-1.6h-0.6v3.5H70.1z"/>
	<path d="M72.6,235.4c0-1.3,0.1-2.2,1.6-2.2s1.6,0.9,1.6,2.2v0.7c0,1.3-0.1,2.3-1.6,2.3c-1.5,0-1.6-1-1.6-2.3V235.4z M73.6,236.5
		c0,0.4,0,1.1,0.7,1.1c0.7,0,0.7-0.7,0.7-1.1v-1.3c0-0.4,0-1.3-0.7-1.3c-0.7,0-0.7,0.9-0.7,1.2V236.5z"/>
	<path d="M76.5,235.4c0-1.3,0.1-2.2,1.6-2.2c1.5,0,1.6,0.9,1.6,2.2v0.7c0,1.3-0.1,2.3-1.6,2.3c-1.5,0-1.6-1-1.6-2.3V235.4z
		 M77.4,236.5c0,0.4,0,1.1,0.7,1.1c0.7,0,0.7-0.7,0.7-1.1v-1.3c0-0.4,0-1.3-0.7-1.3c-0.7,0-0.7,0.9-0.7,1.2V236.5z"/>
	<path d="M81.3,236.1v2.1h-0.9v-4.9h1.7c0.8,0,1.4,0.3,1.4,1.2c0,0.5-0.1,1.1-0.8,1.2v0c0.5,0.1,0.7,0.4,0.7,0.9
		c0,0.2,0,1.4,0.2,1.6v0.1h-1c-0.1-0.3-0.1-0.9-0.1-1.2c0-0.3,0-0.7-0.3-0.8c-0.2-0.1-0.5-0.1-0.8-0.1H81.3z M81.3,235.4H82
		c0.3,0,0.5-0.2,0.5-0.7c0-0.6-0.2-0.6-0.6-0.6h-0.7V235.4z"/>
	<path d="M86.2,234.8c0-0.4,0-0.9-0.5-0.9c-0.3,0-0.5,0.1-0.5,0.5c0,0.4,0.2,0.5,0.5,0.7c0.3,0.2,0.9,0.6,1.1,0.8
		c0.3,0.3,0.4,0.6,0.4,1c0,0.9-0.6,1.4-1.5,1.4c-1.1,0-1.5-0.6-1.5-1.5v-0.4h0.9v0.3c0,0.5,0.1,0.8,0.6,0.8c0.4,0,0.6-0.2,0.6-0.6
		c0-0.3-0.1-0.5-0.4-0.7c-0.5-0.4-1.1-0.6-1.5-1.1c-0.2-0.2-0.2-0.5-0.2-0.8c0-0.8,0.5-1.3,1.4-1.3c1.5,0,1.4,1.1,1.4,1.6H86.2z"/>
</g>
<g>
	<path d="M50.9,254.2c0-1,0.1-1.8,1.3-1.8c0.7,0,1.1,0.2,1.3,0.9c0,0.2,0,0.3,0,0.5h-0.8c0-0.4,0-0.7-0.6-0.8c-0.6,0-0.6,0.7-0.6,1
		v1.1c0,0.3,0,0.9,0.6,0.9c0.4,0,0.6-0.5,0.6-1.1h-0.5v-0.6h1.3v2.2H53v-0.5h0c-0.2,0.4-0.4,0.5-0.7,0.6c-1.3,0-1.3-0.8-1.3-1.9
		V254.2z"/>
	<path d="M55,254.8v1.8h-0.8v-4.1h1.4c0.7,0,1.2,0.2,1.2,1c0,0.4-0.1,0.9-0.6,1v0c0.5,0.1,0.6,0.3,0.6,0.7c0,0.2,0,1.2,0.2,1.3v0.1
		h-0.8c-0.1-0.3-0.1-0.8-0.1-1c0-0.3,0-0.6-0.3-0.7c-0.2-0.1-0.4-0.1-0.7-0.1H55z M55,254.2h0.6c0.3,0,0.4-0.2,0.4-0.6
		c0-0.5-0.2-0.5-0.5-0.5H55V254.2z"/>
	<path d="M57.4,254.2c0-1,0.1-1.8,1.3-1.8c1.2,0,1.3,0.8,1.3,1.8v0.6c0,1.1-0.1,1.9-1.3,1.9c-1.3,0-1.3-0.8-1.3-1.9V254.2z
		 M58.2,255.1c0,0.3,0,0.9,0.6,0.9c0.5,0,0.6-0.6,0.6-1v-1c0-0.3,0-1.1-0.6-1.1c-0.6,0-0.6,0.7-0.6,1V255.1z"/>
	<path d="M62.5,252.5h0.8v2.9c0,0.9-0.3,1.3-1.3,1.3c-1,0-1.3-0.4-1.3-1.3v-2.9h0.8v2.8c0,0.4,0,0.8,0.5,0.8c0.5,0,0.5-0.4,0.5-0.8
		V252.5z"/>
	<path d="M65.7,252.5h0.8v4.1h-0.8l-0.6-1.5c-0.2-0.5-0.4-1-0.5-1.6h0c0,0.3,0.1,0.8,0.1,1.2c0,0.4,0,0.8,0,1.1v0.8h-0.8v-4.1h0.8
		l0.6,1.5c0.2,0.5,0.4,1,0.5,1.6h0c0-0.4-0.1-0.8-0.1-1.2c0-0.4,0-0.8,0-1.2V252.5z"/>
	<path d="M67.2,256.6v-4.1h1.6c0.2,0,0.6,0.1,0.8,0.5c0.2,0.3,0.2,0.7,0.2,1.4c0,0.8,0,1.7-0.6,2.1c-0.2,0.1-0.4,0.1-0.6,0.1H67.2z
		 M68.3,256c0.7,0,0.7-0.4,0.7-1.5c0-1-0.1-1.4-0.6-1.4h-0.5v2.9H68.3z"/>
	<path d="M71.7,256.6v-4.1h2.2v0.6h-1.4v1h1.3v0.6h-1.3v1.9H71.7z"/>
	<path d="M74.3,256.6v-4.1H75v3.5h1.4v0.6H74.3z"/>
	<path d="M76.8,254.2c0-1,0.1-1.8,1.3-1.8c1.2,0,1.3,0.8,1.3,1.8v0.6c0,1.1-0.1,1.9-1.3,1.9c-1.3,0-1.3-0.8-1.3-1.9V254.2z
		 M77.6,255.1c0,0.3,0,0.9,0.6,0.9c0.5,0,0.6-0.6,0.6-1v-1c0-0.3,0-1.1-0.6-1.1c-0.6,0-0.6,0.7-0.6,1V255.1z"/>
	<path d="M80.1,254.2c0-1,0.1-1.8,1.3-1.8c1.2,0,1.3,0.8,1.3,1.8v0.6c0,1.1-0.1,1.9-1.3,1.9c-1.3,0-1.3-0.8-1.3-1.9V254.2z
		 M80.9,255.1c0,0.3,0,0.9,0.6,0.9c0.5,0,0.6-0.6,0.6-1v-1c0-0.3,0-1.1-0.6-1.1c-0.6,0-0.6,0.7-0.6,1V255.1z"/>
	<path d="M84.1,254.8v1.8h-0.8v-4.1h1.4c0.7,0,1.2,0.2,1.2,1c0,0.4-0.1,0.9-0.6,1v0c0.5,0.1,0.6,0.3,0.6,0.7c0,0.2,0,1.2,0.2,1.3
		v0.1h-0.8c-0.1-0.3-0.1-0.8-0.1-1c0-0.3,0-0.6-0.3-0.7c-0.2-0.1-0.4-0.1-0.7-0.1H84.1z M84.1,254.2h0.6c0.3,0,0.4-0.2,0.4-0.6
		c0-0.5-0.2-0.5-0.5-0.5h-0.6V254.2z"/>
</g>
<g>
	<path d="M175.6,189.9c0,0.1,0,0.3,0,0.4c-0.1,1.2-0.5,2.1-1.8,2.1c-2,0-2.1-1.3-2.1-3v-0.9c0.1-1.7,0.2-2.9,2.1-2.9
		c1.1,0,1.7,0.6,1.8,1.7c0,0.2,0,0.3,0,0.5h-1.2c-0.1-0.4,0-1.2-0.6-1.2c-1,0-0.9,1.1-0.9,1.7v1.8c0,0.5,0,1.4,0.9,1.4
		c0.7,0,0.6-1.1,0.6-1.5H175.6z"/>
	<path d="M176.4,192.2v-6.6h3.4v1h-2.2v1.7h2v1h-2v2h2.2v1H176.4z"/>
	<path d="M183.6,185.6h1.2v6.6h-1.3l-1-2.3c-0.3-0.8-0.6-1.6-0.9-2.6h0c0,0.5,0.1,1.2,0.1,1.9c0,0.7,0.1,1.3,0.1,1.8v1.2h-1.2v-6.6
		h1.3l1,2.4c0.3,0.8,0.6,1.5,0.9,2.6h0c0-0.6-0.1-1.2-0.1-1.9c0-0.6-0.1-1.3-0.1-1.8V185.6z"/>
	<path d="M185.4,185.6h4.1v1H188v5.6h-1.2v-5.6h-1.4V185.6z"/>
	<path d="M190,192.2v-6.6h3.4v1h-2.2v1.7h2v1h-2v2h2.2v1H190z"/>
	<path d="M195.4,189.4v2.8h-1.2v-6.6h2.3c1.1,0,1.9,0.4,1.9,1.6c0,0.7-0.2,1.5-1,1.6v0c0.7,0.1,0.9,0.6,0.9,1.2c0,0.3,0,1.9,0.3,2.1
		v0.1h-1.3c-0.1-0.4-0.1-1.2-0.1-1.7c0-0.4,0-1-0.4-1.1c-0.3-0.1-0.7-0.1-1-0.1H195.4z M195.4,188.4h1c0.4,0,0.7-0.3,0.7-0.9
		c0-0.7-0.3-0.9-0.8-0.9h-0.9V188.4z"/>
	<path d="M201.4,192.2v-6.6h2c0.5,0,1,0,1.4,0.5c0.3,0.4,0.3,0.7,0.3,1.2c0,0.6-0.1,1.1-0.8,1.4v0c0.7,0.1,1,0.7,1,1.5
		c0,0.3,0,0.5-0.1,0.8c-0.3,0.8-0.7,1.2-1.6,1.2H201.4z M202.8,188.3c0.3,0,0.7,0,0.9-0.2c0.1-0.2,0.1-0.4,0.1-0.7
		c0-0.5-0.1-0.7-0.7-0.8h-0.6v1.7H202.8z M202.9,191.2c0.3,0,0.5,0,0.7-0.1c0.3-0.1,0.4-0.6,0.4-0.9c0-0.7-0.1-1-0.9-1h-0.5v2H202.9
		z"/>
	<path d="M205.6,192.2l1.6-6.6h1.7l1.5,6.6H209l-0.3-1.7h-1.4l-0.3,1.7H205.6z M207.4,189.6h1l-0.3-1.9c-0.1-0.3-0.1-0.6-0.1-0.9
		c0-0.1,0-0.3,0-0.4h0c0,0.1,0,0.3,0,0.4c0,0.3-0.1,0.6-0.1,0.9L207.4,189.6z"/>
	<path d="M210.8,192.2v-6.6h1.2v5.6h2.3v1H210.8z"/>
	<path d="M218.9,189.9c0,0.1,0,0.3,0,0.4c-0.1,1.2-0.5,2.1-1.8,2.1c-2,0-2.1-1.3-2.1-3v-0.9c0.1-1.7,0.2-2.9,2.1-2.9
		c1.1,0,1.7,0.6,1.8,1.7c0,0.2,0,0.3,0,0.5h-1.2c-0.1-0.4,0-1.2-0.6-1.2c-1,0-0.9,1.1-0.9,1.7v1.8c0,0.5,0,1.4,0.9,1.4
		c0.7,0,0.6-1.1,0.6-1.5H218.9z"/>
	<path d="M219.6,188.4c0.1-1.7,0.2-2.9,2.1-2.9c2,0,2.1,1.2,2.1,2.9v0.9c0,1.8-0.1,3-2.1,3c-2,0-2.1-1.3-2.1-3V188.4z M220.9,190
		c0,0.5,0,1.4,0.9,1.4c0.9,0,0.9-0.9,0.9-1.5v-1.7c0-0.5,0-1.7-0.9-1.7c-1,0-0.9,1.1-0.9,1.7V190z"/>
	<path d="M227.8,185.6h1.2v6.6h-1.3l-1-2.3c-0.3-0.8-0.6-1.6-0.9-2.6h0c0,0.5,0.1,1.2,0.1,1.9c0,0.7,0.1,1.3,0.1,1.8v1.2h-1.2v-6.6
		h1.3l1,2.4c0.3,0.8,0.6,1.5,0.9,2.6h0c0-0.6-0.1-1.2-0.1-1.9c0-0.6-0.1-1.3-0.1-1.8V185.6z"/>
	<path d="M231.5,187.4c0.1,0.3,0.2,0.7,0.3,1h0c0.1-0.5,0.3-0.9,0.4-1.2l0.6-1.5h1.3l-1.7,3.8v2.8h-1.2v-2.8l-1.7-3.8h1.3
		L231.5,187.4z"/>
</g>
<g>
	<path d="M185,170.2c0,0.1,0,0.3,0,0.4c-0.1,1.2-0.5,2.1-1.8,2.1c-2,0-2.1-1.3-2.1-3v-0.9c0.1-1.7,0.2-2.9,2.1-2.9
		c1.1,0,1.7,0.6,1.8,1.7c0,0.2,0,0.3,0,0.5h-1.2c-0.1-0.4,0-1.2-0.6-1.2c-1,0-0.9,1.1-0.9,1.7v1.8c0,0.5,0,1.4,0.9,1.4
		c0.7,0,0.6-1.1,0.6-1.5H185z"/>
	<path d="M185.8,172.5V166h3.4v1H187v1.7h2v1h-2v2h2.2v1H185.8z"/>
	<path d="M192.9,166h1.2v6.6h-1.3l-1-2.3c-0.3-0.8-0.6-1.6-0.9-2.6h0c0,0.5,0.1,1.2,0.1,1.9c0,0.7,0.1,1.3,0.1,1.8v1.2H190V166h1.3
		l1,2.4c0.3,0.8,0.6,1.5,0.9,2.6h0c0-0.6-0.1-1.2-0.1-1.9c0-0.6-0.1-1.3-0.1-1.8V166z"/>
	<path d="M194.7,166h4.1v1h-1.4v5.6h-1.2v-5.6h-1.4V166z"/>
	<path d="M199.4,172.5V166h3.4v1h-2.2v1.7h2v1h-2v2h2.2v1H199.4z"/>
	<path d="M204.8,169.7v2.8h-1.2V166h2.3c1.1,0,1.9,0.4,1.9,1.6c0,0.7-0.2,1.5-1,1.6v0c0.7,0.1,0.9,0.6,0.9,1.2c0,0.3,0,1.9,0.3,2.1
		v0.1h-1.3c-0.1-0.4-0.1-1.2-0.1-1.7c0-0.4,0-1-0.4-1.1c-0.3-0.1-0.7-0.1-1-0.1H204.8z M204.8,168.7h1c0.4,0,0.7-0.3,0.7-0.9
		c0-0.7-0.3-0.9-0.8-0.9h-0.9V168.7z"/>
	<path d="M210.7,172.5V166h2c0.5,0,1,0,1.4,0.5c0.3,0.4,0.3,0.7,0.3,1.2c0,0.6-0.1,1.1-0.8,1.4v0c0.7,0.1,1,0.7,1,1.5
		c0,0.3,0,0.5-0.1,0.8c-0.3,0.8-0.7,1.2-1.6,1.2H210.7z M212.2,168.6c0.3,0,0.7,0,0.9-0.2c0.1-0.2,0.1-0.4,0.1-0.7
		c0-0.5-0.1-0.7-0.7-0.8H212v1.7H212.2z M212.2,171.6c0.3,0,0.5,0,0.7-0.1c0.3-0.1,0.4-0.6,0.4-0.9c0-0.7-0.1-1-0.9-1H212v2H212.2z"
		/>
	<path d="M215.4,168.7c0.1-1.7,0.2-2.9,2.1-2.9c2,0,2.1,1.2,2.1,2.9v0.9c0,1.8-0.1,3-2.1,3c-2,0-2.1-1.3-2.1-3V168.7z M216.7,170.3
		c0,0.5,0,1.4,0.9,1.4c0.9,0,0.9-0.9,0.9-1.5v-1.7c0-0.5,0-1.7-0.9-1.7c-1,0-0.9,1.1-0.9,1.7V170.3z"/>
	<path d="M224.8,172.5h-1.4l-0.7-1.6c-0.1-0.3-0.2-0.5-0.3-0.8h0c-0.1,0.4-0.2,0.8-0.4,1.2l-0.5,1.2h-1.3l1.6-3.3l-1.5-3.2h1.4
		l0.7,1.5c0.1,0.3,0.2,0.5,0.2,0.8h0c0-0.4,0.2-0.8,0.4-1.2l0.5-1.1h1.4l-1.6,3.2L224.8,172.5z"/>
</g>
<g>
	<path d="M192.3,256.6v-4.1h1.2c0.3,0,0.7,0,0.9,0.3c0.2,0.2,0.2,0.5,0.2,0.7c0,0.4-0.1,0.7-0.5,0.9v0c0.4,0.1,0.6,0.4,0.6,1
		c0,0.2,0,0.3-0.1,0.5c-0.2,0.5-0.5,0.7-1,0.7H192.3z M193.2,254.1c0.2,0,0.4,0,0.5-0.1c0.1-0.1,0.1-0.2,0.1-0.4
		c0-0.3-0.1-0.5-0.4-0.5h-0.4v1.1H193.2z M193.3,256c0.2,0,0.3,0,0.5,0c0.2-0.1,0.2-0.4,0.2-0.6c0-0.4-0.1-0.6-0.6-0.6h-0.3v1.2
		H193.3z"/>
	<path d="M195,256.6l1-4.1h1l0.9,4.1h-0.8l-0.2-1H196l-0.2,1H195z M196.1,254.9h0.7l-0.2-1.2c0-0.2-0.1-0.4-0.1-0.6
		c0-0.1,0-0.2,0-0.3h0c0,0.1,0,0.2,0,0.3c0,0.2,0,0.4-0.1,0.6L196.1,254.9z"/>
	<path d="M198.2,256.6v-4.1h0.8v3.5h1.4v0.6H198.2z"/>
	<path d="M203.3,255.1c0,0.1,0,0.2,0,0.2c0,0.8-0.3,1.3-1.1,1.3c-1.3,0-1.3-0.8-1.3-1.9v-0.6c0-1,0.1-1.8,1.3-1.8
		c0.7,0,1.1,0.4,1.1,1.1c0,0.1,0,0.2,0,0.3h-0.8c0-0.3,0-0.8-0.4-0.8c-0.6,0-0.6,0.7-0.6,1v1.1c0,0.3,0,0.9,0.6,0.9
		c0.4,0,0.4-0.7,0.4-0.9H203.3z"/>
	<path d="M203.7,254.2c0-1,0.1-1.8,1.3-1.8s1.3,0.8,1.3,1.8v0.6c0,1.1-0.1,1.9-1.3,1.9c-1.3,0-1.3-0.8-1.3-1.9V254.2z M204.5,255.1
		c0,0.3,0,0.9,0.6,0.9c0.5,0,0.6-0.6,0.6-1v-1c0-0.3,0-1.1-0.6-1.1c-0.6,0-0.6,0.7-0.6,1V255.1z"/>
	<path d="M208.8,252.5h0.8v4.1h-0.8l-0.6-1.5c-0.2-0.5-0.4-1-0.5-1.6h0c0,0.3,0.1,0.8,0.1,1.2c0,0.4,0,0.8,0,1.1v0.8H207v-4.1h0.8
		l0.6,1.5c0.2,0.5,0.4,1,0.5,1.6h0c0-0.4-0.1-0.8-0.1-1.2c0-0.4,0-0.8,0-1.2V252.5z"/>
	<path d="M211.2,253.5c0.1,0.2,0.1,0.4,0.2,0.6h0c0.1-0.3,0.2-0.5,0.3-0.8l0.4-0.9h0.8l-1.1,2.4v1.7H211v-1.7l-1.1-2.4h0.8
		L211.2,253.5z"/>
</g>
<g>
	<path d="M183.5,154.3c0,0.1,0,0.2,0,0.2c0,0.7-0.3,1.3-1.1,1.3c-1.3,0-1.3-0.8-1.3-1.9v-0.6c0-1,0.1-1.8,1.3-1.8
		c0.7,0,1.1,0.4,1.1,1.1c0,0.1,0,0.2,0,0.3h-0.8c0-0.3,0-0.8-0.4-0.8c-0.6,0-0.6,0.7-0.6,1v1.1c0,0.3,0,0.9,0.6,0.9
		c0.4,0,0.4-0.7,0.4-0.9H183.5z"/>
	<path d="M184.9,152.7c0.1,0.2,0.1,0.4,0.2,0.6h0c0.1-0.3,0.2-0.5,0.3-0.8l0.4-0.9h0.8l-1.1,2.4v1.7h-0.8V154l-1.1-2.4h0.8
		L184.9,152.7z"/>
	<path d="M187.6,154v1.8h-0.8v-4.1h1.4c0.7,0,1.2,0.2,1.2,1c0,0.4-0.1,0.9-0.6,1v0c0.5,0.1,0.6,0.4,0.6,0.7c0,0.2,0,1.2,0.2,1.3v0.1
		h-0.8c-0.1-0.3-0.1-0.8-0.1-1c0-0.3,0-0.6-0.3-0.7c-0.2-0.1-0.4-0.1-0.7-0.1H187.6z M187.6,153.4h0.6c0.3,0,0.4-0.2,0.4-0.6
		c0-0.5-0.2-0.5-0.5-0.5h-0.6V153.4z"/>
	<path d="M190.1,155.8v-4.1h0.8v4.1H190.1z"/>
	<path d="M191.5,155.8v-4.1h0.8v3.5h1.4v0.6H191.5z"/>
	<path d="M196.2,155.8h-0.8v-4.1h1.2l0.4,1.9c0.1,0.3,0.1,0.6,0.1,0.9h0c0-0.4,0.1-0.7,0.1-0.9l0.4-1.9h1.2v4.1h-0.8v-1.3
		c0-0.8,0-1.6,0.1-2.4h0l-0.8,3.7h-0.5l-0.8-3.7h0c0,0.8,0.1,1.6,0.1,2.4V155.8z"/>
	<path d="M199.2,155.8l1-4.1h1l0.9,4.1h-0.8l-0.2-1h-0.9l-0.2,1H199.2z M200.4,154.1h0.7l-0.2-1.2c0-0.2-0.1-0.4-0.1-0.6
		c0-0.1,0-0.2,0-0.3h0c0,0.1,0,0.2,0,0.3c0,0.2,0,0.4-0.1,0.6L200.4,154.1z"/>
	<path d="M202.4,153.4c0-1,0.1-1.8,1.3-1.8c0.7,0,1.1,0.2,1.3,0.9c0,0.2,0,0.3,0,0.5h-0.8c0-0.4,0-0.7-0.6-0.8c-0.6,0-0.6,0.7-0.6,1
		v1.1c0,0.3,0,0.9,0.6,0.9c0.4,0,0.6-0.5,0.6-1.1h-0.5v-0.6h1.3v2.2h-0.6v-0.5h0c-0.2,0.4-0.4,0.5-0.7,0.6c-1.3,0-1.3-0.8-1.3-1.9
		V153.4z"/>
	<path d="M207.6,151.7h0.8v4.1h-0.8l-0.6-1.5c-0.2-0.5-0.4-1-0.5-1.6h0c0,0.3,0.1,0.8,0.1,1.2c0,0.4,0,0.8,0,1.1v0.8h-0.8v-4.1h0.8
		l0.6,1.5c0.2,0.5,0.4,1,0.5,1.6h0c0-0.4-0.1-0.8-0.1-1.2c0-0.4,0-0.8,0-1.2V151.7z"/>
	<path d="M209,155.8v-4.1h0.8v4.1H209z"/>
	<path d="M212.2,151.7h0.8v4.1h-0.8l-0.6-1.5c-0.2-0.5-0.4-1-0.5-1.6h0c0,0.3,0.1,0.8,0.1,1.2c0,0.4,0,0.8,0,1.1v0.8h-0.8v-4.1h0.8
		l0.6,1.5c0.2,0.5,0.4,1,0.5,1.6h0c0-0.4-0.1-0.8-0.1-1.2c0-0.4,0-0.8,0-1.2V151.7z"/>
	<path d="M214.8,155.8v-4.1h1.2c0.3,0,0.7,0,0.9,0.3c0.2,0.2,0.2,0.5,0.2,0.7c0,0.4-0.1,0.7-0.5,0.9v0c0.4,0.1,0.6,0.4,0.6,1
		c0,0.2,0,0.3-0.1,0.5c-0.2,0.5-0.5,0.7-1,0.7H214.8z M215.7,153.3c0.2,0,0.4,0,0.5-0.1c0.1-0.1,0.1-0.2,0.1-0.4
		c0-0.3-0.1-0.5-0.4-0.5h-0.4v1.1H215.7z M215.8,155.2c0.2,0,0.3,0,0.5,0c0.2-0.1,0.2-0.4,0.2-0.6c0-0.4-0.1-0.6-0.6-0.6h-0.3v1.2
		H215.8z"/>
	<path d="M217.7,153.4c0-1,0.1-1.8,1.3-1.8c1.2,0,1.3,0.8,1.3,1.8v0.6c0,1.1-0.1,1.9-1.3,1.9c-1.3,0-1.3-0.8-1.3-1.9V153.4z
		 M218.5,154.4c0,0.3,0,0.9,0.6,0.9c0.5,0,0.6-0.6,0.6-1v-1.1c0-0.3,0-1.1-0.6-1.1c-0.6,0-0.6,0.7-0.6,1V154.4z"/>
	<path d="M223.6,155.8h-0.9l-0.4-1c-0.1-0.2-0.1-0.3-0.2-0.5h0c0,0.3-0.2,0.5-0.3,0.8l-0.3,0.8h-0.8l1-2.1l-1-2h0.9l0.4,0.9
		c0.1,0.2,0.1,0.3,0.1,0.5h0c0-0.3,0.1-0.5,0.3-0.8l0.3-0.7h0.9l-1,2L223.6,155.8z"/>
</g>
<g>
	<path d="M155.8,105.9c-0.4,0-0.7,0-0.7,0.4c0,0.3,0.1,0.4,0.4,0.4c0.3,0,0.4-0.2,0.6-0.4c0.2-0.3,0.5-0.7,0.7-0.9
		c0.3-0.3,0.5-0.3,0.9-0.3c0.8,0,1.2,0.5,1.2,1.3c0,0.9-0.5,1.2-1.2,1.2h-0.3v-0.8h0.2c0.4,0,0.7-0.1,0.7-0.5c0-0.3-0.2-0.5-0.5-0.5
		c-0.2,0-0.4,0.1-0.5,0.3c-0.3,0.4-0.5,0.9-0.9,1.2c-0.2,0.1-0.4,0.2-0.6,0.2c-0.7,0-1.1-0.4-1.1-1.2c0-1.2,0.9-1.2,1.3-1.2V105.9z"
		/>
	<path d="M158.7,104.5h-4.1v-0.8h4.1V104.5z"/>
	<path d="M158.7,103.1h-4.1v-1.6c0-0.2,0.1-0.6,0.5-0.8c0.3-0.2,0.7-0.2,1.4-0.2c0.8,0,1.7,0,2.1,0.6c0.1,0.2,0.1,0.4,0.1,0.6V103.1
		z M158.1,102c0-0.7-0.4-0.7-1.5-0.7c-1,0-1.4,0.1-1.4,0.6v0.5h2.9V102z"/>
	<path d="M158.7,99.9h-4.1v-2.2h0.6v1.4h1v-1.3h0.6v1.3h1.3v-1.4h0.6V99.9z"/>
	<path d="M158.7,96h-4.1v-1.2c0-0.3,0-0.7,0.3-0.9c0.2-0.2,0.5-0.2,0.7-0.2c0.4,0,0.7,0.1,0.9,0.5h0c0.1-0.4,0.4-0.6,1-0.6
		c0.2,0,0.3,0,0.5,0.1c0.5,0.2,0.7,0.5,0.7,1V96z M156.2,95.1c0-0.2,0-0.4-0.1-0.5c-0.1-0.1-0.2-0.1-0.4-0.1c-0.3,0-0.5,0.1-0.5,0.4
		v0.4h1.1V95.1z M158.1,95.1c0-0.2,0-0.3,0-0.5c-0.1-0.2-0.4-0.2-0.6-0.2c-0.4,0-0.6,0.1-0.6,0.6v0.3h1.2V95.1z"/>
	<path d="M156.3,93.1c-1,0-1.8-0.1-1.8-1.3c0-1.2,0.8-1.3,1.8-1.3h0.6c1.1,0,1.9,0.1,1.9,1.3c0,1.3-0.8,1.3-1.9,1.3H156.3z
		 M157.3,92.3c0.3,0,0.9,0,0.9-0.6c0-0.5-0.6-0.6-1-0.6h-1c-0.3,0-1.1,0-1.1,0.6c0,0.6,0.7,0.6,1,0.6H157.3z"/>
	<path d="M158.7,87.3v0.9l-1,0.4c-0.2,0.1-0.3,0.1-0.5,0.2v0c0.3,0,0.5,0.2,0.8,0.3l0.8,0.3v0.8l-2.1-1l-2,1v-0.9l0.9-0.4
		c0.2-0.1,0.3-0.1,0.5-0.1v0c-0.3,0-0.5-0.1-0.8-0.3l-0.7-0.3v-0.9l2,1L158.7,87.3z"/>
</g>
<g>
	<path d="M249.5,88.3c0.4,0,0.7,0,0.7-0.4c0-0.3-0.1-0.4-0.4-0.4c-0.3,0-0.4,0.2-0.6,0.4c-0.2,0.3-0.5,0.7-0.7,0.9
		c-0.3,0.3-0.5,0.3-0.9,0.3c-0.8,0-1.2-0.5-1.2-1.3c0-0.9,0.5-1.2,1.2-1.2h0.3v0.8h-0.2c-0.4,0-0.7,0.1-0.7,0.5
		c0,0.3,0.2,0.5,0.5,0.5c0.2,0,0.4-0.1,0.5-0.3c0.3-0.4,0.5-0.9,0.9-1.2c0.2-0.1,0.4-0.2,0.6-0.2c0.7,0,1.1,0.4,1.1,1.2
		c0,1.2-0.9,1.2-1.3,1.2V88.3z"/>
	<path d="M246.6,89.7h4.1v0.8h-4.1V89.7z"/>
	<path d="M246.6,91.1h4.1v1.6c0,0.2-0.1,0.6-0.5,0.8c-0.3,0.2-0.7,0.2-1.4,0.2c-0.8,0-1.7,0-2.1-0.6c-0.1-0.2-0.1-0.4-0.1-0.6V91.1z
		 M247.2,92.2c0,0.7,0.4,0.7,1.5,0.7c1,0,1.4-0.1,1.4-0.6v-0.5h-2.9V92.2z"/>
	<path d="M246.6,94.3h4.1v2.2h-0.6v-1.4h-1v1.3h-0.6v-1.3h-1.3v1.4h-0.6V94.3z"/>
	<path d="M246.6,98.2h4.1v1.2c0,0.3,0,0.7-0.3,0.9c-0.2,0.2-0.5,0.2-0.7,0.2c-0.4,0-0.7-0.1-0.9-0.5h0c-0.1,0.4-0.4,0.6-1,0.6
		c-0.2,0-0.3,0-0.5-0.1c-0.5-0.2-0.7-0.5-0.7-1V98.2z M247.2,99.1c0,0.2,0,0.3,0,0.5c0.1,0.2,0.4,0.2,0.6,0.2c0.4,0,0.6-0.1,0.6-0.6
		V99h-1.2V99.1z M249.1,99.1c0,0.2,0,0.4,0.1,0.5c0.1,0.1,0.2,0.1,0.4,0.1c0.3,0,0.5-0.1,0.5-0.4V99h-1.1V99.1z"/>
	<path d="M249,101.1c1,0,1.8,0.1,1.8,1.3c0,1.2-0.8,1.3-1.8,1.3h-0.6c-1.1,0-1.9-0.1-1.9-1.3c0-1.3,0.8-1.3,1.9-1.3H249z M248,101.9
		c-0.3,0-0.9,0-0.9,0.6c0,0.5,0.6,0.6,1,0.6h1c0.3,0,1.1,0,1.1-0.6c0-0.6-0.7-0.6-1-0.6H248z"/>
	<path d="M246.6,107v-0.9l1-0.4c0.2-0.1,0.3-0.1,0.5-0.2v0c-0.3,0-0.5-0.2-0.8-0.3l-0.8-0.3v-0.8l2.1,1l2-1v0.9l-0.9,0.4
		c-0.2,0.1-0.3,0.1-0.5,0.1v0c0.3,0,0.5,0.1,0.8,0.3l0.7,0.3v0.9l-2-1L246.6,107z"/>
</g>
<g>
	<rect x="148" y="203.3" fill="#FFFFFF" width="108.6" height="41.9"/>
	<path d="M257.2,245.8H147.5v-42.9h109.6V245.8z M148.5,244.8h107.6v-40.9H148.5V244.8z"/>
</g>
<g>
	<path d="M178.8,225.1v2.8h-1.2v-6.6h2.3c1.1,0,1.9,0.4,1.9,1.6c0,0.7-0.2,1.5-1,1.6v0c0.7,0.1,0.9,0.6,0.9,1.2c0,0.3,0,1.9,0.3,2.1
		v0.1h-1.3c-0.1-0.4-0.1-1.2-0.1-1.7c0-0.4,0-1-0.4-1.1c-0.3-0.1-0.7-0.1-1-0.1H178.8z M178.8,224.2h1c0.4,0,0.7-0.3,0.7-0.9
		c0-0.7-0.3-0.9-0.8-0.9h-0.9V224.2z"/>
	<path d="M182.7,228v-6.6h3.4v1H184v1.7h2v1h-2v2h2.2v1H182.7z"/>
	<path d="M186.4,228l1.6-6.6h1.7l1.5,6.6h-1.3l-0.3-1.7h-1.4l-0.3,1.7H186.4z M188.3,225.3h1l-0.3-1.9c-0.1-0.3-0.1-0.6-0.1-0.9
		c0-0.1,0-0.3,0-0.4h0c0,0.1,0,0.3,0,0.4c0,0.3-0.1,0.6-0.1,0.9L188.3,225.3z"/>
	<path d="M192.9,225.1v2.8h-1.2v-6.6h2.3c1.1,0,1.9,0.4,1.9,1.6c0,0.7-0.2,1.5-1,1.6v0c0.7,0.1,0.9,0.6,0.9,1.2c0,0.3,0,1.9,0.3,2.1
		v0.1h-1.3c-0.1-0.4-0.1-1.2-0.1-1.7c0-0.4,0-1-0.4-1.1c-0.3-0.1-0.7-0.1-1-0.1H192.9z M192.9,224.2h1c0.4,0,0.7-0.3,0.7-0.9
		c0-0.7-0.3-0.9-0.8-0.9h-0.9V224.2z"/>
	<path d="M198.8,228v-6.6h2c0.5,0,1,0,1.4,0.5c0.3,0.4,0.3,0.7,0.3,1.2c0,0.6-0.1,1.1-0.8,1.4v0c0.7,0.1,1,0.7,1,1.5
		c0,0.3,0,0.5-0.1,0.8c-0.3,0.8-0.7,1.2-1.6,1.2H198.8z M200.3,224c0.3,0,0.7,0,0.9-0.2c0.1-0.2,0.1-0.4,0.1-0.7
		c0-0.5-0.1-0.7-0.7-0.8H200v1.7H200.3z M200.3,227c0.3,0,0.5,0,0.7-0.1c0.3-0.1,0.4-0.6,0.4-0.9c0-0.7-0.1-1-0.9-1H200v2H200.3z"/>
	<path d="M203,228l1.6-6.6h1.7l1.5,6.6h-1.3l-0.3-1.7h-1.4l-0.3,1.7H203z M204.8,225.3h1l-0.3-1.9c-0.1-0.3-0.1-0.6-0.1-0.9
		c0-0.1,0-0.3,0-0.4h0c0,0.1,0,0.3,0,0.4c0,0.3-0.1,0.6-0.1,0.9L204.8,225.3z"/>
	<path d="M208.2,228v-6.6h1.2v5.6h2.3v1H208.2z"/>
	<path d="M216.3,225.6c0,0.1,0,0.3,0,0.4c-0.1,1.2-0.5,2.1-1.8,2.1c-2,0-2.1-1.3-2.1-3v-0.9c0.1-1.7,0.2-2.9,2.1-2.9
		c1.1,0,1.7,0.6,1.8,1.7c0,0.2,0,0.3,0,0.5h-1.2c-0.1-0.4,0-1.2-0.6-1.2c-1,0-0.9,1.1-0.9,1.7v1.8c0,0.5,0,1.4,0.9,1.4
		c0.7,0,0.6-1.1,0.6-1.5H216.3z"/>
	<path d="M217,224.1c0.1-1.7,0.2-2.9,2.1-2.9c2,0,2.1,1.2,2.1,2.9v0.9c0,1.8-0.1,3-2.1,3s-2.1-1.3-2.1-3V224.1z M218.3,225.7
		c0,0.5,0,1.4,0.9,1.4c0.9,0,0.9-0.9,0.9-1.5v-1.7c0-0.5,0-1.7-0.9-1.7c-1,0-0.9,1.1-0.9,1.7V225.7z"/>
	<path d="M225.2,221.4h1.2v6.6h-1.3l-1-2.3c-0.3-0.8-0.6-1.6-0.9-2.6h0c0,0.5,0.1,1.2,0.1,1.9c0,0.7,0.1,1.3,0.1,1.8v1.2h-1.2v-6.6
		h1.3l1,2.4c0.3,0.8,0.6,1.5,0.9,2.6h0c0-0.6-0.1-1.2-0.1-1.9c0-0.6-0.1-1.3-0.1-1.8V221.4z"/>
	<path d="M229,223.1c0.1,0.3,0.2,0.7,0.3,1h0c0.1-0.5,0.3-0.9,0.4-1.2l0.6-1.5h1.3l-1.7,3.8v2.8h-1.2v-2.8l-1.7-3.8h1.3L229,223.1z"
		/>
</g>
<g>
	<line fill="#FFFFFF" x1="256.7" y1="176" x2="148" y2="176"/>
	<rect x="148" y="175.5" width="108.6" height="1"/>
</g>
<polygon points="46.1,83.3 13.9,83.3 13.9,82.3 45.1,82.3 45.1,77.2 46.1,77.2 "/>
</svg>
